<svg width="134" height="166" viewBox="0 0 134 166" fill="none" xmlns="http://www.w3.org/2000/svg">
<rect x="1" y="1" width="121" height="148" rx="8" fill="white" stroke="#DEDEDE" stroke-width="2"/>
<rect x="2.5" y="2.5" width="118" height="145" rx="6.5" fill="white" stroke="#CBC9D1" stroke-width="5"/>
<rect x="44" y="113" width="90" height="53" rx="7" fill="#0EA8FF"/>
<path d="M72.4724 142.016V128.96H67.1284V142.016C67.1284 146.272 66.2324 147.264 63.0324 147.264H61.1124V152H63.0324C71.6084 152 72.4724 149.44 72.4724 142.016ZM76.3769 152H81.7209V145.248H84.0889C92.4089 145.248 95.1929 143.488 95.1929 137.088C95.1929 130.656 92.4089 128.896 84.1209 128.896H76.3769V152ZM81.7209 133.184H84.7929C87.9289 133.184 89.6889 133.6 89.6889 137.024C89.6889 140.448 87.9289 140.896 84.7929 140.896H81.7209V133.184ZM116.525 148.992V140.096H107.949V143.584H111.661V146.432C111.533 147.712 109.133 148.256 107.533 148.256C104.365 148.256 102.797 146.496 102.797 140.512C102.797 134.688 104.269 132.896 107.341 132.896C109.869 132.896 111.373 134.208 111.469 137.088H116.525C116.525 131.232 113.677 128.32 107.341 128.32C100.493 128.32 97.3254 131.712 97.3254 140.512C97.3254 149.312 100.493 152.672 107.341 152.64C113.997 152.608 116.525 149.216 116.525 148.992Z" fill="white"/>
<mask id="path-5-inside-1" fill="white">
<rect x="37" y="53" width="48" height="40" rx="3"/>
</mask>
<rect x="37" y="53" width="48" height="40" rx="3" stroke="#CBC9D1" stroke-width="8" mask="url(#path-5-inside-1)"/>
<path d="M49.2667 71C46.9697 71 41.9746 73.9327 39.9155 75.2051C39.3406 75.5603 39 76.1901 39 76.866V89C39 90.1046 39.8954 91 41 91H81C82.1046 91 83 90.1046 83 89V80.8816C83 80.3973 82.8269 79.9319 82.4963 79.578C80.8371 77.802 75.4395 72.3751 71.7556 72.7391C67.3556 73.1739 62.9556 78.3913 59.5333 78.3913C56.1111 78.3913 52.2 71 49.2667 71Z" stroke="#CBC9D1" stroke-width="3"/>
<circle cx="74" cy="65" r="4" stroke="#CBC9D1" stroke-width="2"/>
</svg>
