<svg width="190" height="152" viewBox="0 0 190 152" fill="none" xmlns="http://www.w3.org/2000/svg">
<path d="M1.76605 150.663V25.4935H59.7834L72.9277 37.2066H159.233V150.663H1.76605Z" fill="#4299E1"/>
<path d="M159.233 151.678H1.76604C1.49684 151.678 1.23867 151.571 1.04832 151.381C0.857974 151.191 0.751038 150.933 0.751038 150.663V25.4935C0.751038 25.2243 0.857974 24.9662 1.04832 24.7758C1.23867 24.5855 1.49684 24.4785 1.76604 24.4785H59.7834C60.0302 24.4789 60.2683 24.5691 60.4533 24.7323L73.3134 36.1916H159.233C159.502 36.1916 159.76 36.2986 159.951 36.4889C160.141 36.6793 160.248 36.9374 160.248 37.2066V150.663C160.248 150.933 160.141 151.191 159.951 151.381C159.76 151.571 159.502 151.678 159.233 151.678ZM2.78104 149.648H158.218V38.2216H72.9581C72.7079 38.2237 72.4657 38.1334 72.2781 37.9679L59.4282 26.5085H2.78104V149.648Z" fill="#093F68"/>
<path d="M141.517 1.33689L8.50378 13.887L21.1177 147.578L154.131 135.028L141.517 1.33689Z" fill="#FFBC0E"/>
<path d="M21.1119 148.593C20.8594 148.594 20.6155 148.501 20.4279 148.332C20.2402 148.163 20.1222 147.93 20.0969 147.679L7.49064 13.9835C7.46519 13.7156 7.54712 13.4487 7.71841 13.2412C7.8897 13.0338 8.13634 12.9028 8.40414 12.8771L141.42 0.3317C141.688 0.306258 141.955 0.388188 142.162 0.559478C142.37 0.730767 142.501 0.977404 142.526 1.2452L155.133 134.941C155.159 135.208 155.079 135.474 154.909 135.682C154.824 135.785 154.719 135.871 154.601 135.934C154.482 135.996 154.352 136.035 154.219 136.047L21.254 148.593H21.1119ZM9.60184 14.8056L21.995 146.471L152.991 134.119L140.598 2.4429L9.60184 14.8056Z" fill="#093F68"/>
<path d="M155.092 17.7998H21.4875V138.636H155.092V17.7998Z" fill="white"/>
<path d="M155.092 139.661H21.4875C21.2183 139.661 20.9601 139.554 20.7698 139.364C20.5794 139.173 20.4725 138.915 20.4725 138.646V17.7999C20.4725 17.5307 20.5794 17.2725 20.7698 17.0822C20.9601 16.8918 21.2183 16.7849 21.4875 16.7849H155.092C155.361 16.7849 155.619 16.8918 155.81 17.0822C156 17.2725 156.107 17.5307 156.107 17.7999V138.646C156.107 138.915 156 139.173 155.81 139.364C155.619 139.554 155.361 139.661 155.092 139.661ZM22.5025 137.631H154.077V18.8149H22.5025V137.631Z" fill="#093F68"/>
<path d="M138.72 35.0244H111.985C111.716 35.0244 111.457 34.9174 111.267 34.7271C111.077 34.5367 110.97 34.2786 110.97 34.0094C110.97 33.7402 111.077 33.482 111.267 33.2917C111.457 33.1013 111.716 32.9944 111.985 32.9944H138.72C138.989 32.9944 139.247 33.1013 139.438 33.2917C139.628 33.482 139.735 33.7402 139.735 34.0094C139.735 34.2786 139.628 34.5367 139.438 34.7271C139.247 34.9174 138.989 35.0244 138.72 35.0244Z" fill="#70CC40"/>
<path d="M138.72 47.8337H39.3413C39.0721 47.8337 38.8139 47.7268 38.6236 47.5364C38.4332 47.3461 38.3263 47.0879 38.3263 46.8187C38.3263 46.5495 38.4332 46.2913 38.6236 46.101C38.8139 45.9106 39.0721 45.8037 39.3413 45.8037H138.72C138.989 45.8037 139.247 45.9106 139.438 46.101C139.628 46.2913 139.735 46.5495 139.735 46.8187C139.735 47.0879 139.628 47.3461 139.438 47.5364C139.247 47.7268 138.989 47.8337 138.72 47.8337Z" fill="#70CC40"/>
<path d="M138.72 60.643H39.3413C39.0721 60.643 38.8139 60.5361 38.6236 60.3458C38.4332 60.1554 38.3263 59.8972 38.3263 59.628C38.3263 59.3588 38.4332 59.1007 38.6236 58.9103C38.8139 58.72 39.0721 58.613 39.3413 58.613H138.72C138.989 58.613 139.247 58.72 139.438 58.9103C139.628 59.1007 139.735 59.3588 139.735 59.628C139.735 59.8972 139.628 60.1554 139.438 60.3458C139.247 60.5361 138.989 60.643 138.72 60.643Z" fill="#70CC40"/>
<path d="M138.72 73.4625H39.3413C39.0721 73.4625 38.8139 73.3556 38.6236 73.1652C38.4332 72.9749 38.3263 72.7167 38.3263 72.4475C38.3263 72.1783 38.4332 71.9201 38.6236 71.7298C38.8139 71.5394 39.0721 71.4325 39.3413 71.4325H138.72C138.989 71.4325 139.247 71.5394 139.438 71.7298C139.628 71.9201 139.735 72.1783 139.735 72.4475C139.735 72.7167 139.628 72.9749 139.438 73.1652C139.247 73.3556 138.989 73.4625 138.72 73.4625Z" fill="#70CC40"/>
<path d="M1.76605 150.663L25.7708 68.9254H99.5004L110.361 58.9276H188.384L160.38 150.663H1.76605Z" fill="#4299E1"/>
<path d="M160.38 151.678H1.76604C1.60846 151.678 1.45306 151.642 1.31212 151.571C1.17118 151.501 1.04858 151.398 0.954035 151.272C0.859491 151.146 0.795597 151 0.767409 150.845C0.739221 150.69 0.747519 150.53 0.791639 150.379L24.7964 68.6412C24.8597 68.4235 24.994 68.2333 25.178 68.1009C25.3619 67.9684 25.5849 67.9013 25.8114 67.9104H99.135L109.711 58.1765C109.897 58.0073 110.14 57.9133 110.391 57.9126H188.414C188.572 57.9126 188.727 57.9493 188.868 58.0198C189.009 58.0902 189.132 58.1925 189.226 58.3186C189.323 58.4458 189.387 58.5939 189.416 58.7509C189.444 58.9078 189.435 59.0692 189.389 59.222L161.375 150.958C161.311 151.17 161.178 151.355 160.999 151.486C160.819 151.616 160.602 151.683 160.38 151.678V151.678ZM3.12614 149.648H159.629L187.034 59.9426H110.757L100.15 69.6765C99.9612 69.848 99.7148 69.9422 99.4598 69.9404H26.532L3.12614 149.648Z" fill="#093F68"/>
<path d="M153.508 139.275H120.927C120.658 139.275 120.4 139.168 120.209 138.978C120.019 138.787 119.912 138.529 119.912 138.26C119.912 137.991 120.019 137.733 120.209 137.542C120.4 137.352 120.658 137.245 120.927 137.245H153.508C153.778 137.245 154.036 137.352 154.226 137.542C154.417 137.733 154.523 137.991 154.523 138.26C154.523 138.529 154.417 138.787 154.226 138.978C154.036 139.168 153.778 139.275 153.508 139.275Z" fill="#F56132"/>
<path d="M51.1153 35.0244H39.3413C39.0721 35.0244 38.8139 34.9174 38.6236 34.7271C38.4332 34.5367 38.3263 34.2786 38.3263 34.0094C38.3263 33.7402 38.4332 33.482 38.6236 33.2917C38.8139 33.1013 39.0721 32.9944 39.3413 32.9944H51.1153C51.3845 32.9944 51.6427 33.1013 51.833 33.2917C52.0234 33.482 52.1303 33.7402 52.1303 34.0094C52.1303 34.2786 52.0234 34.5367 51.833 34.7271C51.6427 34.9174 51.3845 35.0244 51.1153 35.0244Z" fill="#70CC40"/>
</svg>
