<svg width="134" height="166" viewBox="0 0 134 166" fill="none" xmlns="http://www.w3.org/2000/svg">
<rect x="2.5" y="2.5" width="118" height="145" rx="9.5" fill="white" stroke="#CBC9D1" stroke-width="5"/>
<rect x="44" y="113" width="90" height="53" rx="7" fill="#A1E681"/>
<path d="M70.653 143.968L74.973 152H80.829L74.045 140.416L81.277 128.96H75.389L70.813 137.344L66.205 128.96H60.349L67.325 140.672L60.349 152H66.205L70.653 143.968ZM83.58 152H97.788V147.232H88.924V128.96H83.58V152ZM117.75 145.504C117.75 136.64 104.47 139.744 104.47 135.264C104.47 133.76 105.43 132.64 108.214 132.64C111.446 132.672 112.15 134.4 112.15 136.288H117.302C117.302 131.104 114.902 128.32 108.182 128.288C101.942 128.256 99.19 131.04 99.126 135.424C99.062 144.224 112.342 141.216 112.342 145.696C112.342 147.584 110.806 148.352 108.534 148.352C105.686 148.32 104.118 147.008 104.118 144.32H98.934C98.934 149.888 102.07 152.608 108.278 152.64C114.614 152.672 117.75 150.208 117.75 145.504Z" fill="white"/>
<mask id="path-4-inside-1" fill="white">
<rect x="37" y="57" width="48" height="36" rx="3"/>
</mask>
<rect x="37" y="57" width="48" height="36" rx="3" stroke="#CBC9D1" stroke-width="8" mask="url(#path-4-inside-1)"/>
<line x1="49" y1="57" x2="49" y2="93" stroke="#CBC9D1" stroke-width="4"/>
<line x1="37" y1="69" x2="85" y2="69" stroke="#CBC9D1" stroke-width="4"/>
</svg>
