<svg width="148" height="191" viewBox="0 0 148 191" fill="none" xmlns="http://www.w3.org/2000/svg">
<path d="M138.635 24.7493H9.37494C4.81751 24.7493 1.12299 28.4438 1.12299 33.0012V181.709C1.12299 186.266 4.81751 189.961 9.37494 189.961H138.635C143.193 189.961 146.887 186.266 146.887 181.709V33.0012C146.887 28.4438 143.193 24.7493 138.635 24.7493Z" fill="#68E1FD"/>
<path d="M138.625 190.976H9.37499C6.91806 190.973 4.56254 189.996 2.82524 188.259C1.08793 186.521 0.110719 184.166 0.108032 181.709V33.0012C0.124102 30.5531 1.10721 28.2106 2.84308 26.4842C4.57894 24.7579 6.92682 23.7877 9.37499 23.785H138.625C141.082 23.7877 143.438 24.7649 145.175 26.5022C146.912 28.2395 147.889 30.5951 147.892 33.052V181.709C147.889 184.166 146.912 186.521 145.175 188.259C143.438 189.996 141.082 190.973 138.625 190.976V190.976ZM9.37499 25.815C7.45563 25.815 5.61488 26.5775 4.25769 27.9347C2.9005 29.2919 2.13803 31.1326 2.13803 33.052V181.709C2.13803 182.659 2.32522 183.6 2.68891 184.478C3.0526 185.356 3.58568 186.154 4.25769 186.826C4.9297 187.498 5.7275 188.031 6.60553 188.395C7.48356 188.759 8.42462 188.946 9.37499 188.946H138.625C139.575 188.946 140.517 188.759 141.395 188.395C142.273 188.031 143.07 187.498 143.742 186.826C144.414 186.154 144.947 185.356 145.311 184.478C145.675 183.6 145.862 182.659 145.862 181.709V33.0012C145.849 31.0907 145.08 29.2629 143.725 27.9167C142.369 26.5705 140.536 25.815 138.625 25.815H9.37499Z" fill="#093F68"/>
<path d="M130.464 33.1737H17.5457C15.2081 33.1737 13.3132 35.0687 13.3132 37.4063V175.994C13.3132 178.332 15.2081 180.227 17.5457 180.227H130.464C132.802 180.227 134.697 178.332 134.697 175.994V37.4063C134.697 35.0687 132.802 33.1737 130.464 33.1737Z" fill="white"/>
<path d="M130.454 181.242H17.5457C16.1548 181.239 14.8216 180.685 13.8381 179.702C12.8546 178.718 12.3008 177.385 12.2982 175.994V37.4062C12.3008 36.0153 12.8546 34.6821 13.8381 33.6986C14.8216 32.7151 16.1548 32.1614 17.5457 32.1587H130.454C131.845 32.1614 133.178 32.7151 134.162 33.6986C135.145 34.6821 135.699 36.0153 135.702 37.4062V176.035C135.689 177.419 135.13 178.742 134.148 179.716C133.165 180.691 131.838 181.239 130.454 181.242V181.242ZM17.5457 34.1887C16.6924 34.1887 15.874 34.5277 15.2706 35.1311C14.6671 35.7345 14.3282 36.5529 14.3282 37.4062V176.035C14.3282 176.888 14.6671 177.707 15.2706 178.31C15.874 178.914 16.6924 179.252 17.5457 179.252H130.454C131.308 179.252 132.126 178.914 132.729 178.31C133.333 177.707 133.672 176.888 133.672 176.035V37.4062C133.672 36.5529 133.333 35.7345 132.729 35.1311C132.126 34.5277 131.308 34.1887 130.454 34.1887H17.5457Z" fill="#093F68"/>
<path d="M103.252 18.8725H85.3274L84.6676 11.1483C84.4489 8.58063 83.2739 6.18871 81.3753 4.44619C79.4768 2.70366 76.9931 1.73759 74.4161 1.73926H73.5838C71.0069 1.73759 68.5232 2.70366 66.6247 4.44619C64.7261 6.18871 63.5511 8.58063 63.3324 11.1483L62.6726 18.8725H44.7477C43.8184 18.8732 42.9024 19.0931 42.0741 19.5144C41.2457 19.9357 40.5285 20.5464 39.9806 21.297C39.4328 22.0477 39.0697 22.9169 38.9209 23.8342C38.7722 24.7516 38.842 25.691 39.1246 26.5763L42.4132 36.9801C42.8046 38.164 43.5601 39.1941 44.5717 39.9232C45.5833 40.6523 46.7994 41.0432 48.0464 41.0401H99.9536C101.201 41.0432 102.417 40.6523 103.428 39.9232C104.44 39.1941 105.195 38.164 105.587 36.9801L108.875 26.6271C109.168 25.7388 109.245 24.7937 109.101 23.8697C108.957 22.9457 108.596 22.069 108.047 21.3119C107.498 20.5548 106.777 19.9389 105.943 19.5148C105.11 19.0907 104.187 18.8706 103.252 18.8725V18.8725ZM74 18.0503C73.1018 18.0523 72.2232 17.7877 71.4755 17.2899C70.7279 16.7921 70.1448 16.0837 69.8001 15.2542C69.4555 14.4248 69.3647 13.5117 69.5395 12.6306C69.7142 11.7496 70.1465 10.9402 70.7817 10.3051C71.4168 9.66996 72.2262 9.23765 73.1072 9.06291C73.9883 8.88817 74.9013 8.97887 75.7308 9.32353C76.5602 9.66818 77.2687 10.2513 77.7665 10.9989C78.2643 11.7466 78.5289 12.6252 78.5269 13.5234C78.5269 14.724 78.05 15.8755 77.201 16.7244C76.352 17.5734 75.2006 18.0503 74 18.0503V18.0503Z" fill="#FFBC0E"/>
<path d="M99.9535 42.055H48.0464C46.5767 42.0585 45.1442 41.5928 43.9575 40.7256C42.7709 39.8584 41.892 38.6351 41.4489 37.2337L38.1603 26.8706C37.8277 25.8335 37.7448 24.7326 37.9184 23.6574C38.092 22.5823 38.5173 21.5634 39.1594 20.6838C39.8016 19.8041 40.6425 19.0887 41.6136 18.5958C42.5847 18.1028 43.6586 17.8463 44.7477 17.8472H61.7388L62.3173 11.0467C62.5451 8.22247 63.8315 5.58854 65.9188 3.67248C68.0061 1.75643 70.7403 0.699722 73.5737 0.71401H74.4263C77.2597 0.699722 79.9938 1.75643 82.0812 3.67248C84.1685 5.58854 85.4549 8.22247 85.6826 11.0467L86.2612 17.8472H103.252C104.342 17.848 105.416 18.106 106.387 18.6001C107.358 19.0943 108.198 19.8106 108.84 20.6909C109.482 21.5712 109.907 22.5906 110.081 23.6662C110.255 24.7417 110.172 25.8431 109.84 26.8807L106.551 37.2337C106.108 38.6351 105.229 39.8584 104.042 40.7256C102.856 41.5928 101.423 42.0585 99.9535 42.055ZM44.7477 19.8874C43.9774 19.8874 43.218 20.0694 42.5314 20.4184C41.8447 20.7674 41.2502 21.2736 40.7961 21.8958C40.3421 22.518 40.0413 23.2387 39.9184 23.9991C39.7955 24.7595 39.8539 25.5381 40.0888 26.2717L43.3774 36.6247C43.6909 37.6164 44.3129 38.482 45.1528 39.0954C45.9926 39.7089 47.0064 40.0381 48.0464 40.0351H99.9535C100.994 40.0381 102.007 39.7089 102.847 39.0954C103.687 38.482 104.309 37.6164 104.623 36.6247L107.911 26.2717C108.146 25.5381 108.204 24.7595 108.082 23.9991C107.959 23.2387 107.658 22.518 107.204 21.8958C106.75 21.2736 106.155 20.7674 105.469 20.4184C104.782 20.0694 104.023 19.8874 103.252 19.8874H85.3274C85.0717 19.8882 84.8251 19.7925 84.6369 19.6193C84.4487 19.4462 84.3328 19.2084 84.3124 18.9536L83.6628 11.2294C83.4759 8.91223 82.4203 6.75127 80.7074 5.17956C78.9945 3.60785 76.7509 2.74152 74.4263 2.75416H73.5737C71.249 2.74152 69.0054 3.60785 67.2926 5.17956C65.5797 6.75127 64.524 8.91223 64.3372 11.2294L63.6876 18.9536C63.6671 19.2084 63.5512 19.4462 63.363 19.6193C63.1749 19.7925 62.9283 19.8882 62.6726 19.8874H44.7477ZM74 19.0652C72.901 19.0672 71.8262 18.743 70.9116 18.1338C69.997 17.5245 69.2838 16.6574 68.8624 15.6425C68.4409 14.6276 68.3301 13.5104 68.544 12.4325C68.7579 11.3546 69.2869 10.3644 70.0639 9.58728C70.841 8.8102 71.8312 8.28121 72.9092 8.0673C73.9871 7.8534 75.1043 7.96421 76.1192 8.38568C77.1341 8.80716 78.0011 9.52036 78.6104 10.4349C79.2197 11.3495 79.5439 12.4244 79.5419 13.5233C79.5392 14.9923 78.9545 16.4003 77.9157 17.4391C76.877 18.4778 75.469 19.0625 74 19.0652V19.0652ZM74 10.0013C73.303 9.99925 72.621 10.2041 72.0405 10.5899C71.4599 10.9757 71.0069 11.525 70.7388 12.1684C70.4707 12.8118 70.3995 13.5203 70.5342 14.2042C70.669 14.8881 71.0036 15.5166 71.4958 16.0102C71.9879 16.5037 72.6155 16.8402 73.299 16.9769C73.9825 17.1136 74.6912 17.0445 75.3353 16.7782C75.9795 16.5119 76.5301 16.0605 76.9176 15.4811C77.3051 14.9017 77.5119 14.2203 77.5119 13.5233C77.5132 13.0613 77.4234 12.6035 77.2475 12.1762C77.0716 11.749 76.8131 11.3606 76.4869 11.0335C76.1606 10.7063 75.773 10.4467 75.3463 10.2696C74.9195 10.0924 74.462 10.0013 74 10.0013V10.0013Z" fill="#093F68"/>
<path d="M48.493 57.6251H29.1877V76.9304H48.493V57.6251Z" fill="white"/>
<path d="M48.4931 77.9454H29.2081C28.9389 77.9454 28.6807 77.8384 28.4903 77.6481C28.3 77.4577 28.1931 77.1996 28.1931 76.9304V57.6454C28.1931 57.3762 28.3 57.118 28.4903 56.9277C28.6807 56.7373 28.9389 56.6304 29.2081 56.6304H48.4931C48.7622 56.6304 49.0204 56.7373 49.2108 56.9277C49.4011 57.118 49.5081 57.3762 49.5081 57.6454V76.9304C49.5081 77.1996 49.4011 77.4577 49.2108 77.6481C49.0204 77.8384 48.7622 77.9454 48.4931 77.9454ZM30.2231 75.9154H47.4781V58.6604H30.2231V75.9154Z" fill="#093F68"/>
<path d="M116.782 63.847H69.4731C69.0693 63.847 68.682 63.6866 68.3965 63.4011C68.111 63.1155 67.9506 62.7283 67.9506 62.3245C67.9506 61.9207 68.111 61.5335 68.3965 61.2479C68.682 60.9624 69.0693 60.802 69.4731 60.802H116.782C117.186 60.802 117.573 60.9624 117.859 61.2479C118.144 61.5335 118.305 61.9207 118.305 62.3245C118.305 62.7283 118.144 63.1155 117.859 63.4011C117.573 63.6866 117.186 63.847 116.782 63.847V63.847Z" fill="#DFEAEF"/>
<path d="M103.729 73.7535H69.4731C69.0693 73.7535 68.682 73.5931 68.3965 73.3076C68.111 73.022 67.9506 72.6348 67.9506 72.231C67.9506 71.8272 68.111 71.4399 68.3965 71.1544C68.682 70.8689 69.0693 70.7085 69.4731 70.7085H103.729C104.133 70.7085 104.52 70.8689 104.806 71.1544C105.091 71.4399 105.252 71.8272 105.252 72.231C105.252 72.6348 105.091 73.022 104.806 73.3076C104.52 73.5931 104.133 73.7535 103.729 73.7535V73.7535Z" fill="#DFEAEF"/>
<path d="M48.493 97.0477H29.1877V116.353H48.493V97.0477Z" fill="white"/>
<path d="M48.4931 117.368H29.2081C28.9389 117.368 28.6807 117.261 28.4903 117.071C28.3 116.88 28.1931 116.622 28.1931 116.353V97.068C28.1931 96.7988 28.3 96.5406 28.4903 96.3503C28.6807 96.1599 28.9389 96.053 29.2081 96.053H48.4931C48.7622 96.053 49.0204 96.1599 49.2108 96.3503C49.4011 96.5406 49.5081 96.7988 49.5081 97.068V116.353C49.5081 116.622 49.4011 116.88 49.2108 117.071C49.0204 117.261 48.7622 117.368 48.4931 117.368ZM30.2231 115.338H47.4781V98.083H30.2231V115.338Z" fill="#093F68"/>
<path d="M116.782 103.27H69.4731C69.0693 103.27 68.682 103.109 68.3965 102.824C68.111 102.538 67.9506 102.151 67.9506 101.747C67.9506 101.343 68.111 100.956 68.3965 100.671C68.682 100.385 69.0693 100.225 69.4731 100.225H116.782C117.186 100.225 117.573 100.385 117.859 100.671C118.144 100.956 118.305 101.343 118.305 101.747C118.305 102.151 118.144 102.538 117.859 102.824C117.573 103.109 117.186 103.27 116.782 103.27V103.27Z" fill="#DFEAEF"/>
<path d="M91.1535 113.176H69.4731C69.0693 113.176 68.682 113.016 68.3965 112.73C68.111 112.445 67.9506 112.057 67.9506 111.654C67.9506 111.25 68.111 110.863 68.3965 110.577C68.682 110.292 69.0693 110.131 69.4731 110.131H91.1535C91.5573 110.131 91.9445 110.292 92.23 110.577C92.5156 110.863 92.676 111.25 92.676 111.654C92.676 112.057 92.5156 112.445 92.23 112.73C91.9445 113.016 91.5573 113.176 91.1535 113.176V113.176Z" fill="#DFEAEF"/>
<path d="M48.493 136.47H29.1877V155.776H48.493V136.47Z" fill="white"/>
<path d="M48.4931 156.75H29.2081C28.9389 156.75 28.6807 156.643 28.4903 156.453C28.3 156.262 28.1931 156.004 28.1931 155.735V136.45C28.1931 136.181 28.3 135.923 28.4903 135.732C28.6807 135.542 28.9389 135.435 29.2081 135.435H48.4931C48.7622 135.435 49.0204 135.542 49.2108 135.732C49.4011 135.923 49.5081 136.181 49.5081 136.45V155.735C49.5081 156.004 49.4011 156.262 49.2108 156.453C49.0204 156.643 48.7622 156.75 48.4931 156.75ZM30.2231 154.72H47.4781V137.465H30.2231V154.72Z" fill="#093F68"/>
<path d="M116.782 142.692H69.4731C69.0693 142.692 68.682 142.532 68.3965 142.246C68.111 141.961 67.9506 141.574 67.9506 141.17C67.9506 140.766 68.111 140.379 68.3965 140.093C68.682 139.808 69.0693 139.647 69.4731 139.647H116.782C117.186 139.647 117.573 139.808 117.859 140.093C118.144 140.379 118.305 140.766 118.305 141.17C118.305 141.574 118.144 141.961 117.859 142.246C117.573 142.532 117.186 142.692 116.782 142.692V142.692Z" fill="#DFEAEF"/>
<path d="M109.16 152.599H69.4731C69.0693 152.599 68.682 152.438 68.3965 152.153C68.111 151.867 67.9506 151.48 67.9506 151.076C67.9506 150.672 68.111 150.285 68.3965 150C68.682 149.714 69.0693 149.554 69.4731 149.554H109.16C109.563 149.554 109.951 149.714 110.236 150C110.522 150.285 110.682 150.672 110.682 151.076C110.682 151.48 110.522 151.867 110.236 152.153C109.951 152.438 109.563 152.599 109.16 152.599V152.599Z" fill="#DFEAEF"/>
<path d="M36.8612 73.7534C36.7296 73.7682 36.5969 73.7682 36.4653 73.7534C36.2342 73.6894 36.0217 73.5713 35.8452 73.4089C35.6687 73.2466 35.5334 73.0446 35.4503 72.8196L31.7354 62.9132C31.6648 62.7259 31.6317 62.5266 31.6381 62.3265C31.6445 62.1265 31.6902 61.9296 31.7727 61.7473C31.9393 61.3789 32.2453 61.0918 32.6235 60.9492C33.0018 60.8065 33.4212 60.8199 33.7895 60.9865C34.1578 61.153 34.4449 61.4591 34.5876 61.8373L37.5514 69.734L53.3346 56.539C53.4862 56.3987 53.6647 56.2907 53.8592 56.2216C54.0538 56.1525 54.2605 56.1237 54.4665 56.1369C54.6726 56.1502 54.8738 56.2052 55.058 56.2987C55.2421 56.3921 55.4053 56.5221 55.5376 56.6806C55.67 56.8391 55.7687 57.0229 55.8278 57.2208C55.8868 57.4187 55.905 57.6265 55.8812 57.8316C55.8575 58.0368 55.7922 58.2349 55.6894 58.414C55.5867 58.5931 55.4485 58.7495 55.2834 58.8735L37.8559 73.4794C37.5667 73.6845 37.2146 73.7815 36.8612 73.7534Z" fill="#70CC40"/>
<path d="M36.8612 112.993C36.73 113.013 36.5965 113.013 36.4653 112.993C36.2335 112.931 36.0202 112.813 35.8435 112.651C35.6668 112.488 35.5319 112.285 35.4503 112.06L31.7354 102.153C31.6483 101.788 31.6992 101.403 31.8783 101.073C32.0574 100.743 32.3522 100.491 32.7059 100.365C33.0596 100.239 33.4474 100.249 33.7947 100.391C34.1421 100.534 34.4244 100.8 34.5876 101.138L37.5514 109.025L53.3346 95.8296C53.4862 95.6894 53.6647 95.5814 53.8593 95.5123C54.0538 95.4431 54.2605 95.4143 54.4665 95.4276C54.6726 95.4408 54.8738 95.4959 55.058 95.5893C55.2421 95.6828 55.4053 95.8127 55.5377 95.9713C55.67 96.1298 55.7687 96.3136 55.8278 96.5114C55.8868 96.7093 55.905 96.9172 55.8812 97.1223C55.8575 97.3274 55.7922 97.5256 55.6894 97.7047C55.5867 97.8838 55.4485 98.0401 55.2834 98.1642L37.8559 112.77C37.5601 112.957 37.2086 113.036 36.8612 112.993V112.993Z" fill="#70CC40"/>
<path d="M33.1463 155.41C32.848 155.415 32.555 155.331 32.3041 155.17C32.0532 155.008 31.8557 154.776 31.7363 154.503C31.617 154.23 31.5812 153.927 31.6334 153.633C31.6856 153.34 31.8235 153.068 32.0298 152.852L46.5037 137.313C46.7796 137.017 47.1619 136.842 47.5663 136.828C47.9708 136.814 48.3644 136.961 48.6605 137.237C48.9567 137.513 49.131 137.895 49.1453 138.299C49.1596 138.704 49.0126 139.097 48.7367 139.393L34.2526 154.923C34.1124 155.077 33.9415 155.2 33.751 155.284C33.5605 155.368 33.3545 155.411 33.1463 155.41V155.41Z" fill="#F56132"/>
<path d="M47.61 155.41C47.4004 155.41 47.1931 155.367 47.0009 155.283C46.8088 155.199 46.6361 155.077 46.4935 154.923L32.0196 139.393C31.8801 139.248 31.7708 139.076 31.6981 138.888C31.6254 138.701 31.5907 138.5 31.5961 138.299C31.6015 138.097 31.6469 137.899 31.7295 137.715C31.8122 137.531 31.9305 137.365 32.0776 137.228C32.2248 137.09 32.3978 136.983 32.5866 136.913C32.7755 136.842 32.9764 136.81 33.1778 136.818C33.3792 136.826 33.577 136.874 33.7598 136.959C33.9425 137.044 34.1066 137.164 34.2425 137.313L48.7265 152.852C48.8625 152.999 48.9683 153.171 49.0378 153.358C49.1073 153.546 49.1392 153.745 49.1316 153.945C49.1241 154.145 49.0773 154.341 48.9938 154.523C48.9104 154.705 48.792 154.868 48.6453 155.004C48.3649 155.267 47.9944 155.412 47.61 155.41V155.41Z" fill="#F56132"/>
</svg>
