<svg width="219" height="150" viewBox="0 0 219 150" fill="none" xmlns="http://www.w3.org/2000/svg">
<path d="M200.177 8.42126H18.4718C14.4077 8.42126 11.113 11.7159 11.113 15.78V122.873C11.113 126.937 14.4077 130.231 18.4718 130.231H200.177C204.241 130.231 207.536 126.937 207.536 122.873V15.78C207.536 11.7159 204.241 8.42126 200.177 8.42126Z" fill="#093F68"/>
<path d="M200.187 131.236H18.5022C16.2821 131.234 14.1538 130.35 12.584 128.781C11.0142 127.211 10.1311 125.083 10.1284 122.862V15.78C10.1311 13.56 11.0142 11.4316 12.584 9.86184C14.1538 8.29203 16.2821 7.40894 18.5022 7.40625H200.187C202.407 7.40894 204.536 8.29203 206.105 9.86184C207.675 11.4316 208.558 13.56 208.561 15.78V122.862C208.558 125.083 207.675 127.211 206.105 128.781C204.536 130.35 202.407 131.234 200.187 131.236V131.236ZM18.5022 9.43625C16.8205 9.43893 15.2085 10.1082 14.0194 11.2973C12.8303 12.4864 12.1611 14.0984 12.1584 15.78V122.862C12.1611 124.544 12.8303 126.156 14.0194 127.345C15.2085 128.534 16.8205 129.204 18.5022 129.206H200.187C201.869 129.204 203.481 128.534 204.67 127.345C205.859 126.156 206.528 124.544 206.531 122.862V15.78C206.528 14.0984 205.859 12.4864 204.67 11.2973C203.481 10.1082 201.869 9.43893 200.187 9.43625H18.5022Z" fill="#093F68"/>
<path d="M1.44006 126.486H217.229V140.96C217.229 142.844 216.48 144.652 215.148 145.984C213.816 147.316 212.008 148.065 210.124 148.065H8.54506C6.6607 148.065 4.85352 147.316 3.52107 145.984C2.18863 144.652 1.44006 142.844 1.44006 140.96V126.486Z" fill="#4299E1"/>
<path d="M210.144 149.08H8.54505C6.39149 149.08 4.32614 148.224 2.80334 146.702C1.28055 145.179 0.425049 143.114 0.425049 140.96V126.486C0.425049 126.217 0.531985 125.959 0.722335 125.768C0.912684 125.578 1.17085 125.471 1.44005 125.471H217.229C217.498 125.471 217.756 125.578 217.947 125.768C218.137 125.959 218.244 126.217 218.244 126.486V140.96C218.244 143.11 217.391 145.172 215.873 146.695C214.355 148.217 212.294 149.075 210.144 149.08ZM2.45505 127.501V140.96C2.45505 142.575 3.09668 144.124 4.23877 145.266C5.38087 146.408 6.92988 147.05 8.54505 147.05H210.144C211.76 147.05 213.309 146.408 214.451 145.266C215.593 144.124 216.234 142.575 216.234 140.96V127.501H2.45505Z" fill="#093F68"/>
<path d="M198.035 16.3688H20.6235V122.213H198.035V16.3688Z" fill="white"/>
<path d="M198.035 123.228H20.6235C20.3543 123.228 20.0962 123.121 19.9058 122.931C19.7155 122.74 19.6085 122.482 19.6085 122.213V16.3688C19.6085 16.0996 19.7155 15.8414 19.9058 15.651C20.0962 15.4607 20.3543 15.3538 20.6235 15.3538H198.035C198.305 15.3538 198.563 15.4607 198.753 15.651C198.943 15.8414 199.05 16.0996 199.05 16.3688V122.213C199.05 122.482 198.943 122.74 198.753 122.931C198.563 123.121 198.305 123.228 198.035 123.228ZM21.6385 121.198H197.02V17.3838H21.6385V121.198Z" fill="#093F68"/>
<path d="M198.035 85.7948V122.213H185.358C184.8 121.198 184.252 120.264 183.694 119.401C180.921 115.191 179.118 110.417 178.415 105.425C178.302 105.02 178.286 104.594 178.367 104.182C178.448 103.769 178.624 103.382 178.882 103.05C179.897 102.106 181.532 103.121 182.445 104.176C184.674 106.744 186.349 109.743 187.368 112.987C186.404 109.698 185.815 106.349 184.932 103.05C184.333 100.817 183.43 98.0763 184.617 95.8331C186.992 91.3164 190.707 103.172 190.829 104.968C190.64 101.389 190.824 97.8007 191.377 94.2599C191.803 91.4585 192.575 88.5048 194.706 86.6271C195.363 85.9962 196.232 85.6341 197.142 85.6121C197.449 85.6162 197.752 85.6782 198.035 85.7948V85.7948Z" fill="#70CC40"/>
<path d="M198.035 123.228H185.358C185.178 123.228 185.002 123.18 184.847 123.089C184.691 122.998 184.563 122.867 184.475 122.71C183.957 121.787 183.399 120.812 182.841 119.95C179.974 115.62 178.118 110.701 177.411 105.557C177.272 104.992 177.27 104.403 177.406 103.838C177.542 103.273 177.812 102.748 178.192 102.309C178.434 102.081 178.72 101.907 179.033 101.797C179.346 101.687 179.678 101.643 180.009 101.669C181.271 101.864 182.415 102.523 183.216 103.517C183.612 103.973 183.998 104.45 184.363 104.938C184.231 104.39 184.089 103.852 183.947 103.314L183.805 102.786C183.196 100.553 182.435 97.7819 183.714 95.3561C184.566 93.7422 185.673 93.7219 186.251 93.8437C187.652 94.1584 188.911 96.1782 189.885 98.4315C189.986 96.9801 190.149 95.5286 190.372 94.1076C190.788 91.4179 191.57 88.0176 194.036 85.876C194.877 85.0569 195.999 84.5919 197.173 84.5768C197.606 84.5913 198.033 84.6877 198.431 84.861C198.615 84.9387 198.771 85.0687 198.881 85.2347C198.991 85.4008 199.05 85.5955 199.05 85.7948V122.213C199.05 122.482 198.943 122.74 198.753 122.931C198.563 123.121 198.305 123.228 198.035 123.228ZM185.947 121.198H197.02V86.6068C196.401 86.6842 195.823 86.9622 195.376 87.3985C193.407 89.1341 192.737 92.0675 192.382 94.4223C191.84 97.896 191.659 101.417 191.844 104.928C191.857 105.197 191.763 105.46 191.583 105.66C191.402 105.86 191.149 105.98 190.88 105.993C190.611 106.007 190.347 105.913 190.147 105.732C189.947 105.551 189.827 105.298 189.814 105.029V105.029C189.723 103.263 187.124 96.1376 185.825 95.8331C185.704 95.9772 185.598 96.1337 185.51 96.3C184.607 98.0255 185.226 100.269 185.764 102.248L185.906 102.786C186.302 104.247 186.637 105.74 186.921 107.171C187.337 108.998 187.764 110.886 188.302 112.702C188.361 112.954 188.323 113.218 188.194 113.442C188.065 113.666 187.856 113.832 187.609 113.908C187.362 113.983 187.095 113.961 186.864 113.846C186.632 113.732 186.453 113.533 186.363 113.291C185.377 110.186 183.772 107.313 181.643 104.846C181.192 104.269 180.559 103.861 179.847 103.689C179.789 103.682 179.731 103.688 179.676 103.707C179.621 103.726 179.572 103.759 179.532 103.801C179.248 104.055 179.309 104.816 179.38 105.293C180.042 110.134 181.775 114.767 184.455 118.853C185.033 119.645 185.5 120.406 185.947 121.198Z" fill="#093F68"/>
<path d="M124.752 133.825H93.9065L92.0491 124.964H126.61L124.752 133.825Z" fill="#093F68"/>
<path d="M124.742 134.87H93.9066C93.6691 134.875 93.4375 134.796 93.252 134.648C93.0666 134.499 92.939 134.291 92.8916 134.058L91.024 125.187C90.9935 125.038 90.997 124.884 91.0341 124.736C91.0713 124.588 91.1412 124.451 91.2387 124.334C91.3361 124.217 91.4587 124.123 91.5972 124.06C91.7358 123.997 91.8867 123.966 92.039 123.969H126.549C126.701 123.966 126.852 123.997 126.991 124.06C127.129 124.123 127.252 124.217 127.349 124.334C127.447 124.451 127.517 124.588 127.554 124.736C127.591 124.884 127.594 125.038 127.564 125.187L125.696 134.058C125.651 134.281 125.533 134.482 125.36 134.629C125.187 134.776 124.969 134.861 124.742 134.87ZM94.7389 132.84H123.92L125.361 125.999H93.2976L94.7389 132.84Z" fill="#093F68"/>
<path d="M113.79 121.37V102.735C113.79 98.8479 112.246 95.12 109.498 92.3713C106.749 89.6227 103.021 88.0785 99.1339 88.0785H76.0223C72.1369 88.0812 68.4115 89.6266 65.6651 92.3749C62.9186 95.1233 61.3759 98.8497 61.3759 102.735V121.37H113.79Z" fill="#4299E1"/>
<path d="M113.79 122.385H61.3758C61.1066 122.385 60.8485 122.279 60.6581 122.088C60.4678 121.898 60.3608 121.64 60.3608 121.37V102.735C60.3635 98.5813 62.0141 94.5983 64.9503 91.6601C67.8865 88.722 71.8685 87.0689 76.0223 87.0635H99.1338C103.289 87.0688 107.272 88.7217 110.209 91.6595C113.147 94.5974 114.8 98.5804 114.805 102.735V121.37C114.805 121.64 114.699 121.898 114.508 122.088C114.318 122.279 114.06 122.385 113.79 122.385ZM62.3908 120.355H112.775V102.735C112.77 99.1188 111.331 95.6521 108.774 93.0949C106.217 90.5378 102.75 89.0988 99.1338 89.0935H76.0223C72.4069 89.0989 68.9413 90.5381 66.3857 93.0956C63.8302 95.653 62.3935 99.1197 62.3908 102.735V120.355Z" fill="#093F68"/>
<path d="M97.1343 88.0886L87.7557 112.022L78.1639 88.0886H97.1343Z" fill="#F56132"/>
<path d="M87.715 113.037C87.5117 113.038 87.3131 112.977 87.1448 112.863C86.9765 112.749 86.8463 112.587 86.7711 112.398L77.1793 88.4642C77.1162 88.3091 77.0925 88.1409 77.1102 87.9744C77.1279 87.8079 77.1865 87.6484 77.2808 87.5101C77.3739 87.3723 77.4994 87.2596 77.6463 87.1817C77.7932 87.1038 77.957 87.0632 78.1233 87.0635H97.0936C97.2594 87.0633 97.4228 87.1038 97.5693 87.1814C97.7159 87.2589 97.8412 87.3712 97.9344 87.5084C98.0275 87.6456 98.0856 87.8035 98.1036 87.9684C98.1216 88.1332 98.0989 88.3 98.0375 88.454L88.73 112.388C88.6564 112.578 88.5269 112.743 88.3585 112.858C88.19 112.974 87.9905 113.037 87.7861 113.037H87.715ZM79.595 89.0935L87.715 109.262L95.6117 89.0935H79.595Z" fill="#093F68"/>
<path d="M84.4468 85.2974H91.7751V89.5198C91.7751 90.3462 91.4468 91.1388 90.8624 91.7231C90.278 92.3075 89.4855 92.6358 88.659 92.6358H87.5527C86.7263 92.6358 85.9337 92.3075 85.3493 91.7231C84.7649 91.1388 84.4366 90.3462 84.4366 89.5198V85.2974H84.4468Z" fill="#FFC9B0"/>
<path d="M88.6692 93.6408H87.5628C86.469 93.6408 85.4197 93.2069 84.6453 92.4344C83.8709 91.6619 83.4345 90.6137 83.4318 89.5199V85.2975C83.4318 85.0283 83.5387 84.7701 83.729 84.5798C83.9194 84.3894 84.1776 84.2825 84.4468 84.2825H91.7751C92.0443 84.2825 92.3024 84.3894 92.4928 84.5798C92.6831 84.7701 92.7901 85.0283 92.7901 85.2975V89.5199C92.7874 90.612 92.3524 91.6586 91.5801 92.4308C90.8079 93.2031 89.7613 93.6381 88.6692 93.6408V93.6408ZM85.4618 86.3125V89.5199C85.4644 90.0753 85.687 90.6071 86.0807 90.999C86.4745 91.3908 87.0073 91.6108 87.5628 91.6108H88.6692C89.2246 91.6108 89.7575 91.3908 90.1513 90.999C90.545 90.6071 90.7675 90.0753 90.7702 89.5199V86.3125H85.4618Z" fill="#093F68"/>
<path d="M62.746 65.1294C62.3649 64.8252 62.051 64.4455 61.8239 64.014C61.5968 63.5825 61.4615 63.1087 61.4265 62.6224C60.9461 58.0481 60.6957 53.4569 60.6754 48.8488C60.6754 44.2103 60.8987 39.4195 62.9693 35.2681C65.2835 30.6296 69.8713 25.311 75.5046 28.6605C75.757 28.8622 76.0752 28.9634 76.3978 28.9447C76.6623 28.8469 76.8847 28.6604 77.0271 28.4169C85.8779 16.6733 103.529 21.3119 111.446 31.3401C115.191 36.0801 117.089 42.9212 117.475 48.8894C117.597 50.8179 114.795 65.6775 114.156 65.5659L109.609 64.764C107.7 64.4392 105.315 64.9061 103.387 64.967L89.1766 65.4035C83.7667 65.576 78.4075 66.4185 72.9874 66.4185C70.1555 66.4286 65.1414 67.0376 62.746 65.1294Z" fill="#725858"/>
<path d="M68.9781 67.5451C66.4609 67.5451 63.8321 67.2913 62.1167 65.9211C61.6281 65.5339 61.2245 65.0501 60.9311 64.5001C60.6377 63.95 60.4609 63.3453 60.4116 62.7238C59.9345 58.136 59.6807 53.467 59.6604 48.8589C59.6401 44.2508 59.904 39.1251 62.0558 34.8113C63.0708 32.8422 65.791 28.1123 69.9627 26.8842C70.9836 26.5927 72.055 26.5225 73.1052 26.6783C74.1555 26.8341 75.1603 27.2122 76.0527 27.7875L76.1846 27.8687V27.8078C77.902 25.4906 80.1463 23.6155 82.732 22.3376C85.3177 21.0598 88.1705 20.4159 91.0544 20.4592H91.3081C95.33 20.5402 99.2854 21.4998 102.897 23.2707C106.509 25.0415 109.69 27.5809 112.217 30.7107C115.729 35.1666 118.003 41.7641 118.449 48.8285C118.551 50.3002 116.125 65.1598 114.856 66.2966C114.733 66.4057 114.587 66.486 114.429 66.5317C114.271 66.5773 114.105 66.5872 113.943 66.5605L109.406 65.7688C108.089 65.623 106.759 65.6434 105.447 65.8297C104.726 65.8906 104.036 65.9617 103.417 65.982L89.2071 66.4184C86.8421 66.4996 84.4366 66.7127 82.1021 66.9259C79.1687 67.1796 76.144 67.4537 73.1193 67.4537H72.9366C72.4494 67.4537 71.9217 67.4537 71.2924 67.4537C70.6631 67.4537 69.7698 67.5451 68.9781 67.5451ZM72.0231 28.6198C71.535 28.6212 71.0495 28.693 70.5818 28.833C67.1816 29.848 64.7963 33.979 63.9234 35.7248C62.0761 39.4296 61.7108 43.652 61.7412 48.8488C61.7412 53.396 62.0152 57.9838 62.4821 62.5208C62.5042 62.8713 62.5996 63.2132 62.7622 63.5244C62.9248 63.8357 63.151 64.1093 63.4261 64.3275C65.0907 65.6673 68.6635 65.5455 71.2619 65.4643C71.9115 65.4643 72.5002 65.4643 73.0381 65.4643C76.0324 65.4643 79.0368 65.2004 81.96 64.9365C84.3249 64.7234 86.7609 64.5102 89.1868 64.429L103.397 63.9926C104.006 63.9926 104.655 63.9114 105.325 63.8505C106.818 63.6529 108.329 63.6529 109.822 63.8505C110.41 63.952 112.4 64.2767 113.638 64.5102C114.501 61.8001 116.602 50.6453 116.5 49.0315C116.084 42.4644 113.912 36.1207 110.695 32.0404C108.329 29.1248 105.353 26.7645 101.974 25.1263C98.5964 23.4881 94.8997 22.6121 91.1458 22.5603C88.5741 22.5252 86.0306 23.0992 83.7232 24.2352C81.4157 25.3713 79.4099 27.0372 77.8696 29.0969C77.5951 29.5351 77.1686 29.8567 76.6718 30.0002C76.3907 30.0465 76.1032 30.0362 75.826 29.97C75.5489 29.9038 75.2878 29.7829 75.058 29.6145C74.1416 29.0031 73.0733 28.6587 71.9724 28.6198H72.0231ZM114.237 64.5508H114.379H114.237Z" fill="#093F68"/>
<path d="M67.1613 72.3866C71.0965 72.3866 74.2866 69.6373 74.2866 66.2459C74.2866 62.8544 71.0965 60.1051 67.1613 60.1051C63.2261 60.1051 60.036 62.8544 60.036 66.2459C60.036 69.6373 63.2261 72.3866 67.1613 72.3866Z" fill="#FFC9B0"/>
<path d="M67.1613 73.4016C62.6648 73.4016 59.0413 70.1942 59.0413 66.2459C59.0413 62.2975 62.6851 59.1409 67.1613 59.1409C71.6374 59.1409 75.2813 62.3483 75.2813 66.2459C75.2813 70.1435 71.6476 73.4016 67.1613 73.4016ZM67.1613 61.1201C63.7915 61.1201 61.0713 63.4242 61.0713 66.1951C61.0713 68.9661 63.8118 71.3209 67.1613 71.3209C70.5108 71.3209 73.2513 69.027 73.2513 66.1951C73.2513 63.3633 70.5209 61.1201 67.1613 61.1201Z" fill="#093F68"/>
<path d="M108.695 72.3866C112.63 72.3866 115.82 69.6373 115.82 66.2459C115.82 62.8544 112.63 60.1051 108.695 60.1051C104.76 60.1051 101.57 62.8544 101.57 66.2459C101.57 69.6373 104.76 72.3866 108.695 72.3866Z" fill="#FFC9B0"/>
<path d="M108.695 73.4016C104.209 73.4016 100.575 70.1942 100.575 66.2459C100.575 62.2975 104.229 59.1409 108.695 59.1409C113.161 59.1409 116.815 62.3483 116.815 66.2459C116.815 70.1435 113.181 73.4016 108.695 73.4016ZM108.695 61.1201C105.325 61.1201 102.605 63.4242 102.605 66.1951C102.605 68.9661 105.346 71.3209 108.695 71.3209C112.045 71.3209 114.785 69.027 114.785 66.1951C114.785 63.3633 112.075 61.1201 108.695 61.1201Z" fill="#093F68"/>
<path d="M88.111 86.2617C85.2883 86.2617 82.4933 85.7055 79.8857 84.625C77.278 83.5446 74.9088 81.9609 72.9134 79.9645C70.9179 77.9681 69.3354 75.5982 68.2561 72.99C67.1769 70.3818 66.6221 67.5866 66.6234 64.7639V49.1634C67.882 51.1934 72.0537 50.4118 78.164 39.9167C101.062 51.5182 109.629 44.87 109.629 44.87V64.7639C109.629 67.5888 109.072 70.3859 107.991 72.9955C106.909 75.605 105.324 77.9758 103.325 79.9723C101.327 81.9688 98.9546 83.5519 96.344 84.6311C93.7334 85.7102 90.9358 86.2643 88.111 86.2617Z" fill="#FFC9B0"/>
<path d="M88.1109 87.2766C82.1453 87.2686 76.4264 84.8952 72.2081 80.6769C67.9898 76.4586 65.6164 70.7397 65.6083 64.7741V49.1634C65.6061 48.9401 65.6776 48.7224 65.8117 48.5439C65.9458 48.3654 66.135 48.2361 66.35 48.1759C66.565 48.1158 66.7938 48.1283 67.0011 48.2114C67.2083 48.2945 67.3823 48.4436 67.4962 48.6356C67.5701 48.7734 67.6822 48.8869 67.8191 48.9625C67.9559 49.0381 68.1116 49.0726 68.2676 49.0619C69.9119 49.0619 73.1396 46.5041 77.2707 39.4092C77.4007 39.1868 77.6104 39.0222 77.8573 38.9487C78.1042 38.8752 78.3698 38.8983 78.6003 39.0134C90.08 44.8293 97.7432 45.8849 102.158 45.7428C106.878 45.5906 108.949 44.0782 108.969 44.0681C109.119 43.9526 109.299 43.8813 109.487 43.8624C109.675 43.8435 109.865 43.8777 110.035 43.9612C110.205 44.0446 110.349 44.1739 110.449 44.3345C110.549 44.4951 110.603 44.6806 110.603 44.8699V64.7741C110.595 70.7379 108.223 76.4553 104.007 80.6733C99.791 84.8913 94.0747 87.2659 88.1109 87.2766V87.2766ZM67.6383 51.031V64.7741C67.7575 70.1262 69.9673 75.2189 73.7946 78.9619C77.6219 82.705 82.7626 84.8009 88.116 84.8009C93.4693 84.8009 98.61 82.705 102.437 78.9619C106.265 75.2189 108.474 70.1262 108.594 64.7741V46.565C105.132 48.0063 95.9467 49.8637 78.5597 41.2667C74.7433 47.5901 71.1198 51.0716 68.3082 51.102C68.0832 51.0995 67.8589 51.0757 67.6383 51.031V51.031Z" fill="#093F68"/>
<path d="M78.844 63.6271C79.9427 63.6271 80.8334 62.7364 80.8334 61.6377C80.8334 60.539 79.9427 59.6483 78.844 59.6483C77.7453 59.6483 76.8546 60.539 76.8546 61.6377C76.8546 62.7364 77.7453 63.6271 78.844 63.6271Z" fill="#093F68"/>
<path d="M97.3778 63.6271C98.4765 63.6271 99.3672 62.7364 99.3672 61.6377C99.3672 60.539 98.4765 59.6483 97.3778 59.6483C96.2791 59.6483 95.3884 60.539 95.3884 61.6377C95.3884 62.7364 96.2791 63.6271 97.3778 63.6271Z" fill="#093F68"/>
<path d="M88.05 70.925C87.3702 70.9226 86.6916 70.8683 86.02 70.7626C85.8887 70.7394 85.7632 70.6905 85.6508 70.6187C85.5384 70.5469 85.4413 70.4537 85.3649 70.3443C85.2886 70.235 85.2345 70.1117 85.2059 69.9814C85.1772 69.8512 85.1745 69.7165 85.1979 69.5852C85.2211 69.4539 85.27 69.3285 85.3418 69.2161C85.4136 69.1037 85.5068 69.0065 85.6162 68.9302C85.7255 68.8538 85.8488 68.7998 85.9791 68.7711C86.1093 68.7424 86.2439 68.7397 86.3752 68.7631C87.1938 68.8969 88.0263 68.9242 88.8518 68.8443C88.5035 67.3797 87.9572 65.9694 87.2279 64.6524C87.1262 64.4168 87.1175 64.1515 87.2036 63.9098C87.2897 63.6681 87.4641 63.4679 87.6917 63.3496C87.9193 63.2313 88.1833 63.2036 88.4306 63.272C88.6778 63.3405 88.89 63.5 89.0244 63.7185C89.9277 65.444 91.3386 68.5398 90.7195 69.91C90.6289 70.1197 90.4896 70.3046 90.313 70.4494C90.1364 70.5942 89.9278 70.6947 89.7045 70.7424C89.1622 70.8689 88.6068 70.9302 88.05 70.925V70.925Z" fill="#093F68"/>
<path d="M73.3122 122.385C73.043 122.385 72.7849 122.279 72.5945 122.088C72.4042 121.898 72.2972 121.64 72.2972 121.37V100.695C72.2972 100.426 72.4042 100.168 72.5945 99.9772C72.7849 99.7869 73.043 99.6799 73.3122 99.6799C73.5814 99.6799 73.8396 99.7869 74.03 99.9772C74.2203 100.168 74.3272 100.426 74.3272 100.695V121.37C74.3272 121.64 74.2203 121.898 74.03 122.088C73.8396 122.279 73.5814 122.385 73.3122 122.385Z" fill="#093F68"/>
<path d="M101.844 122.385C101.575 122.385 101.316 122.279 101.126 122.088C100.936 121.898 100.829 121.64 100.829 121.37V100.695C100.829 100.426 100.936 100.168 101.126 99.9772C101.316 99.7869 101.575 99.6799 101.844 99.6799C102.113 99.6799 102.371 99.7869 102.562 99.9772C102.752 100.168 102.859 100.426 102.859 100.695V121.37C102.859 121.64 102.752 121.898 102.562 122.088C102.371 122.279 102.113 122.385 101.844 122.385Z" fill="#093F68"/>
<path d="M82.5487 57.4763H72.1855C71.6471 57.4763 71.1308 57.2624 70.7501 56.8817C70.3694 56.501 70.1555 55.9846 70.1555 55.4463C70.1555 54.9079 70.3694 54.3915 70.7501 54.0108C71.1308 53.6301 71.6471 53.4163 72.1855 53.4163H82.5487C83.0871 53.4163 83.6034 53.6301 83.9841 54.0108C84.3648 54.3915 84.5787 54.9079 84.5787 55.4463C84.5787 55.9846 84.3648 56.501 83.9841 56.8817C83.6034 57.2624 83.0871 57.4763 82.5487 57.4763Z" fill="#093F68"/>
<path d="M104.046 57.4763H93.6832C93.1448 57.4763 92.6285 57.2624 92.2478 56.8817C91.8671 56.501 91.6532 55.9846 91.6532 55.4463C91.6532 54.9079 91.8671 54.3915 92.2478 54.0108C92.6285 53.6301 93.1448 53.4163 93.6832 53.4163H104.046C104.585 53.4163 105.101 53.6301 105.482 54.0108C105.862 54.3915 106.076 54.9079 106.076 55.4463C106.076 55.9846 105.862 56.501 105.482 56.8817C105.101 57.2624 104.585 57.4763 104.046 57.4763Z" fill="#093F68"/>
<path d="M92.4044 73.8483H84.2844C84.2844 73.8483 83.4216 80.0398 88.5981 80.0398C90.9123 80.0601 92.4044 77.4921 92.4044 73.8483Z" fill="white"/>
<path d="M88.5575 81.0751C87.8223 81.1131 87.0879 80.986 86.4082 80.7032C85.7285 80.4205 85.1207 79.9891 84.6294 79.4409C82.7618 77.3094 83.2186 73.8787 83.2389 73.7265C83.2733 73.4826 83.3953 73.2596 83.582 73.099C83.7688 72.9384 84.0076 72.8511 84.2539 72.8536H92.3739C92.643 72.8536 92.9012 72.9605 93.0916 73.1509C93.2819 73.3412 93.3889 73.5994 93.3889 73.8686C93.4193 78.162 91.4705 81.0751 88.5575 81.0751ZM85.208 74.8836C85.1472 76.0401 85.4839 77.1826 86.1621 78.1214C86.47 78.4405 86.8439 78.6885 87.2577 78.848C87.6714 79.0076 88.115 79.0748 88.5575 79.0451C90.2525 79.0451 91.1457 77.0861 91.3487 74.8836H85.208Z" fill="#093F68"/>
<path d="M209.759 1.90503H143.276C141.642 1.90503 140.075 2.55414 138.92 3.70956C137.764 4.86498 137.115 6.43207 137.115 8.06608V50.6961L125.27 56.9485L137.074 57.6894V63.7084C137.074 65.3424 137.724 66.9095 138.879 68.0649C140.034 69.2203 141.602 69.8694 143.236 69.8694H209.718C211.352 69.8694 212.919 69.2203 214.075 68.0649C215.23 66.9095 215.879 65.3424 215.879 63.7084V8.05593C215.876 6.43068 215.232 4.87232 214.085 3.72025C212.939 2.56818 211.384 1.91574 209.759 1.90503V1.90503Z" fill="white"/>
<path d="M209.759 70.925H143.276C141.374 70.9223 139.55 70.1654 138.205 68.8202C136.86 67.4751 136.103 65.6513 136.1 63.749V58.674L125.27 57.9635C125.049 57.9499 124.839 57.8647 124.672 57.7209C124.504 57.5771 124.388 57.3825 124.341 57.1666C124.294 56.9508 124.318 56.7255 124.411 56.5249C124.503 56.3243 124.659 56.1594 124.854 56.0553L136.12 50.0668V8.05591C136.126 6.1588 136.881 4.34076 138.222 2.99834C139.562 1.65592 141.379 0.898046 143.276 0.890015H209.759C211.661 0.8927 213.485 1.64961 214.83 2.9948C216.175 4.33999 216.932 6.16368 216.935 8.06606V63.7185C216.937 64.6631 216.754 65.5989 216.394 66.4724C216.035 67.346 215.507 68.1401 214.841 68.8095C214.174 69.4788 213.382 70.0101 212.51 70.3731C211.638 70.7361 210.703 70.9237 209.759 70.925ZM128.954 56.1974L137.176 56.715C137.434 56.7306 137.677 56.8443 137.855 57.033C138.032 57.2217 138.131 57.471 138.13 57.73V63.749C138.13 65.1138 138.672 66.4227 139.637 67.3878C140.602 68.3528 141.911 68.895 143.276 68.895H209.759C211.123 68.8923 212.43 68.3493 213.394 67.3848C214.359 66.4203 214.902 65.1129 214.905 63.749V8.05591C214.899 6.69368 214.355 5.38892 213.391 4.42662C212.427 3.46432 211.121 2.92269 209.759 2.92001H143.276C141.912 2.9227 140.605 3.46573 139.64 4.43022C138.676 5.39471 138.133 6.70207 138.13 8.06606V50.6961C138.13 50.8797 138.079 51.0597 137.985 51.217C137.89 51.3743 137.754 51.503 137.592 51.5893L128.954 56.1974Z" fill="#093F68"/>
<path d="M208.764 16.3687H157.151C156.882 16.3687 156.624 16.2618 156.434 16.0715C156.243 15.8811 156.136 15.6229 156.136 15.3537C156.136 15.0846 156.243 14.8264 156.434 14.636C156.624 14.4457 156.882 14.3387 157.151 14.3387H208.764C209.033 14.3387 209.291 14.4457 209.482 14.636C209.672 14.8264 209.779 15.0846 209.779 15.3537C209.779 15.6229 209.672 15.8811 209.482 16.0715C209.291 16.2618 209.033 16.3687 208.764 16.3687Z" fill="#DFEAEF"/>
<path d="M200.989 26.7726H145.448C145.179 26.7726 144.921 26.6656 144.731 26.4753C144.54 26.2849 144.433 26.0267 144.433 25.7576C144.433 25.4884 144.54 25.2302 144.731 25.0398C144.921 24.8495 145.179 24.7426 145.448 24.7426H200.989C201.258 24.7426 201.516 24.8495 201.707 25.0398C201.897 25.2302 202.004 25.4884 202.004 25.7576C202.004 26.0267 201.897 26.2849 201.707 26.4753C201.516 26.6656 201.258 26.7726 200.989 26.7726Z" fill="#DFEAEF"/>
<path d="M208.764 37.1661H181.826C181.557 37.1661 181.298 37.0592 181.108 36.8688C180.918 36.6785 180.811 36.4203 180.811 36.1511C180.811 35.8819 180.918 35.6237 181.108 35.4334C181.298 35.243 181.557 35.1361 181.826 35.1361H208.764C209.033 35.1361 209.291 35.243 209.482 35.4334C209.672 35.6237 209.779 35.8819 209.779 36.1511C209.779 36.4203 209.672 36.6785 209.482 36.8688C209.291 37.0592 209.033 37.1661 208.764 37.1661V37.1661Z" fill="#DFEAEF"/>
<path d="M170.61 37.1661H145.448C145.179 37.1661 144.921 37.0592 144.731 36.8688C144.54 36.6785 144.433 36.4203 144.433 36.1511C144.433 35.8819 144.54 35.6237 144.731 35.4334C144.921 35.243 145.179 35.1361 145.448 35.1361H170.61C170.879 35.1361 171.137 35.243 171.328 35.4334C171.518 35.6237 171.625 35.8819 171.625 36.1511C171.625 36.4203 171.518 36.6785 171.328 36.8688C171.137 37.0592 170.879 37.1661 170.61 37.1661Z" fill="#DFEAEF"/>
<path d="M199.974 47.58H153.883C153.614 47.58 153.356 47.4731 153.165 47.2828C152.975 47.0924 152.868 46.8342 152.868 46.565C152.868 46.2959 152.975 46.0377 153.165 45.8473C153.356 45.657 153.614 45.55 153.883 45.55H199.974C200.243 45.55 200.501 45.657 200.692 45.8473C200.882 46.0377 200.989 46.2959 200.989 46.565C200.989 46.8342 200.882 47.0924 200.692 47.2828C200.501 47.4731 200.243 47.58 199.974 47.58Z" fill="#DFEAEF"/>
<path d="M189.57 57.9635H145.448C145.179 57.9635 144.921 57.8565 144.731 57.6662C144.54 57.4758 144.433 57.2177 144.433 56.9485C144.433 56.6793 144.54 56.4211 144.731 56.2308C144.921 56.0404 145.179 55.9335 145.448 55.9335H189.57C189.839 55.9335 190.098 56.0404 190.288 56.2308C190.478 56.4211 190.585 56.6793 190.585 56.9485C190.585 57.2177 190.478 57.4758 190.288 57.6662C190.098 57.8565 189.839 57.9635 189.57 57.9635Z" fill="#DFEAEF"/>
<path d="M30.2457 26.9044C31.2267 26.9044 32.022 26.1092 32.022 25.1282C32.022 24.1472 31.2267 23.3519 30.2457 23.3519C29.2647 23.3519 28.4695 24.1472 28.4695 25.1282C28.4695 26.1092 29.2647 26.9044 30.2457 26.9044Z" fill="#093F68"/>
<path d="M39.7969 26.9044C40.7779 26.9044 41.5731 26.1092 41.5731 25.1282C41.5731 24.1472 40.7779 23.3519 39.7969 23.3519C38.8159 23.3519 38.0206 24.1472 38.0206 25.1282C38.0206 26.1092 38.8159 26.9044 39.7969 26.9044Z" fill="#093F68"/>
<path d="M49.3379 26.9044C50.3189 26.9044 51.1141 26.1092 51.1141 25.1282C51.1141 24.1472 50.3189 23.3519 49.3379 23.3519C48.3569 23.3519 47.5616 24.1472 47.5616 25.1282C47.5616 26.1092 48.3569 26.9044 49.3379 26.9044Z" fill="#093F68"/>
<path d="M61.7107 122.213L50.698 103.75L41.2179 108.693L47.5921 122.213H61.7107Z" fill="#4299E1"/>
<path d="M61.7108 123.228H47.5921C47.3997 123.227 47.2117 123.17 47.0499 123.066C46.8882 122.962 46.7594 122.814 46.6786 122.639L40.3044 109.13C40.1934 108.893 40.1779 108.623 40.2611 108.375C40.3443 108.128 40.5197 107.922 40.751 107.8L50.2311 102.857C50.4603 102.737 50.7265 102.709 50.9755 102.779C51.2245 102.849 51.4374 103.011 51.5709 103.232L62.5837 121.675C62.6727 121.829 62.7196 122.004 62.7196 122.183C62.7196 122.361 62.6727 122.536 62.5837 122.69C62.499 122.849 62.3735 122.983 62.2201 123.077C62.0667 123.172 61.8909 123.224 61.7108 123.228V123.228ZM48.2316 121.198H59.9243L50.3225 105.1L42.5577 109.16L48.2316 121.198Z" fill="#093F68"/>
<path d="M50.6981 103.75C50.6981 103.75 50.3935 93.7625 49.074 94.27C47.7545 94.7775 47.2369 98.33 47.2369 98.33C47.2369 98.33 43.4611 84.12 42.1619 84.12C40.8627 84.12 39.8173 84.12 39.6041 86.7793C39.391 89.4386 41.6341 96.7263 41.6341 96.7263C41.6341 96.7263 37.0463 96.8684 35.7268 100.543C34.4073 104.217 41.2281 108.663 41.2281 108.663L50.6981 103.75Z" fill="#FFC9B0"/>
<path d="M41.2178 109.708C41.0234 109.708 40.8331 109.651 40.6697 109.546C39.8983 109.048 33.2095 104.552 34.7624 100.248C35.229 99.1061 35.9874 98.1063 36.9618 97.3493C37.9362 96.5922 39.0923 96.1044 40.3145 95.9346C39.675 93.6915 38.4063 88.9413 38.5788 86.7996C38.8326 83.4907 40.4058 83.2065 42.1415 83.2065C42.8621 83.2065 44.0294 83.2065 47.2977 94.7674C47.5889 94.1518 48.0888 93.6591 48.7085 93.3768C48.9009 93.3022 49.1084 93.2753 49.3134 93.2982C49.5185 93.3212 49.7149 93.3935 49.8859 93.5088C50.2615 93.7625 51.4389 94.5238 51.7129 103.77C51.72 103.961 51.6733 104.149 51.5781 104.315C51.483 104.48 51.3433 104.615 51.175 104.704L41.6847 109.647C41.5369 109.707 41.3761 109.728 41.2178 109.708ZM41.8065 85.1959C40.7306 85.1959 40.7103 85.541 40.5987 86.9011C40.4464 88.9311 41.9892 94.5035 42.6287 96.4827C42.6757 96.6325 42.6873 96.7911 42.6626 96.946C42.638 97.101 42.5777 97.2482 42.4866 97.3759C42.3941 97.5025 42.2736 97.6059 42.1345 97.6781C41.9954 97.7503 41.8414 97.7893 41.6847 97.7921C41.6847 97.7921 37.7668 97.9748 36.7011 100.939C35.9195 103.101 39.472 106.196 41.3193 107.516L49.6931 103.151C49.6271 100.732 49.3863 98.3197 48.9724 95.9346C48.6337 96.7549 48.3985 97.6141 48.2721 98.4924C48.2869 98.7616 48.1942 99.0257 48.0143 99.2265C47.8344 99.4273 47.5821 99.5485 47.3129 99.5633C47.0437 99.5781 46.7797 99.4853 46.5789 99.3055C46.378 99.1256 46.2569 98.8733 46.2421 98.6041C44.7602 92.9911 42.6997 86.4951 41.8065 85.1959Z" fill="#093F68"/>
<path d="M41.2179 94.676C41.2179 94.676 45.5012 100.39 44.2629 102.217C43.0246 104.044 38.1729 106.968 35.5238 104.308C32.8746 101.649 31.819 99.5683 33.9607 97.8428C36.1023 96.1173 41.2179 94.676 41.2179 94.676Z" fill="#FFC9B0"/>
<path d="M38.2643 106.389C37.6313 106.405 37.0015 106.293 36.4123 106.061C35.8231 105.83 35.2863 105.482 34.8336 105.039C32.6716 102.898 31.7378 101.274 31.7886 99.7612C31.8302 99.226 31.988 98.7063 32.2509 98.2383C32.5139 97.7703 32.8757 97.3652 33.3111 97.0512C35.5847 95.2039 40.7003 93.7626 40.9134 93.7017C41.1102 93.6461 41.3192 93.6512 41.513 93.7164C41.7067 93.7816 41.8763 93.9039 41.9995 94.0671C43.4205 95.955 46.5568 100.594 45.0445 102.786C43.5091 104.74 41.2745 106.021 38.8124 106.359L38.2643 106.389ZM40.8221 95.8535C38.6285 96.4634 36.5382 97.3973 34.6204 98.6244C34.4064 98.7598 34.2252 98.9412 34.09 99.1554C33.9548 99.3696 33.869 99.6112 33.8389 99.8627C33.8389 100.725 34.59 101.943 36.2546 103.588C36.575 103.893 36.9617 104.119 37.3843 104.249C37.807 104.38 38.2541 104.41 38.6906 104.339C40.5472 104.062 42.2356 103.107 43.4306 101.659C43.8265 101.071 42.5882 98.3301 40.8221 95.8535Z" fill="#093F68"/>
<path d="M113.79 121.614L128.701 105.496L138.13 112.976L132.324 122.213L113.79 121.614Z" fill="#4299E1"/>
<path d="M132.375 123.228L113.851 122.629C113.656 122.625 113.466 122.564 113.304 122.454C113.142 122.344 113.016 122.19 112.94 122.01C112.864 121.829 112.841 121.631 112.875 121.439C112.909 121.246 112.998 121.067 113.131 120.924L128.041 104.806C128.216 104.617 128.455 104.502 128.711 104.483C128.967 104.464 129.221 104.543 129.421 104.704L138.851 112.185C139.049 112.34 139.182 112.562 139.225 112.81C139.268 113.057 139.218 113.312 139.084 113.525L133.268 122.751C133.174 122.902 133.042 123.025 132.885 123.109C132.729 123.193 132.553 123.234 132.375 123.228V123.228ZM116.135 120.67L131.868 121.178L136.882 113.21L128.894 106.876L116.135 120.67Z" fill="#093F68"/>
<path d="M128.193 106.257C128.193 106.257 135.075 97.0309 136.76 98.9391C138.445 100.847 135.187 104.116 135.187 104.116C135.187 104.116 155.365 99.0406 155.162 102.471C154.959 105.902 136.76 113.849 136.76 113.849L128.193 106.257Z" fill="#FFC9B0"/>
<path d="M136.76 114.864C136.513 114.864 136.275 114.774 136.09 114.611L127.523 107.018C127.332 106.85 127.211 106.615 127.184 106.361C127.158 106.107 127.228 105.853 127.381 105.648C128.762 103.801 133.471 97.7718 136.08 97.6703C136.35 97.6538 136.62 97.6992 136.87 97.8029C137.12 97.9067 137.342 98.0662 137.521 98.2692C138.617 99.5075 138.343 101.081 137.643 102.461C151.741 99.1319 154.898 100.502 155.517 101.03C155.741 101.208 155.918 101.437 156.033 101.699C156.148 101.961 156.197 102.247 156.177 102.532C155.964 106.237 142.809 112.337 137.166 114.783C137.038 114.84 136.9 114.868 136.76 114.864ZM129.574 106.125L136.953 112.662C146.017 108.673 153.68 104.156 154.137 102.512C152.746 101.68 144.342 102.827 135.43 105.09C135.215 105.143 134.988 105.124 134.785 105.036C134.581 104.948 134.412 104.796 134.304 104.603C134.194 104.41 134.15 104.186 134.18 103.966C134.209 103.746 134.309 103.542 134.466 103.385C134.994 102.857 136.76 100.715 136.07 99.6901C135.085 99.8627 132.213 102.715 129.574 106.125V106.125Z" fill="#093F68"/>
<path d="M164.084 78.7303H126.803V104.207H164.084V78.7303Z" fill="#FFBC0E"/>
<path d="M164.084 105.222H126.803C126.534 105.222 126.275 105.115 126.085 104.925C125.895 104.734 125.788 104.476 125.788 104.207V78.7303C125.788 78.4611 125.895 78.203 126.085 78.0126C126.275 77.8223 126.534 77.7153 126.803 77.7153H164.084C164.353 77.7153 164.611 77.8223 164.801 78.0126C164.992 78.203 165.099 78.4611 165.099 78.7303V104.207C165.099 104.476 164.992 104.734 164.801 104.925C164.611 105.115 164.353 105.222 164.084 105.222ZM127.818 103.192H163.069V79.7453H127.818V103.192Z" fill="#093F68"/>
<path d="M164.084 86.0079H126.803C126.534 86.0079 126.275 85.901 126.085 85.7106C125.895 85.5203 125.788 85.2621 125.788 84.9929C125.788 84.7237 125.895 84.4655 126.085 84.2752C126.275 84.0848 126.534 83.9779 126.803 83.9779H164.084C164.353 83.9779 164.611 84.0848 164.801 84.2752C164.992 84.4655 165.099 84.7237 165.099 84.9929C165.099 85.2621 164.992 85.5203 164.801 85.7106C164.611 85.901 164.353 86.0079 164.084 86.0079Z" fill="#093F68"/>
</svg>
