<svg width="191" height="190" viewBox="0 0 191 190" fill="none" xmlns="http://www.w3.org/2000/svg">
<path d="M87.0334 4.86258C92.2762 1.8515 98.7238 1.8515 103.967 4.86258L169.672 42.599C174.951 45.6307 178.205 51.2534 178.205 57.3407V132.659C178.205 138.747 174.951 144.369 169.672 147.401L103.967 185.137C98.7238 188.148 92.2762 188.148 87.0334 185.137L21.328 147.401C16.0494 144.369 12.7946 138.747 12.7946 132.659V57.3407C12.7946 51.2534 16.0494 45.6307 21.328 42.599L87.0334 4.86258Z" fill="url(#paint0_linear)"/>
<path d="M19.4542 99.5764L49.9299 154.969C51.6129 158.029 53.8972 160.003 55.0316 159.379L151.575 106.263L166.922 57.8776C167.35 56.525 165.461 53.0906 164.089 52.7295L115.004 39.7913L18.4607 92.907C17.3263 93.5311 17.7712 96.5173 19.4542 99.5764Z" fill="#E6BE94"/>
<path d="M106.67 87.8704L166.239 55.0969L166.032 54.7202C165.456 53.7462 164.724 52.896 164.089 52.7288L115.004 39.7913L88.3009 54.4829L106.67 87.8704Z" fill="#FFD788"/>
<path d="M19.4542 99.5764L49.9299 154.969C51.6129 158.029 53.8972 160.003 55.0316 159.379L151.575 106.263C149.306 107.511 144.738 103.563 141.372 97.4446C138.006 91.3265 137.116 85.3541 139.385 84.1058C137.116 85.3541 132.548 81.4056 129.182 75.2874C125.816 69.1692 124.926 63.1969 127.195 61.9486C124.926 63.1969 120.357 59.2483 116.991 53.1302C113.625 47.012 112.735 41.0397 115.004 39.7913L18.4607 92.907C17.3263 93.5311 17.7712 96.5173 19.4542 99.5764Z" fill="#FFCD00"/>
<path d="M139.385 84.1058C137.116 85.3541 132.548 81.4056 129.182 75.2874C126.099 69.6844 125.125 64.2498 126.72 62.4073L28.6803 116.346L40.8706 138.503L138.91 84.5645C139.057 84.3952 139.194 84.211 139.385 84.1058Z" fill="url(#paint1_linear)"/>
<path d="M151.575 106.263C149.306 107.511 144.738 103.563 141.372 97.4446C138.289 91.8416 137.316 86.407 138.91 84.5645L40.8706 138.503L50.0133 155.121C51.6963 158.18 53.9806 160.154 55.115 159.53L151.101 106.722C151.248 106.552 151.384 106.368 151.575 106.263Z" fill="url(#paint2_linear)"/>
<path d="M115.172 40.0952C112.903 41.3436 113.793 47.3159 117.159 53.4341C120.241 59.0371 124.311 62.7686 126.72 62.4079L28.6807 116.347L19.538 99.7287C17.855 96.6696 17.4102 93.6834 18.5445 93.0593L114.53 40.2507C114.752 40.2171 114.98 40.2005 115.172 40.0952Z" fill="url(#paint3_linear)"/>
<path d="M160.382 78.4963L166.921 57.8769C167.35 56.5243 165.461 53.0899 164.088 52.7281L143.172 47.2158L160.382 78.4963Z" fill="#5C546A"/>
<path d="M166.247 55.0925C165.652 53.9552 164.809 52.9181 164.089 52.7288L143.172 47.2158L151.861 63.0084L166.247 55.0925Z" fill="#868491"/>
<defs>
<linearGradient id="paint0_linear" x1="95.5" y1="0" x2="95.5" y2="190" gradientUnits="userSpaceOnUse">
<stop stop-color="#F687B3"/>
<stop offset="1" stop-color="#5EA3F5"/>
</linearGradient>
<linearGradient id="paint1_linear" x1="34.7754" y1="127.425" x2="133.373" y2="73.1788" gradientUnits="userSpaceOnUse">
<stop stop-color="#63B3ED"/>
<stop offset="1" stop-color="#7F63ED"/>
</linearGradient>
<linearGradient id="paint2_linear" x1="46.9657" y1="149.582" x2="145.564" y2="95.336" gradientUnits="userSpaceOnUse">
<stop stop-color="#3182CE"/>
<stop offset="1" stop-color="#31CECE"/>
</linearGradient>
<linearGradient id="paint3_linear" x1="22.5856" y1="105.268" x2="121.183" y2="51.0222" gradientUnits="userSpaceOnUse">
<stop stop-color="#81E6D9"/>
<stop offset="1" stop-color="#A1E681"/>
</linearGradient>
</defs>
</svg>
