<svg width="512" height="512" viewBox="0 0 512 512" fill="none" xmlns="http://www.w3.org/2000/svg">
<g clip-path="url(#clip0)">
<path d="M173.354 152.249C157.829 152.249 145.243 164.834 145.243 180.359V230.999V243.03V356.855C145.243 368.687 135.56 378.126 123.728 378.044C123.503 378.042 123.277 378.043 123.051 378.044C88.8723 378.169 60.6847 405.933 60.0705 440.107C59.4283 475.861 88.4702 504.991 124.192 504.491C158.479 504.011 186.514 474.71 186.514 440.421V250.105C186.514 246.198 189.682 243.031 193.589 243.031H403.595C407.503 243.031 410.67 246.198 410.67 250.105V356.855C410.67 368.687 400.985 378.126 389.153 378.044C388.928 378.042 388.703 378.043 388.477 378.044C354.299 378.169 326.111 405.932 325.496 440.105C324.853 475.86 353.894 504.99 389.617 504.491C423.904 504.012 451.94 474.712 451.94 440.422V243.03V230.999V180.359C451.94 164.834 439.354 152.249 423.829 152.249H173.354Z" fill="#F6E266"/>
<path d="M163.062 250.104V440.421C163.062 471.075 140.652 497.723 111.405 503.376C115.539 504.162 119.815 504.552 124.192 504.491C158.479 504.011 186.514 474.71 186.514 440.421V250.104C186.514 246.197 189.681 243.03 193.589 243.03H170.137C166.229 243.03 163.062 246.198 163.062 250.104V250.104Z" fill="#ECBE6B"/>
<path d="M423.83 152.249H400.378C415.903 152.249 428.489 164.834 428.489 180.359V230.999V243.03V440.421C428.489 471.075 406.078 497.723 376.831 503.376C380.965 504.162 385.241 504.552 389.617 504.491C423.905 504.011 451.941 474.711 451.941 440.421V243.03V230.999V180.359C451.941 164.834 439.355 152.249 423.83 152.249Z" fill="#ECBE6B"/>
<path d="M367.017 196.663C320.348 216.193 273.679 216.193 227.011 196.663C222.508 194.778 219.563 190.386 219.563 185.505V73.3449H374.464V185.505C374.465 190.386 371.52 194.778 367.017 196.663Z" fill="#4A80AA"/>
<path d="M357.611 73.3449V178.318C357.611 183.198 354.666 187.592 350.163 189.475C308.009 207.116 265.855 208.819 223.701 194.59C224.671 195.438 225.78 196.147 227.01 196.662C273.679 216.192 320.348 216.192 367.017 196.662C371.519 194.777 374.464 190.385 374.464 185.504V73.3449H357.611Z" fill="#407093"/>
<path d="M417.009 77.8895C290.651 147.422 297.646 144.267 295.713 143.204L177.021 77.8895C175.156 76.8631 175.156 74.1832 177.021 73.1568L295.712 7.84365C296.522 7.3975 297.505 7.3975 298.316 7.84365L417.008 73.1578C418.874 74.1832 418.874 76.8631 417.009 77.8895V77.8895Z" fill="#365E7D"/>
<path d="M417.009 73.1568L298.317 7.84365C297.507 7.3975 296.523 7.3975 295.713 7.84365L281.468 15.6823L385.916 73.1578C387.78 74.1842 387.78 76.8641 385.916 77.8905L281.468 135.366C295.252 142.485 296.036 144.459 298.317 143.205L417.009 77.8905C418.874 76.8631 418.874 74.1832 417.009 73.1568V73.1568Z" fill="#2B4D66"/>
<path d="M423.83 144.747H381.966V105.736L420.626 84.4617C423.885 82.6671 425.909 79.2419 425.909 75.5216C425.909 71.8024 423.885 68.3772 420.625 66.5816L365.675 36.3433C362.043 34.3476 357.483 35.6701 355.484 39.2993C353.487 42.9296 354.81 47.4921 358.44 49.4908L405.745 75.5206C394.041 81.9608 356.449 102.647 343.945 109.528L302.164 70.0678C299.152 67.2228 294.403 67.3569 291.558 70.3709C288.712 73.3829 288.848 78.1315 291.861 80.9765L330.138 117.127L296.978 135.375C289.924 131.735 262.704 116.155 188.31 75.5056L297.013 15.6873L331.799 34.8298C335.428 36.8275 339.991 35.502 341.989 31.8738C343.986 28.2426 342.664 23.681 339.033 21.6823L301.931 1.26741C298.856 -0.42417 295.18 -0.42517 292.093 1.26841L173.401 66.5846C170.142 68.3792 168.118 71.8044 168.118 75.5236C168.118 79.2439 170.142 82.6691 173.426 84.4757C188.053 92.4584 200.842 99.4638 212.061 105.627V144.747H173.355C153.718 144.747 137.742 160.723 137.742 180.359V356.857C137.742 363.841 132.428 370.575 123.024 370.542C84.86 370.683 53.2542 401.83 52.569 439.974C52.2209 459.308 59.5394 477.495 73.173 491.184C86.5686 504.631 104.325 512.002 123.274 512.002C123.614 512.002 123.956 511.999 124.296 511.994C142.838 511.735 160.348 504.05 173.602 490.354C186.766 476.75 194.016 459.018 194.016 440.423V370.325C194.016 366.18 190.658 362.822 186.514 362.822C182.369 362.822 179.011 366.18 179.011 370.325V440.423C179.011 470.669 153.858 496.574 124.087 496.991C123.817 496.995 123.55 496.997 123.28 496.997C108.349 496.997 94.3562 491.19 83.8036 480.595C73.063 469.811 67.297 455.48 67.5711 440.243C68.0963 410.988 92.0074 385.549 123.881 385.549C131.599 385.548 138.842 382.571 144.297 377.154C149.745 371.743 152.745 364.535 152.745 356.856V180.358C152.745 168.996 161.989 159.751 173.353 159.751H212.059V185.504C212.059 193.422 216.79 200.518 224.113 203.583C272.487 223.827 321.538 223.827 369.912 203.583C377.233 200.519 381.965 193.422 381.965 185.504V159.751H423.829C435.192 159.751 444.437 168.995 444.437 180.358V440.422C444.437 470.669 419.284 496.574 389.512 496.99C374.308 497.24 359.973 491.381 349.23 480.594C338.488 469.81 332.722 455.478 332.996 440.24C333.537 410.191 358.439 385.656 388.477 385.545C388.879 385.467 400.244 386.569 409.724 377.151C415.171 371.741 418.171 364.533 418.171 356.854V250.105C418.171 242.067 411.632 235.528 403.593 235.528H193.589C185.551 235.528 179.012 242.067 179.012 250.105V340.325C179.012 344.469 182.37 347.827 186.515 347.827C190.659 347.827 194.017 344.469 194.017 340.325V250.532H403.168V356.854C403.168 360.505 401.742 363.933 399.152 366.505C394.54 371.085 388.76 370.49 388.451 370.539C350.289 370.679 318.681 401.825 317.994 439.969C317.646 459.304 324.965 477.492 338.599 491.181C351.994 504.628 369.75 511.999 388.698 511.999C389.038 511.999 389.38 511.996 389.721 511.991C408.262 511.732 425.773 504.047 439.027 490.352C452.192 476.748 459.442 459.015 459.442 440.42V180.358C459.443 160.722 443.467 144.747 423.83 144.747V144.747ZM366.962 185.505C366.962 187.358 365.846 189.02 364.121 189.741C319.593 208.379 274.438 208.379 229.908 189.741C228.182 189.019 227.066 187.356 227.066 185.505V113.883C270.326 137.722 285.126 146.227 290.883 149.106C294.772 151.049 298.145 152.15 302.047 149.713L335.27 131.432V173.666C335.27 177.81 338.628 181.169 342.773 181.169C346.917 181.169 350.275 177.81 350.275 173.666V123.175L366.962 113.993V185.505Z" fill="black"/>
</g>
<defs>
<clipPath id="clip0">
<rect width="512" height="512" fill="white"/>
</clipPath>
</defs>
</svg>
