<svg width="512" height="512" viewBox="0 0 512 512" fill="none" xmlns="http://www.w3.org/2000/svg">
<path d="M18.973 127.638C12.637 127.638 7.50098 132.774 7.50098 139.11V362.244C7.50098 384.07 25.194 401.763 47.02 401.763H212.71C217.68 401.763 222.061 405.021 223.492 409.781L225.501 414.465C226.931 419.224 231.313 422.483 236.283 422.483H275.719C280.689 422.483 285.07 419.225 286.501 414.465L288.51 409.781C289.94 405.022 294.322 401.763 299.292 401.763H464.983C486.809 401.763 504.502 384.07 504.502 362.244V139.111C504.502 132.775 499.366 127.639 493.03 127.639H314.006L255.436 207.381L189.724 127.639H18.973V127.638Z" fill="#DD636E"/>
<path d="M493.028 127.638H468.186C474.522 127.638 479.658 132.774 479.658 139.11V362.244C479.658 384.07 461.965 401.763 440.139 401.763H464.981C486.807 401.763 504.5 384.07 504.5 362.244V139.111C504.5 132.775 499.364 127.638 493.028 127.638V127.638Z" fill="#C63D4F"/>
<path d="M456.222 358.356H281.723C267.517 358.356 256 346.84 256 332.633L226 320.953V156.615L256 143.874C256 113.854 280.336 89.5179 310.356 89.5179H456.221C459.986 89.5179 463.039 92.5699 463.039 96.3359V351.539C463.04 355.304 459.987 358.356 456.222 358.356V358.356Z" fill="#FFF6F4"/>
<path d="M456.222 89.517H433.321C437.086 89.517 440.139 92.569 440.139 96.335V351.538C440.139 355.303 437.087 358.356 433.321 358.356H456.222C459.987 358.356 463.04 355.304 463.04 351.538V96.335C463.04 92.57 459.987 89.517 456.222 89.517V89.517Z" fill="#D8E2F1"/>
<path d="M230.278 358.356H55.7789C52.0139 358.356 48.9609 355.304 48.9609 351.538V96.335C48.9609 92.57 52.0129 89.517 55.7789 89.517H201.644C231.664 89.517 256 113.853 256 143.873V332.633C256 346.84 244.484 358.356 230.278 358.356V358.356Z" fill="#FFF6F4"/>
<path d="M201.644 89.517H178.123C208.143 89.517 232.479 113.853 232.479 143.873V332.633C232.479 346.839 220.963 358.356 206.756 358.356H230.277C244.483 358.356 256 346.84 256 332.633V143.873C256 113.853 231.664 89.517 201.644 89.517Z" fill="#D8E2F1"/>
<path d="M92.9199 135.638V238.801H212.042L92.9199 135.638Z" fill="#F6E266"/>
<path d="M186.672 238.801H212.042L92.9199 135.638V157.609L186.672 238.801Z" fill="#ECBE6B"/>
<path d="M399.197 189.866C418.329 189.866 433.838 174.357 433.838 155.225C433.838 136.093 418.329 120.584 399.197 120.584C380.065 120.584 364.556 136.093 364.556 155.225C364.556 174.357 380.065 189.866 399.197 189.866Z" fill="#9DC6FB"/>
<path d="M399.197 120.584C396.001 120.584 392.909 121.026 389.97 121.836C404.621 125.876 415.384 139.289 415.384 155.225C415.384 171.161 404.621 184.574 389.97 188.614C392.909 189.424 396 189.866 399.197 189.866C418.329 189.866 433.838 174.357 433.838 155.225C433.838 136.093 418.329 120.584 399.197 120.584V120.584Z" fill="#8993DA"/>
<path d="M344.192 249.703H290.176C287.464 249.703 285.266 247.505 285.266 244.793V190.777C285.266 188.065 287.464 185.867 290.176 185.867H344.192C346.904 185.867 349.102 188.065 349.102 190.777V244.793C349.102 247.504 346.904 249.703 344.192 249.703Z" fill="#80E29D"/>
<path d="M344.192 185.866H326.316C329.028 185.866 331.226 188.064 331.226 190.776V244.792C331.226 247.504 329.028 249.702 326.316 249.702H344.192C346.904 249.702 349.102 247.504 349.102 244.792V190.776C349.103 188.064 346.904 185.866 344.192 185.866Z" fill="#66B49D"/>
<path d="M504.5 283.759C508.643 283.759 512 280.402 512 276.259V139.111C512 128.649 503.489 120.138 493.028 120.138H470.54V96.335C470.54 88.439 464.117 82.017 456.222 82.017H389.507C385.364 82.017 382.007 85.374 382.007 89.517C382.007 93.66 385.364 97.017 389.507 97.017H455.54V350.856H281.724C271.676 350.856 263.501 342.681 263.501 332.633V143.873C263.501 118.036 284.521 97.017 310.356 97.017H359.52C363.663 97.017 367.02 93.66 367.02 89.517C367.02 85.374 363.663 82.017 359.52 82.017H310.356C286.924 82.017 266.494 95.115 256 114.373C245.506 95.115 225.076 82.017 201.644 82.017H55.778C47.883 82.017 41.461 88.44 41.461 96.335V120.138H18.973C8.511 120.138 0 128.649 0 139.111V362.245C0 388.172 21.093 409.265 47.02 409.265H212.71C214.382 409.265 215.828 410.34 216.31 411.942C216.517 412.633 216.635 412.785 218.461 417.08C220.995 424.819 228.098 429.984 236.282 429.984H275.719C283.903 429.984 291.004 424.818 293.54 417.08C295.416 412.669 295.487 412.625 295.691 411.942C296.172 410.34 297.619 409.265 299.29 409.265H464.981C490.907 409.265 512 388.172 512 362.245V306.247C512 302.104 508.643 298.747 504.5 298.747C500.357 298.747 497 302.104 497 306.247V362.245C497 379.9 482.637 394.265 464.981 394.265H299.29C291.106 394.265 284.004 399.431 281.469 407.169C279.586 411.597 279.528 411.609 279.318 412.307C278.837 413.908 277.39 414.984 275.719 414.984H236.282C233.356 414.984 232.761 412.362 232.393 411.51L230.532 407.17C227.998 399.431 220.894 394.265 212.71 394.265H47.02C29.365 394.265 15 379.901 15 362.245V139.111C15 136.921 16.782 135.138 18.973 135.138H41.461V351.538C41.461 359.433 47.884 365.855 55.778 365.855H94.774C98.917 365.855 102.274 362.498 102.274 358.355C102.274 354.212 98.917 350.855 94.774 350.855H56.461V97.017H201.645C227.481 97.017 248.5 118.037 248.5 143.873V332.633C248.5 342.681 240.325 350.856 230.277 350.856H124.761C120.618 350.856 117.261 354.213 117.261 358.356C117.261 362.499 120.618 365.856 124.761 365.856H230.278C240.638 365.856 249.904 361.087 256.001 353.632C262.098 361.088 271.364 365.856 281.724 365.856H456.222C464.118 365.856 470.54 359.433 470.54 351.539V135.139H493.028C495.218 135.139 497 136.921 497 139.112V276.26C497 280.402 500.357 283.759 504.5 283.759V283.759Z" fill="black"/>
<path d="M248.5 386.474V390.983C248.5 395.126 251.857 398.483 256 398.483C260.143 398.483 263.5 395.126 263.5 390.983V386.474C263.5 382.331 260.143 378.974 256 378.974C251.857 378.974 248.5 382.332 248.5 386.474Z" fill="black"/>
<path d="M107.101 280.924C102.958 280.924 99.6011 284.281 99.6011 288.424C99.6011 292.567 102.958 295.924 107.101 295.924H194.438C198.581 295.924 201.938 292.567 201.938 288.424C201.938 284.281 198.581 280.924 194.438 280.924H107.101Z" fill="black"/>
<path d="M107.101 327.824H154.438C158.581 327.824 161.938 324.467 161.938 320.324C161.938 316.181 158.581 312.824 154.438 312.824H107.101C102.958 312.824 99.6011 316.181 99.6011 320.324C99.6011 324.467 102.958 327.824 107.101 327.824V327.824Z" fill="black"/>
<path d="M410.688 293.588C410.688 289.445 407.331 286.088 403.188 286.088H315.851C311.708 286.088 308.351 289.445 308.351 293.588C308.351 297.731 311.708 301.088 315.851 301.088H403.188C407.331 301.088 410.688 297.731 410.688 293.588Z" fill="black"/>
<path d="M315.852 317.988C311.709 317.988 308.352 321.345 308.352 325.488C308.352 329.631 311.709 332.988 315.852 332.988H363.189C367.332 332.988 370.689 329.631 370.689 325.488C370.689 321.345 367.332 317.988 363.189 317.988H315.852Z" fill="black"/>
<path d="M216.952 233.131L97.8299 129.968C92.9889 125.776 85.4199 129.215 85.4199 135.638V238.801C85.4199 242.944 88.7769 246.301 92.9199 246.301H212.042C218.972 246.301 222.186 237.666 216.952 233.131ZM100.42 231.301V152.055L191.926 231.301H100.42Z" fill="black"/>
<path d="M441.338 155.225C441.338 131.988 422.434 113.083 399.197 113.083C375.96 113.083 357.055 131.987 357.055 155.225C357.055 178.461 375.959 197.366 399.197 197.366C422.434 197.366 441.338 178.461 441.338 155.225ZM399.197 182.366C384.231 182.366 372.055 170.191 372.055 155.225C372.055 140.259 384.231 128.083 399.197 128.083C414.163 128.083 426.338 140.259 426.338 155.225C426.338 170.191 414.163 182.366 399.197 182.366Z" fill="black"/>
<path d="M356.603 244.792V190.775C356.603 183.932 351.036 178.365 344.193 178.365H290.176C283.333 178.365 277.766 183.932 277.766 190.775V244.792C277.766 251.635 283.333 257.202 290.176 257.202H344.193C351.035 257.203 356.603 251.635 356.603 244.792ZM341.603 242.203H292.766V193.366H341.603V242.203Z" fill="black"/>
</svg>
