<svg width="512" height="512" viewBox="0 0 512 512" fill="none" xmlns="http://www.w3.org/2000/svg">
<g clip-path="url(#clip0)">
<path d="M473.446 504.495H38.5526C30.8783 504.495 24.657 498.273 24.657 490.599V235.749L47.1906 215.735H461.677L487.343 235.749V490.599C487.343 498.273 481.122 504.495 473.446 504.495Z" fill="#FFF6F4"/>
<path d="M460.351 215.735V490.599C460.351 498.273 454.13 504.495 446.456 504.495H473.447C481.122 504.495 487.343 498.273 487.343 490.599V235.749L460.351 215.735Z" fill="#D8E2F1"/>
<path d="M473.446 170.539H38.5526C30.8783 170.539 24.657 176.76 24.657 184.435V235.749H487.343V184.435C487.343 176.76 481.122 170.539 473.446 170.539V170.539Z" fill="#9DC6FB"/>
<path d="M473.447 170.539H446.456C454.13 170.539 460.351 176.76 460.351 184.435V235.749H487.343V184.435C487.343 176.76 481.121 170.539 473.447 170.539Z" fill="#8993DA"/>
<path d="M326.027 196.733C279.342 216.271 232.657 216.271 185.971 196.733C181.467 194.848 178.521 190.454 178.521 185.571V73.3717H333.476V185.571C333.477 190.454 330.531 194.848 326.027 196.733Z" fill="#4A80AA"/>
<path d="M316.617 73.3717V178.381C316.617 183.264 313.671 187.659 309.167 189.543C266.997 207.19 224.829 208.893 182.66 194.66C183.63 195.508 184.74 196.217 185.97 196.732C232.656 216.269 279.341 216.269 326.026 196.732C330.53 194.847 333.476 190.453 333.476 185.57V73.3717H316.617Z" fill="#407093"/>
<path d="M376.036 77.9179C249.634 147.475 256.63 144.319 254.697 143.255L135.963 77.9179C134.098 76.8912 134.098 74.2103 135.963 73.1836L254.697 7.84645C255.508 7.40014 256.491 7.40014 257.302 7.84645L376.036 73.1836C377.902 74.2103 377.902 76.8912 376.036 77.9179Z" fill="#365E7D"/>
<path d="M376.036 73.1836L257.302 7.84645C256.491 7.40014 255.508 7.40014 254.697 7.84645L240.447 15.6879L344.931 73.1836C346.797 74.2103 346.797 76.8912 344.931 77.9179L240.447 135.414C254.236 142.537 255.02 144.51 257.302 143.255L376.036 77.9179C377.902 76.8912 377.902 74.2103 376.036 73.1836V73.1836Z" fill="#2B4D66"/>
<path d="M57.2535 195.638C53.1086 195.638 49.7483 198.998 49.7483 203.143C49.7483 207.289 53.1086 210.649 57.2535 210.649H63.6799C67.8248 210.649 71.1851 207.289 71.1851 203.143C71.1851 198.998 67.8248 195.638 63.6799 195.638H57.2535Z" fill="black"/>
<path d="M89.9771 210.649H96.4036C100.548 210.649 103.909 207.289 103.909 203.143C103.909 198.998 100.548 195.638 96.4036 195.638H89.9771C85.8322 195.638 82.4719 198.998 82.4719 203.143C82.4719 207.289 85.8322 210.649 89.9771 210.649Z" fill="black"/>
<path d="M129.127 210.649C133.272 210.649 136.632 207.289 136.632 203.143C136.632 198.998 133.272 195.638 129.127 195.638H122.701C118.556 195.638 115.196 198.998 115.196 203.143C115.196 207.289 118.556 210.649 122.701 210.649H129.127Z" fill="black"/>
<path d="M81.8206 274.797C78.9776 271.781 74.2284 271.638 71.2113 274.483L55.3203 289.457C53.8152 290.875 52.9626 292.851 52.9626 294.919C52.9626 296.986 53.8162 298.963 55.3203 300.381L71.2113 315.355C74.2484 318.217 78.9966 318.037 81.8206 315.041C84.6636 312.024 84.5225 307.273 81.5054 304.431L71.4104 294.919L81.5054 285.406C84.5225 282.564 84.6636 277.813 81.8206 274.797V274.797Z" fill="black"/>
<path d="M124.917 315.04C127.746 318.041 132.494 318.212 135.527 315.354L151.418 300.38C152.923 298.962 153.775 296.985 153.775 294.918C153.775 292.85 152.922 290.874 151.418 289.456L135.527 274.482C132.511 271.639 127.759 271.781 124.917 274.796C122.074 277.813 122.215 282.563 125.232 285.405L135.327 294.918L125.232 304.43C122.215 307.272 122.074 312.023 124.917 315.04V315.04Z" fill="black"/>
<path d="M102.495 313.39L118.27 283.441C120.201 279.773 118.794 275.235 115.127 273.303C111.46 271.373 106.92 272.78 104.989 276.446L89.2138 306.395C87.2824 310.062 88.6894 314.601 92.3569 316.533C96.0475 318.475 100.576 317.036 102.495 313.39V313.39Z" fill="black"/>
<path d="M215.972 302.387H180.112C175.967 302.387 172.606 305.746 172.606 309.892C172.606 314.038 175.967 317.397 180.112 317.397H215.972C220.117 317.397 223.478 314.038 223.478 309.892C223.478 305.746 220.117 302.387 215.972 302.387V302.387Z" fill="black"/>
<path d="M300.575 302.387H244.7C240.555 302.387 237.195 305.746 237.195 309.892C237.195 314.038 240.555 317.397 244.7 317.397H300.575C304.721 317.397 308.08 314.038 308.08 309.892C308.08 305.746 304.721 302.387 300.575 302.387Z" fill="black"/>
<path d="M60.4669 356.94H156.664C160.809 356.94 164.17 353.58 164.17 349.435C164.17 345.289 160.809 341.929 156.664 341.929H60.4669C56.322 341.929 52.9617 345.289 52.9617 349.435C52.9617 353.58 56.322 356.94 60.4669 356.94V356.94Z" fill="black"/>
<path d="M60.4669 393.894H106.63C110.775 393.894 114.135 390.535 114.135 386.389C114.135 382.243 110.775 378.884 106.63 378.884H60.4669C56.322 378.884 52.9617 382.243 52.9617 386.389C52.9617 390.535 56.322 393.894 60.4669 393.894Z" fill="black"/>
<path d="M60.4669 430.85H136.651C140.795 430.85 144.156 427.491 144.156 423.345C144.156 419.199 140.795 415.839 136.651 415.839H60.4669C56.322 415.839 52.9617 419.199 52.9617 423.345C52.9617 427.491 56.322 430.85 60.4669 430.85V430.85Z" fill="black"/>
<path d="M86.6159 452.795H60.4669C56.322 452.795 52.9617 456.154 52.9617 460.3C52.9617 464.446 56.322 467.805 60.4669 467.805H86.6159C90.7608 467.805 94.1211 464.446 94.1211 460.3C94.1211 456.154 90.7608 452.795 86.6159 452.795Z" fill="black"/>
<path d="M186.447 341.929C182.302 341.929 178.942 345.289 178.942 349.435C178.942 353.58 182.302 356.94 186.447 356.94H232.61C236.755 356.94 240.115 353.58 240.115 349.435C240.115 345.289 236.755 341.929 232.61 341.929H186.447Z" fill="black"/>
<path d="M259.309 356.94H285.458C289.604 356.94 292.964 353.58 292.964 349.435C292.964 345.289 289.604 341.929 285.458 341.929H259.309C255.165 341.929 251.804 345.289 251.804 349.435C251.804 353.58 255.165 356.94 259.309 356.94Z" fill="black"/>
<path d="M395.178 349.435C395.178 345.289 391.819 341.929 387.673 341.929H311.488C307.342 341.929 303.983 345.289 303.983 349.435C303.983 353.58 307.342 356.94 311.488 356.94H387.673C391.819 356.94 395.178 353.579 395.178 349.435Z" fill="black"/>
<path d="M123.624 386.389C123.624 390.535 126.984 393.894 131.129 393.894H232.61C236.755 393.894 240.115 390.535 240.115 386.389C240.115 382.243 236.755 378.884 232.61 378.884H131.129C126.984 378.884 123.624 382.244 123.624 386.389V386.389Z" fill="black"/>
<path d="M259.309 393.894H322.48C326.626 393.894 329.985 390.535 329.985 386.389C329.985 382.243 326.626 378.884 322.48 378.884H259.309C255.165 378.884 251.804 382.243 251.804 386.389C251.804 390.535 255.165 393.894 259.309 393.894Z" fill="black"/>
<path d="M163.669 415.839C159.524 415.839 156.164 419.199 156.164 423.345C156.164 427.491 159.524 430.85 163.669 430.85H251.077C255.222 430.85 258.582 427.491 258.582 423.345C258.582 419.199 255.222 415.839 251.077 415.839H163.669Z" fill="black"/>
<path d="M270.135 423.345C270.135 427.491 273.494 430.85 277.64 430.85H349.582C353.728 430.85 357.087 427.491 357.087 423.345C357.087 419.199 353.728 415.839 349.582 415.839H277.64C273.495 415.839 270.135 419.2 270.135 423.345Z" fill="black"/>
<path d="M111.629 467.805H228.62C232.765 467.805 236.125 464.446 236.125 460.3C236.125 456.154 232.765 452.795 228.62 452.795H111.629C107.484 452.795 104.124 456.154 104.124 460.3C104.124 464.446 107.484 467.805 111.629 467.805V467.805Z" fill="black"/>
<path d="M254.306 467.805H381.213C385.359 467.805 388.719 464.446 388.719 460.3C388.719 456.154 385.359 452.795 381.213 452.795H254.306C250.161 452.795 246.801 456.154 246.801 460.3C246.801 464.446 250.16 467.805 254.306 467.805Z" fill="black"/>
<path d="M473.446 163.034H340.982V105.773L379.653 84.4924C382.916 82.6992 384.941 79.2718 384.941 75.5492C384.941 71.8267 382.916 68.3993 379.655 66.606L324.687 36.3571C321.052 34.3597 316.491 35.6837 314.491 39.3142C312.494 42.9457 313.817 47.5098 317.448 49.5092L364.769 75.5482C352.368 82.3729 316.01 102.379 302.948 109.567L261.153 70.0925C258.138 67.2455 253.387 67.3796 250.542 70.3957C247.696 73.4087 247.832 78.159 250.845 81.005L289.136 117.169L255.964 135.423C248.884 131.769 221.466 116.079 147.258 75.5332L255.999 15.6938L290.796 34.8431C294.43 36.8405 298.992 35.5165 300.991 31.886C302.988 28.2535 301.666 23.6904 298.034 21.691L260.922 1.27187C257.839 -0.423302 254.159 -0.423302 251.079 1.27087L132.347 66.608C129.085 68.4013 127.06 71.8287 127.06 75.5512C127.06 79.2738 129.085 82.7012 132.369 84.5054C147.001 92.4919 159.794 99.4998 171.018 105.665V163.035H101.62C97.4754 163.035 94.1151 166.394 94.1151 170.54C94.1151 174.686 97.4754 178.045 101.62 178.045H171.018V185.571C171.018 193.493 175.752 200.592 183.076 203.656C207.273 213.783 231.633 218.846 256.001 218.845C280.363 218.844 304.733 213.781 328.924 203.656C336.249 200.592 340.983 193.493 340.983 185.571V178.045H473.447C476.971 178.045 479.839 180.911 479.839 184.436V228.245H32.1622V184.436C32.1622 180.912 35.0292 178.045 38.5527 178.045H71.6125C75.7574 178.045 79.1177 174.686 79.1177 170.54C79.1177 166.394 75.7574 163.035 71.6125 163.035H38.5527C26.7525 163.035 17.1519 172.635 17.1519 184.436V490.599C17.1519 502.399 26.7525 512 38.5527 512H82.376C86.5208 512 89.8811 508.641 89.8811 504.495C89.8811 500.349 86.5208 496.99 82.376 496.99H38.5527C35.0292 496.99 32.1622 494.124 32.1622 490.599V243.254H479.838V490.599C479.838 494.123 476.971 496.99 473.446 496.99H112.384C108.239 496.99 104.879 500.349 104.879 504.495C104.879 508.641 108.239 512 112.384 512H473.446C485.248 512 494.848 502.399 494.848 490.599V184.435C494.848 172.634 485.248 163.034 473.446 163.034V163.034ZM325.971 185.571C325.971 187.424 324.857 189.087 323.129 189.808C278.585 208.452 233.413 208.452 188.869 189.808C187.142 189.086 186.028 187.423 186.028 185.571V113.923C229.785 138.035 244.07 146.26 249.865 149.157C253.763 151.106 257.129 152.204 261.032 149.768L294.268 131.479V176.729C294.268 180.875 297.628 184.234 301.774 184.234C305.92 184.234 309.279 180.875 309.279 176.729V123.219L325.971 114.034V185.571Z" fill="black"/>
</g>
<defs>
<clipPath id="clip0">
<rect width="512" height="512" fill="white"/>
</clipPath>
</defs>
</svg>
