<svg id="Capa_1" enable-background="new 0 0 511.986 511.986" height="512" viewBox="0 0 511.986 511.986" width="512" xmlns="http://www.w3.org/2000/svg"><g><g><path d="m474.399 79.154-.886-2.703h-33.064c-1.447 4.414-11.938 36.432-13.4 40.892l2.58 3.233h55.5l1.783-3.233z" fill="#dbedff"/><path d="m470.381 76.451h-29.932c-1.447 4.414-11.938 36.432-13.4 40.892l2.58 3.233h29.932l-2.58-3.233c1.461-4.46 11.953-36.477 13.4-40.892z" fill="#b5dcff"/><path d="m427.049 421.076h59.863v34.333h-59.863z" fill="#dbedff"/><path d="m427.049 421.076h29.932v34.333h-29.932z" fill="#b5dcff"/><g><path d="m381.42 7.155h-256.784l-99.935 99.935v381.947c0 8.342 6.762 15.104 15.103 15.104h341.616c8.341 0 15.103-6.762 15.103-15.104v-466.779c.001-8.341-6.761-15.103-15.103-15.103z" fill="#dbedff"/><path d="m65.035 489.038v-374.821c0-3.081.844-6.068 2.374-8.682h-41.153l-1.555 1.555v381.947c0 8.342 6.762 15.104 15.104 15.104h40.333c-8.341 0-15.103-6.762-15.103-15.103z" fill="#b5dcff"/><path d="m24.701 107.09h84.831c8.341 0 15.103-6.762 15.103-15.103v-84.832z" fill="#b5dcff"/><path d="m124.636 7.155-99.935 99.935h42l57.935-57.935z" fill="#8bcaff"/></g><path d="m427.049 117.343h31.955v305.51h-31.955z" fill="#fcc101"/><path d="m456.981 117.343h29.932v305.51h-29.932z" fill="#f4dd45"/><path d="m427.049 453.816v20.393c0 16.531 13.401 29.932 29.932 29.932s29.932-13.401 29.932-29.932v-20.393z" fill="#f87c68"/><path d="m456.981 474.21v-20.393h-29.932v20.393c0 16.531 13.401 29.932 29.932 29.932 5.454 0 10.562-1.466 14.966-4.014-8.944-5.177-14.966-14.841-14.966-25.918z" fill="#ec625e"/><path d="m450.109 46.971-10.546 32.183h34.836l-10.546-32.183c-2.176-6.64-11.568-6.64-13.744 0z" fill="#477b9e"/></g><g><path d="m90.281 155.877c0 4.142 3.357 7.5 7.5 7.5h226.035c4.143 0 7.5-3.358 7.5-7.5s-3.357-7.5-7.5-7.5h-226.035c-4.142 0-7.5 3.358-7.5 7.5z"/><path d="m97.781 201.565h226.035c4.143 0 7.5-3.358 7.5-7.5s-3.357-7.5-7.5-7.5h-226.035c-4.143 0-7.5 3.358-7.5 7.5s3.358 7.5 7.5 7.5z"/><path d="m257.863 125.188c4.143 0 7.5-3.358 7.5-7.5s-3.357-7.5-7.5-7.5h-94.13c-4.143 0-7.5 3.358-7.5 7.5s3.357 7.5 7.5 7.5z"/><path d="m97.781 239.754h226.035c4.143 0 7.5-3.358 7.5-7.5s-3.357-7.5-7.5-7.5h-226.035c-4.143 0-7.5 3.358-7.5 7.5s3.358 7.5 7.5 7.5z"/><path d="m97.781 277.943h226.035c4.143 0 7.5-3.358 7.5-7.5s-3.357-7.5-7.5-7.5h-226.035c-4.143 0-7.5 3.358-7.5 7.5s3.358 7.5 7.5 7.5z"/><path d="m97.781 316.132h226.035c4.143 0 7.5-3.358 7.5-7.5s-3.357-7.5-7.5-7.5h-226.035c-4.143 0-7.5 3.358-7.5 7.5s3.358 7.5 7.5 7.5z"/><path d="m97.781 354.32h226.035c4.143 0 7.5-3.358 7.5-7.5s-3.357-7.5-7.5-7.5h-226.035c-4.143 0-7.5 3.358-7.5 7.5s3.358 7.5 7.5 7.5z"/><path d="m97.781 392.509h226.035c4.143 0 7.5-3.358 7.5-7.5s-3.357-7.5-7.5-7.5h-226.035c-4.143 0-7.5 3.358-7.5 7.5s3.358 7.5 7.5 7.5z"/><path d="m97.781 430.698h226.035c4.143 0 7.5-3.358 7.5-7.5s-3.357-7.5-7.5-7.5h-226.035c-4.143 0-7.5 3.358-7.5 7.5s3.358 7.5 7.5 7.5z"/><path d="m17.388 489.382c0 12.464 10.14 22.604 22.604 22.604h153.308c4.143 0 7.5-3.358 7.5-7.5s-3.357-7.5-7.5-7.5h-153.309c-4.192 0-7.604-3.411-7.604-7.604v-374.447h77.331c12.464 0 22.604-10.14 22.604-22.604v-77.331h249.284c4.192 0 7.604 3.411 7.604 7.604v466.779c0 4.193-3.411 7.604-7.604 7.604h-153.307c-4.143 0-7.5 3.358-7.5 7.5s3.357 7.5 7.5 7.5h153.308c12.464 0 22.604-10.14 22.604-22.604v-466.779c-.001-12.464-10.141-22.604-22.605-22.604h-256.784c-2.062 0-3.956.849-5.304 2.197l-99.935 99.935c-1.437 1.438-2.196 3.374-2.196 5.303v381.947zm92.331-389.447h-66.725c10.789-10.789 63.563-63.564 74.328-74.329v66.725c0 4.193-3.411 7.604-7.603 7.604z"/><path d="m487.099 263.493c4.143 0 7.5-3.358 7.5-7.5v-138.305c0-.746-.118-1.543-.366-2.31-.003-.008-.004-.017-.007-.025-14.018-42.778-6.59-20.112-23.06-70.372-2.02-6.162-7.515-10.144-13.999-10.144s-11.979 3.982-13.999 10.144c-16.473 50.272-9.042 27.593-23.06 70.372-.003.008-.004.017-.007.025-.246.761-.366 1.559-.366 2.31v356.867c0 20.64 16.792 37.432 37.432 37.432s37.432-16.792 37.432-37.432c0-7.145 0-173.237 0-183.562 0-4.142-3.357-7.5-7.5-7.5s-7.5 3.358-7.5 7.5v124.705h-14.932v-290.51h14.932v130.805c0 4.142 3.357 7.5 7.5 7.5zm-29.932-213.063 7.068 21.57h-14.137zm22.432 424.125c0 12.369-10.062 22.432-22.432 22.432s-22.432-10.063-22.432-22.432v-12.893h44.863v12.893zm0-43.857v15.964h-44.863v-15.964zm-29.932-15h-14.932v-290.51h14.932zm-12.082-305.51 7.599-23.188h23.967l7.599 23.188c-14.173 0-24.993 0-39.165 0z"/></g></g></svg>