<svg width="512" height="512" viewBox="0 0 512 512" fill="none" xmlns="http://www.w3.org/2000/svg">
<path d="M18.973 164.267C12.637 164.267 7.50098 169.403 7.50098 175.739V398.873C7.50098 420.699 25.194 438.392 47.02 438.392H212.71C217.68 438.392 222.061 441.65 223.492 446.41L225.501 451.094C226.931 455.853 231.313 459.112 236.283 459.112H275.719C280.689 459.112 285.07 455.854 286.501 451.094L288.51 446.41C289.94 441.651 294.322 438.392 299.292 438.392H464.983C486.809 438.392 504.502 420.699 504.502 398.873V175.74C504.502 169.404 499.366 164.268 493.03 164.268H314.006L255.436 244.01L189.724 164.268H18.973V164.267Z" fill="#9DC6FB"/>
<path d="M493.028 164.267H468.186C474.522 164.267 479.658 169.403 479.658 175.739V398.873C479.658 420.699 461.965 438.392 440.139 438.392H464.981C486.807 438.392 504.5 420.699 504.5 398.873V175.74C504.5 169.404 499.364 164.267 493.028 164.267V164.267Z" fill="#8993DA"/>
<path d="M456.222 394.985H281.723C267.517 394.985 256 383.469 256 369.262L226 357.582V193.244L256 180.503C256 150.483 280.336 126.147 310.356 126.147H456.221C459.986 126.147 463.039 129.199 463.039 132.965V388.168C463.04 391.933 459.987 394.985 456.222 394.985V394.985Z" fill="#FFF6F4"/>
<path d="M456.222 126.146H433.321C437.086 126.146 440.139 129.198 440.139 132.964V388.167C440.139 391.932 437.087 394.985 433.321 394.985H456.222C459.987 394.985 463.04 391.933 463.04 388.167V132.964C463.04 129.199 459.987 126.146 456.222 126.146V126.146Z" fill="#D8E2F1"/>
<path d="M230.278 394.985H55.7789C52.0139 394.985 48.9609 391.933 48.9609 388.167V132.964C48.9609 129.199 52.0129 126.146 55.7789 126.146H201.644C231.664 126.146 256 150.482 256 180.502V369.262C256 383.469 244.484 394.985 230.278 394.985V394.985Z" fill="#FFF6F4"/>
<path d="M201.644 126.146H178.123C208.143 126.146 232.479 150.482 232.479 180.502V369.262C232.479 383.468 220.963 394.985 206.756 394.985H230.277C244.483 394.985 256 383.469 256 369.262V180.502C256 150.482 231.664 126.146 201.644 126.146V126.146Z" fill="#D8E2F1"/>
<path d="M339.491 52.8879H102.018C95.1069 52.8879 89.5049 58.4899 89.5049 65.4009V177.604C89.5049 184.514 95.1069 190.117 102.018 190.117H295.218C296.903 190.117 298.459 191.016 299.302 192.475L310.086 211.153C311.901 214.296 316.438 214.297 318.253 211.153L329.037 192.475C329.879 191.016 331.436 190.117 333.121 190.117H339.493C346.404 190.117 352.006 184.515 352.006 177.604V65.4009C352.004 58.4899 346.401 52.8879 339.491 52.8879V52.8879Z" fill="#DD636E"/>
<path d="M339.491 52.8879H317.712C324.623 52.8879 330.225 58.4899 330.225 65.4009V177.604C330.225 184.514 324.623 190.117 317.712 190.117H311.34C309.655 190.117 308.099 191.016 307.257 192.475L303.279 199.365L310.085 211.153C311.9 214.296 316.437 214.296 318.252 211.153L329.036 192.475C329.878 191.016 331.435 190.117 333.119 190.117H339.491C346.402 190.117 352.004 184.515 352.004 177.604V65.4009C352.004 58.4899 346.401 52.8879 339.491 52.8879V52.8879Z" fill="#C63D4F"/>
<path d="M504.5 320.389C508.643 320.389 512 317.032 512 312.889V175.739C512 165.278 503.489 156.767 493.028 156.767H470.54V132.963C470.54 125.068 464.117 118.646 456.222 118.646H359.504V65.4C359.504 54.365 350.526 45.387 339.491 45.387H298.805C294.662 45.387 291.305 48.744 291.305 52.887C291.305 57.03 294.662 60.387 298.805 60.387H339.491C342.255 60.387 344.504 62.636 344.504 65.4V177.603C344.504 180.367 342.255 182.616 339.491 182.616H333.119C328.769 182.616 324.717 184.956 322.54 188.723L314.168 203.224L305.797 188.725C303.623 184.956 299.569 182.616 295.218 182.616H102.018C99.254 182.616 97.005 180.367 97.005 177.603V65.4C97.005 62.636 99.254 60.387 102.019 60.387H268.819C272.962 60.387 276.319 57.03 276.319 52.887C276.319 48.744 272.962 45.387 268.819 45.387H102.019C90.984 45.387 82.005 54.365 82.005 65.4V118.646H55.778C47.883 118.646 41.461 125.069 41.461 132.963V156.767H18.973C8.511 156.768 0 165.278 0 175.739V398.874C0 424.801 21.093 445.894 47.02 445.894H212.71C214.382 445.894 215.828 446.969 216.31 448.571C216.517 449.262 216.635 449.414 218.461 453.709C220.995 461.448 228.098 466.613 236.282 466.613H275.719C283.903 466.613 291.004 461.447 293.54 453.709C295.416 449.298 295.487 449.254 295.691 448.571C296.172 446.969 297.619 445.894 299.29 445.894H464.981C490.907 445.894 512 424.801 512 398.874V342.875C512 338.732 508.643 335.375 504.5 335.375C500.357 335.375 497 338.732 497 342.875V398.874C497 416.529 482.637 430.894 464.981 430.894H299.29C291.106 430.894 284.004 436.06 281.469 443.798L279.608 448.139C279.328 448.793 278.73 451.613 275.719 451.613H236.282C234.61 451.613 233.165 450.538 232.683 448.937C232.479 448.255 232.418 448.232 230.532 443.799C227.998 436.06 220.894 430.894 212.71 430.894H47.02C29.365 430.894 15 416.53 15 398.874V175.739C15 173.549 16.782 171.767 18.973 171.767H41.461V388.167C41.461 396.062 47.884 402.484 55.778 402.484H94.774C98.917 402.484 102.274 399.127 102.274 394.984C102.274 390.841 98.917 387.484 94.774 387.484H56.461V133.646H82.005V177.603C82.005 188.638 90.983 197.616 102.018 197.616H248.5V369.262C248.5 379.31 240.325 387.485 230.277 387.485H124.761C120.618 387.485 117.261 390.842 117.261 394.985C117.261 399.128 120.618 402.485 124.761 402.485H230.278C240.638 402.485 249.903 397.716 256.001 390.261C262.098 397.716 271.363 402.485 281.724 402.485H456.223C464.119 402.485 470.541 396.062 470.541 388.168V171.768H493.029C495.219 171.768 497.001 173.549 497.001 175.74V312.889C497 317.031 500.357 320.389 504.5 320.389V320.389ZM455.54 387.485H281.723C271.675 387.485 263.5 379.31 263.5 369.262V197.616H293.609L303.588 214.9C308.291 223.047 320.049 223.034 324.746 214.901L334.725 197.616H339.49C345.282 197.616 350.491 195.128 354.148 191.182H417.225C421.368 191.182 424.725 187.825 424.725 183.682C424.725 179.539 421.368 176.182 417.225 176.182H359.502V133.646H455.538V387.485H455.54Z" fill="black"/>
<path d="M417.227 227.438H301.813C297.67 227.438 294.313 230.795 294.313 234.938C294.313 239.081 297.67 242.438 301.813 242.438H417.226C421.369 242.438 424.726 239.081 424.726 234.938C424.726 230.795 421.369 227.438 417.227 227.438Z" fill="black"/>
<path d="M417.227 278.693H301.813C297.67 278.693 294.313 282.05 294.313 286.193C294.313 290.336 297.67 293.693 301.813 293.693H417.226C421.369 293.693 424.726 290.336 424.726 286.193C424.726 282.05 421.369 278.693 417.227 278.693Z" fill="black"/>
<path d="M417.227 329.949H301.813C297.67 329.949 294.313 333.306 294.313 337.449C294.313 341.592 297.67 344.949 301.813 344.949H417.226C421.369 344.949 424.726 341.592 424.726 337.449C424.726 333.306 421.369 329.949 417.227 329.949Z" fill="black"/>
<path d="M94.7739 242.438H210.187C214.33 242.438 217.687 239.081 217.687 234.938C217.687 230.795 214.33 227.438 210.187 227.438H94.7739C90.6309 227.438 87.2739 230.795 87.2739 234.938C87.2739 239.081 90.6319 242.438 94.7739 242.438V242.438Z" fill="black"/>
<path d="M94.7739 293.693H210.187C214.33 293.693 217.687 290.336 217.687 286.193C217.687 282.05 214.33 278.693 210.187 278.693H94.7739C90.6309 278.693 87.2739 282.05 87.2739 286.193C87.2739 290.336 90.6319 293.693 94.7739 293.693V293.693Z" fill="black"/>
<path d="M94.7739 344.949H210.187C214.33 344.949 217.687 341.592 217.687 337.449C217.687 333.306 214.33 329.949 210.187 329.949H94.7739C90.6309 329.949 87.2739 333.306 87.2739 337.449C87.2739 341.592 90.6319 344.949 94.7739 344.949V344.949Z" fill="black"/>
<path d="M248.5 423.104V427.612C248.5 431.755 251.857 435.112 256 435.112C260.143 435.112 263.5 431.755 263.5 427.612V423.104C263.5 418.961 260.143 415.604 256 415.604C251.857 415.604 248.5 418.961 248.5 423.104Z" fill="black"/>
<path d="M156.944 92.6589C155.59 89.3739 152.423 87.2529 148.871 87.2529H148.858C145.3 87.2579 142.132 89.3889 140.788 92.6819C140.766 92.7379 140.744 92.7919 140.723 92.8479L120.332 146.385C118.857 150.256 120.801 154.589 124.671 156.064C128.541 157.54 132.875 155.596 134.35 151.725L137.589 143.221H159.997L163.198 151.703C164.662 155.583 168.992 157.532 172.863 156.071C176.738 154.609 178.694 150.282 177.231 146.406L157.026 92.8659C157 92.7969 156.973 92.7279 156.944 92.6589V92.6589ZM143.302 128.221L148.844 113.669L154.336 128.221H143.302Z" fill="black"/>
<path d="M218.709 86.449H202.936C198.793 86.449 195.436 89.806 195.436 93.949V148.252C195.436 150.247 196.231 152.159 197.644 153.567C199.05 154.966 200.953 155.752 202.936 155.752H202.969C202.969 155.752 217.467 155.688 221.464 155.688C233.659 155.688 243.58 145.766 243.58 133.571C243.58 126.846 240.559 120.817 235.807 116.757C237.633 113.741 238.704 110.22 238.704 106.445C238.704 95.419 229.734 86.449 218.709 86.449V86.449ZM218.709 101.449C221.463 101.449 223.704 103.69 223.704 106.444C223.704 109.198 221.463 111.439 218.709 111.439C218.602 111.439 217.948 111.438 210.436 111.454V101.449H218.709ZM221.464 140.688C219.419 140.688 214.635 140.705 210.436 140.721V126.464C214.841 126.447 215.027 126.459 221.464 126.455C225.388 126.455 228.58 129.647 228.58 133.571C228.58 137.495 225.388 140.688 221.464 140.688V140.688Z" fill="black"/>
<path d="M297.063 101.449C301.001 101.449 304.798 102.608 308.046 104.802C311.479 107.119 316.14 106.215 318.459 102.783C320.776 99.35 319.873 94.688 316.44 92.37C310.704 88.497 304.003 86.449 297.062 86.449C277.956 86.449 262.411 101.994 262.411 121.1C262.411 140.206 277.956 155.751 297.062 155.751C304.718 155.751 311.595 153.23 316.952 148.46C318.003 147.523 319 146.495 319.916 145.403C322.576 142.228 322.159 137.498 318.984 134.837C315.809 132.178 311.079 132.595 308.418 135.769C307.97 136.305 307.484 136.806 306.976 137.259C304.374 139.576 301.038 140.751 297.063 140.751C286.227 140.751 277.412 131.936 277.412 121.1C277.412 110.264 286.228 101.449 297.063 101.449V101.449Z" fill="black"/>
</svg>
