<svg width="512" height="512" viewBox="0 0 512 512" fill="none" xmlns="http://www.w3.org/2000/svg">
<g clip-path="url(#clip0)">
<path d="M357.389 200.423H154.61V108.89C154.61 52.894 200.004 7.5 256 7.5C311.996 7.5 357.389 52.894 357.389 108.889V200.423Z" fill="#9DC6FB"/>
<path d="M256 7.5C252.004 7.5 248.064 7.739 244.188 8.189C294.618 14.041 333.766 56.89 333.766 108.89V200.423H357.39V108.89C357.389 52.894 311.996 7.5 256 7.5Z" fill="#8993DA"/>
<path d="M428.038 394.494H83.9609V224.004C83.9609 199.935 103.473 180.423 127.542 180.423H384.457C408.526 180.423 428.038 199.935 428.038 224.004V394.494Z" fill="#DD636E"/>
<path d="M384.457 180.423H363.06C387.129 180.423 406.641 199.935 406.641 224.004V394.494H428.038V224.004C428.038 199.935 408.527 180.423 384.457 180.423Z" fill="#C63D4F"/>
<path d="M354.022 372.859H157.978C151.579 372.859 146.392 367.672 146.392 361.273V267.587C146.392 261.188 151.579 256.001 157.978 256.001H354.022C360.421 256.001 365.608 261.188 365.608 267.587V361.273C365.608 367.671 360.421 372.859 354.022 372.859V372.859Z" fill="#D3EFFB"/>
<path d="M354.022 256H331.727C338.126 256 343.313 261.187 343.313 267.586V361.272C343.313 367.671 338.126 372.858 331.727 372.858H354.022C360.421 372.858 365.608 367.671 365.608 361.272V267.586C365.608 261.187 360.421 256 354.022 256Z" fill="#B1E4F9"/>
<path d="M256 504.5C188.8 485.438 121.6 485.438 54.4 504.5V302.291C121.6 283.548 188.8 283.548 256 302.291V504.5Z" fill="#9DC6FB"/>
<path d="M237.138 297.523V499.651C243.425 501.101 249.713 502.717 256 504.5V302.291C249.712 300.538 243.425 298.948 237.138 297.523Z" fill="#8993DA"/>
<path d="M67.655 438.547H41.292C37.009 438.547 33.538 435.075 33.538 430.793V361.942C33.538 357.659 37.01 354.188 41.292 354.188H67.655C71.938 354.188 75.409 357.66 75.409 361.942V430.793C75.409 435.075 71.938 438.547 67.655 438.547Z" fill="#DD636E"/>
<path d="M67.655 354.187H49.718C54.001 354.187 57.472 357.659 57.472 361.941V430.792C57.472 435.075 54 438.546 49.718 438.546H67.655C71.938 438.546 75.409 435.074 75.409 430.792V361.941C75.409 357.659 71.938 354.187 67.655 354.187Z" fill="#C63D4F"/>
<path d="M256 504.5C323.2 485.438 390.4 485.438 457.6 504.5V302.291C390.4 283.548 323.2 283.548 256 302.291V504.5Z" fill="#9DC6FB"/>
<path d="M440.224 297.873V500.007C446.016 501.367 451.808 502.858 457.6 504.501V302.291C451.808 300.676 446.016 299.21 440.224 297.873V297.873Z" fill="#8993DA"/>
<path d="M444.344 438.547H470.707C474.99 438.547 478.461 435.075 478.461 430.793V361.942C478.461 357.659 474.989 354.188 470.707 354.188H444.344C440.061 354.188 436.59 357.66 436.59 361.942V430.793C436.59 435.075 440.062 438.547 444.344 438.547Z" fill="#DD636E"/>
<path d="M470.708 354.187H453.937C458.22 354.187 461.691 357.659 461.691 361.941V430.792C461.691 435.075 458.219 438.546 453.937 438.546H470.708C474.991 438.546 478.462 435.074 478.462 430.792V361.941C478.462 357.659 474.99 354.187 470.708 354.187Z" fill="#C63D4F"/>
<path d="M298.53 339.307H415.07V379.701H298.53V339.307Z" fill="#FFF6F4"/>
<path d="M396.247 339.307H415.07V379.701H396.247V339.307Z" fill="#D8E2F1"/>
<path d="M322.789 142.297C278.321 157.532 233.854 157.532 189.386 142.297V83.124H322.789V142.297Z" fill="#FFF6F4"/>
<path d="M303.937 83.123V147.831C310.221 146.287 316.505 144.449 322.789 142.296V83.123H303.937Z" fill="#D8E2F1"/>
<path d="M470.707 346.688H465.1V302.292C465.1 298.926 462.858 295.972 459.615 295.067C451.602 292.832 443.575 290.87 435.539 289.16V224.004C435.539 195.838 412.624 172.923 384.458 172.923H364.89V135.227H373.514V138.176C373.514 142.319 376.871 145.676 381.014 145.676C385.157 145.676 388.514 142.319 388.514 138.176V117.279C388.514 113.136 385.157 109.779 381.014 109.779C376.871 109.779 373.514 113.136 373.514 117.279V120.227H364.89V108.89C364.889 48.848 316.041 0 255.999 0C232.141 0 209.484 7.578 190.48 21.915C187.173 24.409 186.515 29.112 189.01 32.419C191.504 35.727 196.206 36.385 199.514 33.89C215.895 21.532 235.428 15 256 15C307.771 15 349.889 57.119 349.889 108.89V172.923H162.11V108.89C162.11 88.903 168.31 69.82 180.041 53.704C182.479 50.354 181.74 45.664 178.391 43.226C175.042 40.788 170.352 41.528 167.913 44.875C154.304 63.572 147.11 85.708 147.11 108.889V120.226H138.486V117.278C138.486 113.135 135.128 109.778 130.986 109.778C126.844 109.778 123.486 113.135 123.486 117.278V138.175C123.486 142.318 126.844 145.675 130.986 145.675C135.128 145.675 138.486 142.318 138.486 138.175V135.226H147.11V172.922H127.542C99.375 172.922 76.46 195.837 76.46 224.003V289.159C68.424 290.869 60.397 292.831 52.384 295.066C49.142 295.97 46.899 298.924 46.899 302.291V346.687H41.291C32.88 346.687 26.037 353.53 26.037 361.941V386.017C26.037 390.16 29.395 393.517 33.537 393.517C37.679 393.517 41.037 390.16 41.037 386.017V361.941C41.037 361.801 41.151 361.687 41.291 361.687H67.654C67.794 361.687 67.908 361.801 67.908 361.941V430.792C67.908 430.933 67.794 431.047 67.654 431.047H41.292C41.152 431.047 41.038 430.933 41.038 430.792V416.005C41.038 411.862 37.68 408.505 33.538 408.505C29.396 408.505 26.038 411.862 26.038 416.005V430.792C26.038 439.203 32.881 446.047 41.292 446.047H46.9V504.5C46.9 506.851 48.003 509.065 49.878 510.483C51.753 511.9 54.184 512.355 56.447 511.715C121.974 493.127 188.426 493.127 253.953 511.715C254.592 511.896 255.416 512.001 256.128 511.989C256.747 511.979 257.334 511.917 258.046 511.715C323.573 493.127 390.025 493.127 455.553 511.715C457.797 512.349 460.229 511.913 462.122 510.483C463.997 509.065 465.1 506.85 465.1 504.5V446.047H470.707C479.118 446.047 485.962 439.203 485.962 430.792V361.941C485.962 353.53 479.118 346.688 470.707 346.688V346.688ZM91.461 224.004C91.461 204.108 107.647 187.923 127.543 187.923H384.458C404.354 187.923 420.539 204.109 420.539 224.004V286.27C404.753 283.556 388.934 281.862 373.108 281.168V267.587C373.108 257.063 364.546 248.5 354.022 248.5H328.357C324.214 248.5 320.857 251.857 320.857 256C320.857 260.143 324.214 263.5 328.357 263.5H354.022C356.275 263.5 358.108 265.333 358.108 267.587V280.808C323.996 280.688 289.882 285.262 256 294.523C222.117 285.262 188.003 280.688 153.892 280.808V267.588C153.892 265.334 155.725 263.501 157.978 263.501H298.37C302.513 263.501 305.87 260.144 305.87 256.001C305.87 251.858 302.513 248.501 298.37 248.501H157.978C147.454 248.501 138.892 257.063 138.892 267.588V281.168C123.066 281.862 107.248 283.556 91.461 286.27V224.004ZM61.9 494.704V446.047H67.655C76.066 446.047 82.909 439.203 82.909 430.792V361.941C82.909 353.53 76.066 346.687 67.655 346.687H61.9V308.028C123.839 291.729 186.561 291.729 248.5 308.028V494.704C186.538 478.787 123.861 478.789 61.9 494.704V494.704ZM450.1 494.704C388.138 478.786 325.458 478.789 263.5 494.704V308.028C325.438 291.729 388.16 291.729 450.1 308.028V346.687H444.344C435.933 346.687 429.09 353.53 429.09 361.941V430.792C429.09 439.203 435.933 446.047 444.344 446.047H450.1V494.704ZM470.962 430.792C470.962 430.933 470.848 431.047 470.707 431.047H444.344C444.204 431.047 444.09 430.933 444.09 430.792V361.941C444.09 361.801 444.204 361.687 444.344 361.687H470.707C470.848 361.687 470.962 361.801 470.962 361.941V430.792Z" fill="black"/>
<path d="M415.07 331.807H298.53C294.387 331.807 291.03 335.164 291.03 339.307V379.702C291.03 383.845 294.387 387.202 298.53 387.202H415.07C419.213 387.202 422.57 383.845 422.57 379.702V339.307C422.57 335.164 419.212 331.807 415.07 331.807ZM407.57 372.201H306.03V346.806H407.57V372.201Z" fill="black"/>
<path d="M377.622 417.052C381.765 417.052 385.122 413.695 385.122 409.552C385.122 405.409 381.765 402.052 377.622 402.052H335.976C331.833 402.052 328.476 405.409 328.476 409.552C328.476 413.695 331.833 417.052 335.976 417.052H377.622Z" fill="black"/>
<path d="M392.622 430.903H320.976C316.833 430.903 313.476 434.26 313.476 438.403C313.476 442.546 316.833 445.903 320.976 445.903H392.622C396.765 445.903 400.122 442.546 400.122 438.403C400.122 434.26 396.765 430.903 392.622 430.903Z" fill="black"/>
<path d="M145.487 228.333C149.629 228.333 152.987 224.976 152.987 220.833C152.987 216.69 149.629 213.333 145.487 213.333H131.987C127.845 213.333 124.487 216.69 124.487 220.833C124.487 224.976 127.845 228.333 131.987 228.333H145.487Z" fill="black"/>
<path d="M174.61 228.333H245.39C249.532 228.333 252.89 224.976 252.89 220.833C252.89 216.69 249.532 213.333 245.39 213.333H174.61C170.468 213.333 167.11 216.69 167.11 220.833C167.11 224.976 170.468 228.333 174.61 228.333Z" fill="black"/>
<path d="M186.956 149.392C209.893 157.25 232.99 161.18 256.088 161.18C279.186 161.18 302.283 157.25 325.22 149.392C328.252 148.354 330.289 145.502 330.289 142.297V83.123C330.289 78.98 326.932 75.623 322.789 75.623H189.387C185.245 75.623 181.887 78.98 181.887 83.123V142.297C181.887 145.502 183.924 148.354 186.956 149.392ZM196.887 90.623H315.289V136.869C275.978 149.256 236.196 149.256 196.887 136.869V90.623Z" fill="black"/>
<path d="M217.533 104.819C213.391 104.819 210.033 108.176 210.033 112.319V123.752C210.033 127.895 213.391 131.252 217.533 131.252C221.675 131.252 225.033 127.895 225.033 123.752V112.319C225.033 108.177 221.675 104.819 217.533 104.819V104.819Z" fill="black"/>
<path d="M294.467 131.252C298.61 131.252 301.967 127.895 301.967 123.752V112.319C301.967 108.176 298.61 104.819 294.467 104.819C290.324 104.819 286.967 108.176 286.967 112.319V123.752C286.967 127.895 290.325 131.252 294.467 131.252Z" fill="black"/>
</g>
<defs>
<clipPath id="clip0">
<rect width="512" height="512" fill="white"/>
</clipPath>
</defs>
</svg>
