<svg height="512pt" viewBox="0 -77 512 512" width="512pt" xmlns="http://www.w3.org/2000/svg"><path d="m256 8.53125v170.667969h-247.46875v-153.597657c0-9.386718 7.683594-17.070312 17.070312-17.070312zm0 0" fill="#cfd8dc"/><path d="m230.398438 8.53125v170.667969h-221.867188v-153.597657c-.851562-8.535156 5.976562-16.214843 15.363281-17.070312zm0 0" fill="#f5f5f5"/><path d="m503.46875 25.601562v153.597657h-247.46875v-170.667969h230.398438c9.386718 0 17.070312 7.683594 17.070312 17.070312zm0 0" fill="#c52828"/><path d="m477.867188 25.601562v153.597657h-221.867188v-170.667969h206.507812c9.386719.855469 16.210938 8.535156 15.359376 17.070312zm0 0" fill="#f44335"/><path d="m256 179.199219v170.667969h-230.398438c-9.386718 0-17.070312-7.679688-17.070312-17.066407v-153.601562zm0 0" fill="#1566c0"/><path d="m230.398438 179.199219v170.667969h-204.796876c-9.386718 0-17.070312-7.679688-17.070312-17.066407v-153.601562zm0 0" fill="#2296f3"/><path d="m503.46875 179.199219v153.601562c0 9.386719-7.683594 17.066407-17.070312 17.066407h-230.398438v-170.667969zm0 0" fill="#cfd8dc"/><path d="m477.867188 179.199219v153.601562c.851562 8.53125-5.972657 16.210938-15.359376 17.066407h-206.507812v-170.667969zm0 0" fill="#f5f5f5"/><path d="m136.53125 42.667969 16.214844 33.277343 34.988281 5.976563-25.601563 26.449219 5.972657 36.695312-31.574219-17.917968-31.570312 17.917968 5.972656-36.695312-25.601563-26.449219 34.988281-5.976563zm0 0" fill="#0377bc"/><path d="m486.398438 0h-460.796876c-14.507812 0-25.601562 11.09375-25.601562 25.601562v307.199219c0 14.507813 11.09375 25.597657 25.601562 25.597657h460.796876c14.507812 0 25.601562-11.089844 25.601562-25.597657v-307.199219c0-14.507812-11.09375-25.601562-25.601562-25.601562zm8.535156 25.601562v145.066407h-230.402344v-153.601563h221.867188c5.121093 0 8.535156 3.414063 8.535156 8.535156zm-469.332032-8.535156h221.867188v153.601563h-230.402344v-145.066407c0-5.121093 3.414063-8.535156 8.535156-8.535156zm-8.535156 315.734375v-145.066406h230.402344v153.597656h-221.867188c-5.121093 0-8.535156-3.410156-8.535156-8.53125zm469.332032 8.53125h-221.867188v-153.597656h230.402344v145.066406c0 5.121094-3.414063 8.53125-8.535156 8.53125zm0 0"/><path d="m101.546875 110.933594-5.121094 32.425781c-.851562 3.414063.855469 6.828125 3.414063 8.535156s5.972656 1.707031 9.386718.851563l27.308594-15.359375 27.304688 15.359375c2.5625 1.707031 5.972656 1.707031 9.386718-.851563 2.5625-1.707031 4.269532-5.121093 3.414063-8.535156l-5.121094-32.425781 22.1875-23.039063c2.5625-2.5625 3.414063-5.972656 1.707031-8.535156-.851562-3.414063-3.410156-5.121094-6.824218-5.972656l-30.722656-5.121094-13.652344-29.867187c-1.707032-2.558594-4.269532-4.265626-7.683594-4.265626-3.410156 0-5.972656 1.707032-7.679688 5.121094l-13.652343 29.011719-31.570313 5.121094c-2.5625.851562-5.121094 2.558593-5.976562 5.972656-.851563 3.414063 0 5.972656 1.707031 8.535156zm20.480469-26.453125c2.558594 0 5.121094-2.558594 6.828125-5.121094l7.679687-17.066406 7.679688 17.066406c.851562 2.5625 3.414062 4.269531 6.824218 5.121094l18.773438 2.558593-13.652344 15.359376c-1.707031 1.707031-2.558594 4.269531-2.558594 7.679687l3.410157 19.628906-16.210938-9.386719c-2.5625-1.707031-5.972656-1.707031-8.535156 0l-16.210937 9.386719 3.414062-19.628906c.851562-2.558594 0-5.117187-2.5625-7.679687l-13.652344-14.503907zm0 0"/><path d="m436.90625 235.519531-31.570312-5.121093-13.65625-29.867188c-1.707032-2.558594-4.265626-4.265625-7.679688-4.265625-3.410156 0-5.972656 1.707031-7.679688 5.121094l-13.652343 29.011719-30.722657 5.121093c-3.410156.851563-5.972656 2.558594-6.824218 5.972657-.855469 3.414062 0 5.972656 1.707031 8.535156l22.1875 23.039062-5.121094 32.425782c-.855469 3.414062.851563 6.828124 3.414063 8.535156 2.558594 1.707031 5.972656 1.707031 9.386718.851562l27.304688-15.359375 27.308594 15.359375c.851562.855469 2.558594.855469 4.265625.855469 2.558593 0 5.121093-.855469 6.828125-3.414063 1.707031-2.558593 2.558594-4.265624 1.707031-6.828124l-5.121094-32.425782 22.1875-23.039062c2.558594-2.5625 3.414063-5.972656 1.707031-8.535156-.855468-3.414063-3.414062-5.121094-5.976562-5.972657zm0 0"/><path d="m384 204.800781 16.214844 34.132813 34.984375 5.121094-25.597657 26.453124 5.972657 36.691407-31.574219-17.066407-31.574219 17.066407 5.972657-36.691407-25.597657-26.453124 34.984375-5.121094zm0 0" fill="#0377bc"/><path d="m415.574219 315.734375c-1.707031 0-2.5625 0-4.269531-.855469l-27.304688-15.359375-27.308594 15.359375c-2.558594 1.707032-5.972656 1.707032-9.386718-.851562-3.410157-2.558594-4.265626-5.121094-3.410157-8.535156l5.117188-32.425782-22.1875-23.039062c-2.558594-2.558594-3.410157-5.972656-1.707031-8.535156 1.707031-2.558594 3.414062-5.117188 6.828124-5.972657l30.71875-5.117187 13.65625-29.867188c1.707032-3.414062 4.265626-5.121094 7.679688-5.121094 3.410156 0 5.972656 1.707032 7.679688 5.121094l13.652343 29.867188 30.71875 5.117187c3.414063.855469 5.972657 2.5625 6.828125 5.972657.851563 3.414062 0 5.976562-1.707031 8.535156l-22.1875 23.039062 5.121094 32.425782c.851562 3.414062-.851563 6.828124-3.414063 8.535156-1.703125.851562-3.410156 1.707031-5.117187 1.707031zm-31.574219-34.132813c1.707031 0 2.558594 0 4.265625.851563l16.214844 9.386719-3.414063-20.480469c-.851562-2.558594 0-5.121094 2.5625-7.679687l13.652344-14.507813-18.773438-2.558594c-2.5625 0-5.121093-2.558593-6.828124-5.121093l-7.679688-17.066407-7.679688 17.066407c-.851562 2.5625-3.414062 4.269531-6.828124 5.121093l-18.773438 2.5625 13.652344 14.503907c1.707031 1.707031 2.5625 4.269531 2.5625 7.679687l-3.414063 19.628906 16.214844-9.386719zm0 0"/></svg>