<svg id="Capa_1" enable-background="new 0 0 509.732 509.732" height="512" viewBox="0 0 509.732 509.732" width="512" xmlns="http://www.w3.org/2000/svg"><g><g><g><path d="m93.464 7.5c-12.382 0-22.42 10.038-22.42 22.42v429.892c0 32.382 10.038 42.42 22.42 42.42h322.804c12.382 0 22.42-10.038 22.42-42.42v-429.892c0-12.382-10.038-22.42-22.42-22.42z" fill="#edf5fa"/></g></g><g><g><path d="m416.268 7.5h-30c12.382 0 22.42 10.038 22.42 22.42v429.892c0 32.382-10.038 42.42-22.42 42.42h30c12.382 0 22.42-10.038 22.42-42.42v-429.892c0-12.382-10.038-22.42-22.42-22.42z" fill="#d0e7f2"/></g></g><g><g><path d="m71.044 399.315v80.497c0 12.382 10.038 22.42 22.42 22.42h322.804c12.382 0 22.42-10.038 22.42-22.42v-80.497z" fill="#fe73c5"/></g></g><g><g><path d="m408.688 399.315v80.497c0 12.382-10.038 22.42-22.42 22.42h30c12.382 0 22.42-10.038 22.42-22.42v-80.497z" fill="#fe4fb7"/></g></g><g><g><path d="m377.245 358.743h-234.011c-12.311 0-22.29-9.98-22.29-22.29v-153.036c0-12.311 9.98-22.29 22.29-22.29h234.011c12.311 0 22.29 9.98 22.29 22.29v153.036c0 12.311-9.979 22.29-22.29 22.29z" fill="#d0e7f2"/></g></g><g><g><path d="m377.245 161.126h-30c12.311 0 22.29 9.98 22.29 22.29v153.036c0 12.311-9.98 22.29-22.29 22.29h30c12.311 0 22.29-9.98 22.29-22.29v-153.035c0-12.311-9.98-22.291-22.29-22.291z" fill="#b7d9eb"/></g></g><g><g><path d="m399.535 202.533v-19.116c0-12.311-9.98-22.29-22.29-22.29h-234.011c-12.311 0-22.29 9.98-22.29 22.29v19.116z" fill="#fe73c5"/></g></g><g><g><path d="m377.245 161.126h-30c12.311 0 22.29 9.98 22.29 22.29v19.116h30v-19.116c0-12.31-9.979-22.29-22.29-22.29z" fill="#fe4fb7"/></g></g><g><g><path d="m446.188 29.92c0-16.498-13.422-29.92-29.92-29.92h-322.804c-16.498 0-29.92 13.422-29.92 29.92v187.264c0 4.142 3.358 7.5 7.5 7.5s7.5-3.358 7.5-7.5v-187.264c0-8.227 6.693-14.92 14.92-14.92h322.804c8.227 0 14.92 6.693 14.92 14.92v361.895h-352.644v-144.631c0-4.142-3.358-7.5-7.5-7.5s-7.5 3.358-7.5 7.5v232.628c0 16.498 13.422 29.92 29.92 29.92h322.804c16.498 0 29.92-13.422 29.92-29.92zm-15 449.892c0 8.227-6.693 14.92-14.92 14.92h-322.804c-8.227 0-14.92-6.693-14.92-14.92v-72.997h352.644z"/></g></g><g><g><path d="m115.254 173.184c-1.171 3.192-1.811 6.639-1.811 10.232v19.116 133.92c0 16.427 13.364 29.79 29.79 29.79h234.011c16.426 0 29.79-13.364 29.79-29.79v-133.92-19.116c0-16.427-13.364-29.79-29.79-29.79h-234.01c-12.833 0-23.797 8.157-27.98 19.558zm261.991-4.558c2.039 0 3.983.415 5.751 1.164 4.864 2.061 8.406 6.654 8.962 12.116.051.497.076 1 .076 1.51v11.616h-176.298c-4.142 0-7.5 3.358-7.5 7.5s3.358 7.5 7.5 7.5h176.299v126.42c0 8.156-6.635 14.79-14.79 14.79h-234.011c-8.155 0-14.79-6.635-14.79-14.79v-126.42h57.292c4.142 0 7.5-3.358 7.5-7.5s-3.358-7.5-7.5-7.5h-57.292v-11.616c0-.51.026-1.013.076-1.51.759-7.449 7.068-13.28 14.714-13.28z"/></g></g><g><g><path d="m298.258 300.702c1.754 0 3.516-.612 4.939-1.859l17.321-15.174c.001-.001.002-.002.003-.003 1.753-1.535 2.619-3.706 2.555-5.867-.049-1.68-.661-3.354-1.855-4.717-.001-.001-.001-.002-.002-.002l-15.174-17.322c-2.729-3.116-7.468-3.429-10.583-.7-3.116 2.729-3.429 7.468-.7 10.583l10.235 11.683-11.683 10.234c-3.116 2.729-3.429 7.468-.7 10.583 1.483 1.696 3.558 2.561 5.644 2.561z"/></g></g><g><g><path d="m199.957 283.667 17.325 15.177c1.423 1.247 3.185 1.858 4.939 1.858 2.086 0 4.162-.865 5.645-2.558 2.729-3.116 2.416-7.854-.7-10.583l-11.683-10.234 10.235-11.683c2.729-3.116 2.416-7.854-.7-10.583-3.115-2.729-7.854-2.417-10.583.699l-15.177 17.324c-1.194 1.363-1.806 3.037-1.855 4.717-.064 2.16.802 4.331 2.554 5.866z"/></g></g><g><g><path d="m260.24 327.439c4.142 0 7.5-3.358 7.5-7.5v-77.766c0-4.142-3.358-7.5-7.5-7.5s-7.5 3.358-7.5 7.5v77.766c0 4.142 3.358 7.5 7.5 7.5z"/></g></g><g><g><path d="m135.349 110.016h76.547c4.142 0 7.5-3.358 7.5-7.5s-3.358-7.5-7.5-7.5h-76.547c-4.142 0-7.5 3.358-7.5 7.5s3.358 7.5 7.5 7.5z"/></g></g><g><g><path d="m244.927 110.016h22.313c4.142 0 7.5-3.358 7.5-7.5s-3.358-7.5-7.5-7.5h-22.313c-4.142 0-7.5 3.358-7.5 7.5s3.358 7.5 7.5 7.5z"/></g></g><g><g><path d="m135.349 76.214h76.547c4.142 0 7.5-3.358 7.5-7.5s-3.358-7.5-7.5-7.5h-76.547c-4.142 0-7.5 3.358-7.5 7.5s3.358 7.5 7.5 7.5z"/></g></g><g><g><path d="m244.927 76.214h22.313c4.142 0 7.5-3.358 7.5-7.5s-3.358-7.5-7.5-7.5h-22.313c-4.142 0-7.5 3.358-7.5 7.5s3.358 7.5 7.5 7.5z"/></g></g><g><g><path d="m217.271 442.814v-.747c0-4.701-2.348-7.29-6.611-7.29h-7.222v15.327h7.222c4.263 0 6.611-2.589 6.611-7.29zm-12.833-7.037h6.222c3.724 0 5.611 2.116 5.611 6.29v.747c0 4.174-1.888 6.29-5.611 6.29h-6.222z"/></g></g><g><path d="m211.339 425.542h-14.056c-2.53 0-4.438 1.587-4.438 3.691v43.186c0 2.583 3.005 3.759 5.796 3.759s5.796-1.177 5.796-3.759v-14.167h6.222c11.094 0 17.204-5.772 17.204-16.253v-.34c.001-10.393-5.868-16.117-16.524-16.117zm5.432 17.272c0 4.617-2.309 6.79-6.111 6.79h-6.722v-14.327h6.722c3.803 0 6.111 2.173 6.111 6.79z"/><path d="m255.409 425.542h-14.056c-2.53 0-4.438 1.587-4.438 3.691v43.186c0 2.583 3.005 3.759 5.796 3.759s5.796-1.177 5.796-3.759v-14.167h6.222c11.094 0 17.204-5.772 17.204-16.253v-.34c0-10.393-5.868-16.117-16.524-16.117zm-.68 23.562h-6.222v-13.327h6.222c3.724 0 5.611 2.116 5.611 6.29v.747c.001 4.174-1.887 6.29-5.611 6.29z"/><path d="m310.886 425.542h-29.334c-2.55 0-3.691 2.604-3.691 5.185 0 3.133 1.518 5.321 3.691 5.321h8.871v36.371c0 2.583 3.005 3.759 5.796 3.759s5.796-1.177 5.796-3.759v-36.371h8.871c2.173 0 3.691-2.188 3.691-5.321 0-2.58-1.142-5.185-3.691-5.185z"/></g></g></svg>