<svg id="Capa_1" enable-background="new 0 0 509.732 509.732" height="512" viewBox="0 0 509.732 509.732" width="512" xmlns="http://www.w3.org/2000/svg"><g><g><g><path d="m93.464 7.5c-12.382 0-22.42 10.038-22.42 22.42v429.892c0 32.382 10.038 42.42 22.42 42.42h322.804c12.382 0 22.42-10.038 22.42-42.42v-429.892c0-12.382-10.038-22.42-22.42-22.42z" fill="#edf5fa"/></g></g><g><g><path d="m416.268 7.5h-30c12.382 0 22.42 10.038 22.42 22.42v429.892c0 32.382-10.038 42.42-22.42 42.42h30c12.382 0 22.42-10.038 22.42-42.42v-429.892c0-12.382-10.038-22.42-22.42-22.42z" fill="#d0e7f2"/></g></g><g><g><path d="m71.044 399.315v80.497c0 12.382 10.038 22.42 22.42 22.42h322.804c12.382 0 22.42-10.038 22.42-22.42v-80.497z" fill="#62dbfb"/></g></g><g><g><path d="m408.688 399.315v80.497c0 12.382-10.038 22.42-22.42 22.42h30c12.382 0 22.42-10.038 22.42-22.42v-80.497z" fill="#01c0fa"/></g></g><g><g><path d="m416.267 0h-234.911c-4.142 0-7.5 3.358-7.5 7.5s3.358 7.5 7.5 7.5h234.912c8.228 0 14.921 6.693 14.921 14.92v361.895h-263.703c-4.142 0-7.5 3.358-7.5 7.5s3.358 7.5 7.5 7.5h263.702v72.997c0 8.227-6.693 14.92-14.92 14.92h-322.804c-8.227 0-14.92-6.693-14.92-14.92v-72.997h58.942c4.142 0 7.5-3.358 7.5-7.5s-3.358-7.5-7.5-7.5h-58.942v-361.895c0-8.227 6.693-14.92 14.92-14.92h57.892c4.142 0 7.5-3.358 7.5-7.5s-3.358-7.5-7.5-7.5h-57.892c-16.498 0-29.92 13.422-29.92 29.92v449.892c0 16.498 13.422 29.92 29.92 29.92h322.805c16.498 0 29.92-13.422 29.92-29.92v-449.892c-.001-16.498-13.423-29.92-29.922-29.92z"/></g></g><g><g><path d="m219.354 96.393h159.281c4.143 0 7.5-3.358 7.5-7.5s-3.357-7.5-7.5-7.5h-159.281c-4.142 0-7.5 3.358-7.5 7.5s3.358 7.5 7.5 7.5z"/></g></g><g><g><path d="m219.354 141.603h159.281c4.143 0 7.5-3.358 7.5-7.5s-3.357-7.5-7.5-7.5h-159.281c-4.142 0-7.5 3.358-7.5 7.5s3.358 7.5 7.5 7.5z"/></g></g><g><g><path d="m219.354 186.813h159.281c4.143 0 7.5-3.358 7.5-7.5s-3.357-7.5-7.5-7.5h-159.281c-4.142 0-7.5 3.358-7.5 7.5s3.358 7.5 7.5 7.5z"/></g></g><g><g><path d="m219.354 232.022h159.281c4.143 0 7.5-3.358 7.5-7.5s-3.357-7.5-7.5-7.5h-159.281c-4.142 0-7.5 3.358-7.5 7.5s3.358 7.5 7.5 7.5z"/></g></g><g><g><path d="m219.354 277.232h159.281c4.143 0 7.5-3.358 7.5-7.5s-3.357-7.5-7.5-7.5h-159.281c-4.142 0-7.5 3.358-7.5 7.5s3.358 7.5 7.5 7.5z"/></g></g><g><g><path d="m131.292 341.424c0 4.142 3.358 7.5 7.5 7.5h114.517c4.143 0 7.5-3.358 7.5-7.5s-3.357-7.5-7.5-7.5h-114.517c-4.142 0-7.5 3.358-7.5 7.5z"/></g></g><g><g><path d="m169.949 81.393h-30.235c-4.142 0-7.5 3.358-7.5 7.5s3.358 7.5 7.5 7.5h30.235c4.142 0 7.5-3.358 7.5-7.5s-3.358-7.5-7.5-7.5z"/></g></g><g><g><path d="m139.714 141.603h30.235c4.142 0 7.5-3.358 7.5-7.5s-3.358-7.5-7.5-7.5h-30.235c-4.142 0-7.5 3.358-7.5 7.5s3.358 7.5 7.5 7.5z"/></g></g><g><g><path d="m139.714 186.813h30.235c4.142 0 7.5-3.358 7.5-7.5s-3.358-7.5-7.5-7.5h-30.235c-4.142 0-7.5 3.358-7.5 7.5s3.358 7.5 7.5 7.5z"/></g></g><g><g><path d="m139.714 232.023h30.235c4.142 0 7.5-3.358 7.5-7.5s-3.358-7.5-7.5-7.5h-30.235c-4.142 0-7.5 3.358-7.5 7.5s3.358 7.5 7.5 7.5z"/></g></g><g><g><path d="m139.714 277.232h30.235c4.142 0 7.5-3.358 7.5-7.5s-3.358-7.5-7.5-7.5h-30.235c-4.142 0-7.5 3.358-7.5 7.5s3.358 7.5 7.5 7.5z"/></g></g><g><path d="m224.953 422.805h-29.333c-2.55 0-3.691 2.604-3.691 5.185 0 3.133 1.518 5.321 3.691 5.321h8.871v36.371c0 2.583 3.005 3.759 5.796 3.759s5.796-1.177 5.796-3.759v-36.371h8.87c2.173 0 3.691-2.188 3.691-5.321 0-2.581-1.142-5.185-3.691-5.185z"/><path d="m261.874 448.084 11.101-17.788c.51-.801.758-1.577.758-2.374 0-3.111-3.956-5.524-7.358-5.524-1.686 0-2.873.662-3.625 2.016l-8.598 14.997-8.593-14.991c-.756-1.361-1.942-2.022-3.628-2.022-3.403 0-7.358 2.413-7.358 5.524 0 .797.248 1.573.755 2.37l11.104 17.792-11.583 17.878c-.466.776-.683 1.462-.683 2.158 0 3.323 4.517 5.729 7.562 5.729 1.352 0 2.394-.468 2.943-1.333l9.482-16.107 9.475 16.093c.467.856 1.543 1.347 2.952 1.347 3.045 0 7.562-2.406 7.562-5.729 0-.696-.217-1.382-.691-2.173z"/><path d="m312.685 422.805h-29.334c-2.55 0-3.691 2.604-3.691 5.185 0 3.133 1.518 5.321 3.691 5.321h8.87v36.371c0 2.583 3.005 3.759 5.797 3.759 2.791 0 5.796-1.177 5.796-3.759v-36.371h8.871c2.174 0 3.691-2.188 3.691-5.321.001-2.581-1.141-5.185-3.691-5.185z"/></g></g></svg>