<svg id="Capa_1" enable-background="new 0 0 509.732 509.732" height="512" viewBox="0 0 509.732 509.732" width="512" xmlns="http://www.w3.org/2000/svg"><g><g><g><path d="m93.464 7.5c-12.382 0-22.42 10.038-22.42 22.42v429.892c0 32.382 10.038 42.42 22.42 42.42h322.804c12.382 0 22.42-10.038 22.42-42.42v-429.892c0-12.382-10.038-22.42-22.42-22.42z" fill="#edf5fa"/></g></g><g><g><path d="m416.268 7.5h-30c12.382 0 22.42 10.038 22.42 22.42v429.892c0 32.382-10.038 42.42-22.42 42.42h30c12.382 0 22.42-10.038 22.42-42.42v-429.892c0-12.382-10.038-22.42-22.42-22.42z" fill="#d0e7f2"/></g></g><g><g><path d="m71.044 399.315v80.497c0 12.382 10.038 22.42 22.42 22.42h322.804c12.382 0 22.42-10.038 22.42-22.42v-80.497z" fill="#62dbfb"/></g></g><g><g><path d="m408.688 399.315v80.497c0 12.382-10.038 22.42-22.42 22.42h30c12.382 0 22.42-10.038 22.42-22.42v-80.497z" fill="#01c0fa"/></g></g><g><g><path d="m337.245 360.743h-164.011c-12.311 0-22.29-9.98-22.29-22.29v-135.036c0-12.311 9.98-22.29 22.29-22.29h164.011c12.311 0 22.29 9.98 22.29 22.29v135.036c0 12.311-9.979 22.29-22.29 22.29z" fill="#62dbfb"/></g></g><g><g><path d="m337.245 181.127h-30c12.311 0 22.29 9.98 22.29 22.29v135.036c0 12.311-9.98 22.29-22.29 22.29h30c12.311 0 22.29-9.98 22.29-22.29v-135.036c0-12.311-9.979-22.29-22.29-22.29z" fill="#01c0fa"/></g></g><g><g><circle cx="300.494" cy="230.572" fill="#fedf30" r="24.294"/></g></g><g><g><path d="m282.536 287.542-31.409 54.403c-4.788 8.292 1.197 18.658 10.772 18.658h62.819c9.575 0 15.56-10.365 10.772-18.658l-31.409-54.403c-4.789-8.293-16.758-8.293-21.545 0l-31.409 54.403c-4.788 8.292 1.197 18.658 10.772 18.658h62.819c9.575 0 15.56-10.365 10.772-18.658l-31.409-54.403c-4.789-8.293-16.758-8.293-21.545 0z" fill="#fead8a"/></g></g><g><g><path d="m335.49 341.944-31.409-54.403c-4.788-8.292-16.757-8.292-21.544 0l-2.228 3.859 29.182 50.544c4.788 8.292-1.197 18.658-10.772 18.658h26c9.573 0 15.558-10.365 10.771-18.658z" fill="#e19974"/></g></g><g><g><path d="m217.443 263.161-41.891 72.557c-6.385 11.06 1.596 24.884 14.367 24.884h83.782c12.77 0 20.752-13.824 14.367-24.884l-41.891-72.557c-6.386-11.06-22.349-11.06-28.734 0l-41.891 72.557c-6.385 11.06 1.596 24.884 14.367 24.884h83.782c12.77 0 20.752-13.824 14.367-24.884l-41.891-72.557c-6.386-11.06-22.349-11.06-28.734 0z" fill="#fead8a"/></g></g><g><g><path d="m288.067 335.718-41.891-72.557c-6.385-11.06-22.348-11.06-28.734 0l-.633 1.097 41.258 71.461c6.385 11.06-1.596 24.884-14.367 24.884h30c12.771-.001 20.753-13.825 14.367-24.885z" fill="#e19974"/></g></g><g><g><path d="m416.269 0h-322.805c-16.498 0-29.92 13.422-29.92 29.92v200.432c0 4.142 3.357 7.5 7.5 7.5s7.5-3.358 7.5-7.5v-200.432c0-8.227 6.693-14.92 14.92-14.92h322.805c8.227 0 14.92 6.693 14.92 14.92v361.895h-352.645v-131.463c0-4.142-3.357-7.5-7.5-7.5s-7.5 3.358-7.5 7.5v219.46c0 16.498 13.422 29.92 29.92 29.92h322.805c16.498 0 29.92-13.422 29.92-29.92v-449.892c-.001-16.498-13.422-29.92-29.92-29.92zm14.919 479.812c0 8.227-6.693 14.92-14.92 14.92h-322.804c-8.227 0-14.92-6.693-14.92-14.92v-72.997h352.645v72.997z"/></g></g><g><path d="m218.809 426.768h-11.883c-2.536 0-3.691 2.617-3.691 5.049 0 3.053 1.518 5.185 3.691 5.185h5.407v24.284c0 4.174-1.91 6.29-5.679 6.29-4.989 0-5.271-3.658-5.478-6.331-.195-2.423-2.122-3.651-5.727-3.651-3.62 0-5.864.924-5.864 5.525 0 8.787 7.051 14.691 17.544 14.691 10.674 0 16.796-6.023 16.796-16.525v-30.759c.001-2.582-2.652-3.758-5.116-3.758z"/><path d="m253.983 426.768h-14.056c-2.53 0-4.438 1.587-4.438 3.691v43.186c0 2.583 3.005 3.759 5.796 3.759 2.792 0 5.797-1.177 5.797-3.759v-14.167h6.222c11.094 0 17.204-5.772 17.204-16.253v-.34c0-10.394-5.868-16.117-16.525-16.117zm-.679 23.561h-6.222v-13.327h6.222c3.724 0 5.611 2.116 5.611 6.29v.747c0 4.174-1.888 6.29-5.611 6.29z"/><path d="m309.663 450.329h-11.407c-2.311 0-3.691 2.326-3.691 4.574 0 2.273 1.268 4.574 3.691 4.574h3.506v1.809c0 4.174-1.888 6.29-5.61 6.29-3.678 0-5.543-2.116-5.543-6.29v-17.994c0-4.174 1.888-6.29 5.61-6.29 5.388 0 5.478 3.251 5.543 5.625.047 1.678 1.091 3.677 5.797 3.677 3.578 0 5.796-.924 5.796-5.525 0-8.512-6.886-14.012-17.543-14.012-10.674 0-16.796 6.023-16.796 16.525v17.994c0 10.656 6.086 16.525 17.136 16.525 11.094 0 17.203-5.869 17.203-16.525v-7.13c-.001-1.901-1.268-3.827-3.692-3.827z"/></g><g><g><path d="m143.443 338.453c0 16.427 13.364 29.79 29.791 29.79h164.011c16.427 0 29.79-13.364 29.79-29.79v-135.036c0-16.427-13.363-29.79-29.79-29.79h-96.925c-4.143 0-7.5 3.358-7.5 7.5s3.357 7.5 7.5 7.5h96.925c8.155 0 14.79 6.635 14.79 14.79v135.036c0 5.556-3.083 10.402-7.625 12.929.178-1.067.278-2.142.278-3.219 0-3.424-.901-6.848-2.703-9.969l-31.409-54.403c-3.604-6.243-10.061-9.969-17.269-9.969-.415 0-.828.012-1.237.037-6.705.401-12.633 4.05-16.028 9.932l-4.646 8.048-18.723-32.429c-4.354-7.542-12.154-12.045-20.863-12.044-.434 0-.865.011-1.294.033-8.183.423-15.43 4.845-19.566 12.011l-41.892 72.558c-2.177 3.771-3.266 7.908-3.266 12.044 0 2.67.46 5.338 1.367 7.91-5.131-2.324-8.715-7.481-8.715-13.47v-135.035c0-8.155 6.635-14.79 14.791-14.79h37.086c4.143 0 7.5-3.358 7.5-7.5s-3.357-7.5-7.5-7.5h-37.086c-16.427 0-29.791 13.364-29.791 29.79v135.036zm145.588-47.161c1.286-2.229 3.419-2.469 4.276-2.469s2.99.24 4.277 2.469l31.409 54.403c.505.875.68 1.709.68 2.446 0 1.139-.419 2.042-.68 2.493-.429.742-1.703 2.469-4.276 2.469h-28.702c1.207-2.929 1.813-6.009 1.812-9.09 0-4.137-1.088-8.273-3.266-12.044l-14.508-25.129zm-106.984 48.176 41.892-72.558c2.368-4.102 6.293-4.544 7.871-4.544s5.504.443 7.872 4.545l41.891 72.558c.93 1.61 1.251 3.146 1.251 4.501-.001 2.096-.771 3.758-1.251 4.588-.789 1.367-3.135 4.545-7.872 4.545h-83.781c-4.736 0-7.083-3.178-7.872-4.545-.479-.83-1.25-2.492-1.25-4.588-.002-1.355.319-2.892 1.249-4.502z"/></g></g><g><g><path d="m300.494 262.366c17.531 0 31.794-14.263 31.794-31.794s-14.263-31.794-31.794-31.794-31.794 14.263-31.794 31.795c0 17.531 14.263 31.793 31.794 31.793zm0-48.587c9.26 0 16.794 7.534 16.794 16.794s-7.534 16.794-16.794 16.794-16.794-7.534-16.794-16.794c0-9.261 7.534-16.794 16.794-16.794z"/></g></g><g><g><path d="m150.943 78.808h89.169c4.143 0 7.5-3.358 7.5-7.5s-3.357-7.5-7.5-7.5h-89.169c-4.143 0-7.5 3.358-7.5 7.5s3.358 7.5 7.5 7.5z"/></g></g><g><g><path d="m150.943 116.451h89.169c4.143 0 7.5-3.358 7.5-7.5s-3.357-7.5-7.5-7.5h-89.169c-4.143 0-7.5 3.358-7.5 7.5s3.358 7.5 7.5 7.5z"/></g></g></g></svg>