<svg id="Capa_1" enable-background="new 0 0 509.732 509.732" height="512" viewBox="0 0 509.732 509.732" width="512" xmlns="http://www.w3.org/2000/svg"><g><g><g><path d="m93.464 7.5c-12.382 0-22.42 10.038-22.42 22.42v429.892c0 32.382 10.038 42.42 22.42 42.42h322.804c12.382 0 22.42-10.038 22.42-42.42v-429.892c0-12.382-10.038-22.42-22.42-22.42z" fill="#edf5fa"/></g></g><g><g><path d="m416.268 7.5h-30c12.382 0 22.42 10.038 22.42 22.42v429.892c0 32.382-10.038 42.42-22.42 42.42h30c12.382 0 22.42-10.038 22.42-42.42v-429.892c0-12.382-10.038-22.42-22.42-22.42z" fill="#d0e7f2"/></g></g><g><g><path d="m71.044 399.315v80.497c0 12.382 10.038 22.42 22.42 22.42h322.804c12.382 0 22.42-10.038 22.42-22.42v-80.497z" fill="#fd6930"/></g></g><g><g><path d="m408.688 399.315v80.497c0 12.382-10.038 22.42-22.42 22.42h30c12.382 0 22.42-10.038 22.42-22.42v-80.497z" fill="#ef4424"/></g></g><g><g><path d="m337.245 337.743h-164.011c-12.311 0-22.29-9.98-22.29-22.29v-135.036c0-12.311 9.98-22.29 22.29-22.29h164.011c12.311 0 22.29 9.98 22.29 22.29v135.036c0 12.311-9.979 22.29-22.29 22.29z" fill="#d0e7f2"/></g></g><g><g><path d="m337.245 158.127h-30c12.311 0 22.29 9.98 22.29 22.29v135.036c0 12.311-9.98 22.29-22.29 22.29h30c12.311 0 22.29-9.98 22.29-22.29v-135.036c0-12.311-9.979-22.29-22.29-22.29z" fill="#b7d9eb"/></g></g><g><g><path d="m359.535 199.533v-19.116c0-12.311-9.98-22.29-22.29-22.29h-164.011c-12.311 0-22.29 9.98-22.29 22.29v19.116z" fill="#fd6930"/></g></g><g><g><path d="m337.245 158.127h-30c12.311 0 22.29 9.98 22.29 22.29v19.116h30v-19.116c0-12.311-9.979-22.29-22.29-22.29z" fill="#ef4424"/></g></g><g><g><path d="m416.269 0h-322.805c-16.498 0-29.92 13.422-29.92 29.92v200.652c0 4.142 3.357 7.5 7.5 7.5s7.5-3.358 7.5-7.5v-200.652c0-8.227 6.693-14.92 14.92-14.92h322.805c8.227 0 14.92 6.693 14.92 14.92v361.895h-352.645v-131.242c0-4.142-3.357-7.5-7.5-7.5s-7.5 3.358-7.5 7.5v219.24c0 16.498 13.422 29.92 29.92 29.92h322.805c16.498 0 29.92-13.422 29.92-29.92v-449.893c-.001-16.498-13.422-29.92-29.92-29.92zm14.919 479.812c0 8.227-6.693 14.92-14.92 14.92h-322.804c-8.227 0-14.92-6.693-14.92-14.92v-72.997h352.645v72.997z"/></g></g><g><g><path d="m143.443 180.417v135.036c0 16.427 13.364 29.79 29.791 29.79h164.011c16.427 0 29.79-13.364 29.79-29.79v-115.92-19.116c0-3.593-.639-7.04-1.811-10.232-4.182-11.401-15.146-19.558-27.979-19.558h-164.011c-5.361 0-10.39 1.43-14.741 3.919-8.98 5.136-15.05 14.805-15.05 25.871zm193.802 149.826h-164.011c-8.156 0-14.791-6.635-14.791-14.79v-108.42h50.445c4.143 0 7.5-3.358 7.5-7.5s-3.357-7.5-7.5-7.5h-50.444v-11.616c0-6.117 3.732-11.378 9.038-13.626 1.769-.749 3.713-1.164 5.752-1.164h164.011c7.646 0 13.955 5.832 14.714 13.28.051.497.076 1 .076 1.51v11.616h-113.146c-4.143 0-7.5 3.358-7.5 7.5s3.357 7.5 7.5 7.5h113.146v108.42c0 8.155-6.635 14.79-14.79 14.79z"/></g></g><g><g><path d="m156.128 104.559c1.465 1.465 3.384 2.197 5.304 2.197 1.919 0 3.839-.732 5.304-2.197l14.102-14.101c1.464-1.464 2.197-3.384 2.197-5.303s-.732-3.839-2.197-5.303l-14.103-14.102c-2.93-2.929-7.678-2.929-10.607 0s-2.929 7.678 0 10.606l8.798 8.798-8.798 8.798c-2.929 2.929-2.929 7.678 0 10.607z"/></g></g><g><g><path d="m196.461 104.559c1.465 1.465 3.384 2.197 5.304 2.197 1.919 0 3.839-.732 5.304-2.197l14.102-14.101c1.464-1.464 2.197-3.384 2.197-5.303s-.732-3.839-2.197-5.303l-14.103-14.102c-2.93-2.929-7.678-2.929-10.607 0s-2.929 7.678 0 10.606l8.798 8.798-8.798 8.798c-2.929 2.929-2.929 7.678 0 10.607z"/></g></g><g><g><path d="m236.796 104.559c1.464 1.464 3.384 2.197 5.303 2.197s3.839-.732 5.304-2.197l14.101-14.101c1.429-1.43 2.156-3.293 2.19-5.166.001-.046.006-.091.006-.137s-.006-.091-.006-.137c-.034-1.873-.76-3.736-2.19-5.166l-14.102-14.102c-2.93-2.928-7.679-2.929-10.606 0-2.93 2.929-2.93 7.678-.001 10.607l8.798 8.798-8.798 8.798c-2.929 2.929-2.929 7.677.001 10.606z"/></g></g><g><g><path d="m309.948 238.219h-109.324c-4.143 0-7.5 3.358-7.5 7.5s3.357 7.5 7.5 7.5h109.324c4.143 0 7.5-3.358 7.5-7.5s-3.357-7.5-7.5-7.5z"/></g></g><g><g><path d="m309.948 277.141h-109.324c-4.143 0-7.5 3.358-7.5 7.5s3.357 7.5 7.5 7.5h109.324c4.143 0 7.5-3.358 7.5-7.5s-3.357-7.5-7.5-7.5z"/></g></g><g><path d="m213.546 422.805h-14.056c-2.53 0-4.438 1.587-4.438 3.691v43.186c0 2.583 3.005 3.759 5.796 3.759 2.792 0 5.797-1.177 5.797-3.759v-14.167h6.222c11.094 0 17.204-5.772 17.204-16.253v-.34c-.001-10.393-5.869-16.117-16.525-16.117zm-.68 23.562h-6.222v-13.327h6.222c3.724 0 5.611 2.116 5.611 6.29v.747c.001 4.174-1.887 6.29-5.611 6.29z"/><path d="m257.615 422.805h-14.055c-2.53 0-4.438 1.587-4.438 3.691v43.186c0 2.583 3.005 3.759 5.796 3.759 2.792 0 5.797-1.177 5.797-3.759v-14.167h6.222c11.094 0 17.204-5.772 17.204-16.253v-.34c-.001-10.393-5.87-16.117-16.526-16.117zm-.679 23.562h-6.222v-13.327h6.222c3.724 0 5.611 2.116 5.611 6.29v.747c0 4.174-1.888 6.29-5.611 6.29z"/><path d="m313.092 422.805h-29.334c-2.55 0-3.691 2.604-3.691 5.185 0 3.133 1.518 5.321 3.691 5.321h8.871v36.371c0 2.583 3.005 3.759 5.796 3.759s5.796-1.177 5.796-3.759v-36.371h8.871c2.174 0 3.691-2.188 3.691-5.321 0-2.58-1.141-5.185-3.691-5.185z"/></g></g></svg>