<svg id="Capa_1" enable-background="new 0 0 509.732 509.732" height="512" viewBox="0 0 509.732 509.732" width="512" xmlns="http://www.w3.org/2000/svg"><g><g><g><path d="m93.464 7.5c-12.382 0-22.42 10.038-22.42 22.42v429.892c0 32.382 10.038 42.42 22.42 42.42h322.804c12.382 0 22.42-10.038 22.42-42.42v-429.892c0-12.382-10.038-22.42-22.42-22.42z" fill="#edf5fa"/></g></g><g><g><path d="m416.268 7.5h-30c12.382 0 22.42 10.038 22.42 22.42v429.892c0 32.382-10.038 42.42-22.42 42.42h30c12.382 0 22.42-10.038 22.42-42.42v-429.892c0-12.382-10.038-22.42-22.42-22.42z" fill="#d0e7f2"/></g></g><g><g><path d="m71.044 399.315v80.497c0 12.382 10.038 22.42 22.42 22.42h322.804c12.382 0 22.42-10.038 22.42-22.42v-80.497z" fill="#bd80e1"/></g></g><g><g><path d="m408.688 399.315v80.497c0 12.382-10.038 22.42-22.42 22.42h30c12.382 0 22.42-10.038 22.42-22.42v-80.497z" fill="#af66da"/></g></g><g><g><path d="m349.183 168.298h-190.634c-7.926 0-14.352-6.426-14.352-14.352v-79.419c0-7.926 6.426-14.352 14.352-14.352h190.633c7.926 0 14.352 6.426 14.352 14.352v79.418c.001 7.927-6.425 14.353-14.351 14.353z" fill="#bd80e1"/></g></g><g><g><path d="m349.182 60.175h-30c7.927 0 14.352 6.426 14.352 14.352v79.418c0 7.926-6.426 14.352-14.352 14.352h30c7.927 0 14.352-6.426 14.352-14.352v-79.418c.001-7.926-6.425-14.352-14.352-14.352z" fill="#af66da"/></g></g><g><g><path d="m269.033 107.359-23.548-13.595c-4.524-2.612-10.18.653-10.18 5.877v27.191c0 5.224 5.656 8.49 10.18 5.877l23.548-13.595c4.525-2.612 4.525-9.143 0-11.755l-23.548-13.595c-4.524-2.612-10.18.653-10.18 5.877v27.191c0 5.224 5.656 8.49 10.18 5.877l23.548-13.595c4.525-2.612 4.525-9.143 0-11.755z" fill="#edf5fa"/></g></g><g><g><path d="m257.703 350.821h-87.435c-10.029 0-18.159-8.13-18.159-18.159v-12.198c0-10.029 8.13-18.159 18.159-18.159h87.435c10.029 0 18.159 8.13 18.159 18.159v12.198c0 10.029-8.13 18.159-18.159 18.159z" fill="#bd80e1"/></g></g><g><g><path d="m257.703 302.305h-30c10.029 0 18.159 8.13 18.159 18.159v12.198c0 10.029-8.13 18.159-18.159 18.159h30c10.029 0 18.159-8.13 18.159-18.159v-12.198c0-10.029-8.13-18.159-18.159-18.159z" fill="#af66da"/></g></g><g><g><path d="m416.268 0h-322.804c-16.498 0-29.92 13.422-29.92 29.92v449.892c0 16.498 13.422 29.92 29.92 29.92h322.805c16.498 0 29.92-13.422 29.92-29.92v-449.892c-.001-16.498-13.423-29.92-29.921-29.92zm14.92 479.812c0 8.227-6.693 14.92-14.92 14.92h-322.804c-8.227 0-14.92-6.693-14.92-14.92v-72.997h167.318c4.142 0 7.5-3.358 7.5-7.5s-3.358-7.5-7.5-7.5h-167.318v-361.895c0-8.227 6.693-14.92 14.92-14.92h322.804c8.228 0 14.921 6.693 14.921 14.92v361.896h-155.328c-4.143 0-7.5 3.358-7.5 7.5s3.357 7.5 7.5 7.5h155.327z"/></g></g><g><g><path d="m337.983 201.232h-136.122c-4.142 0-7.5 3.358-7.5 7.5s3.358 7.5 7.5 7.5h136.123c4.143 0 7.5-3.358 7.5-7.5s-3.358-7.5-7.501-7.5z"/></g></g><g><g><path d="m201.861 243.612h30.861c4.142 0 7.5-3.358 7.5-7.5s-3.358-7.5-7.5-7.5h-30.861c-4.142 0-7.5 3.358-7.5 7.5s3.358 7.5 7.5 7.5z"/></g></g><g><g><path d="m165.546 201.232h-13.438c-4.142 0-7.5 3.358-7.5 7.5s3.358 7.5 7.5 7.5h13.438c4.142 0 7.5-3.358 7.5-7.5s-3.358-7.5-7.5-7.5z"/></g></g><g><g><path d="m165.546 228.612h-13.438c-4.142 0-7.5 3.358-7.5 7.5s3.358 7.5 7.5 7.5h13.438c4.142 0 7.5-3.358 7.5-7.5s-3.358-7.5-7.5-7.5z"/></g></g><g><g><path d="m201.861 269.819h74c4.143 0 7.5-3.358 7.5-7.5s-3.357-7.5-7.5-7.5h-74c-4.142 0-7.5 3.358-7.5 7.5s3.358 7.5 7.5 7.5z"/></g></g><g><g><path d="m165.546 254.82h-13.438c-4.142 0-7.5 3.358-7.5 7.5s3.358 7.5 7.5 7.5h13.438c4.142 0 7.5-3.358 7.5-7.5s-3.358-7.5-7.5-7.5z"/></g></g><g><g><path d="m349.183 175.797c12.049 0 21.852-9.803 21.852-21.852v-79.418c0-12.049-9.803-21.852-21.852-21.852h-113.24c-4.142 0-7.5 3.358-7.5 7.5s3.358 7.5 7.5 7.5h113.24c3.778 0 6.852 3.074 6.852 6.852v79.418c0 3.778-3.073 6.852-6.852 6.852h-190.634c-3.778 0-6.852-3.074-6.852-6.852v-79.418c0-3.778 3.074-6.852 6.852-6.852h47.394c4.142 0 7.5-3.358 7.5-7.5s-3.358-7.5-7.5-7.5h-47.394c-12.049 0-21.852 9.803-21.852 21.852v79.418c0 12.049 9.803 21.852 21.852 21.852z"/></g></g><g><g><path d="m234.948 139.204c2.237 1.291 4.69 1.937 7.144 1.937s4.907-.646 7.144-1.937l23.548-13.595c4.473-2.583 7.144-7.208 7.144-12.373 0-.262-.007-.523-.021-.782-.256-4.847-2.877-9.139-7.123-11.59l-23.548-13.596c-4.474-2.582-9.813-2.582-14.287 0-4.473 2.583-7.143 7.208-7.143 12.373v27.191c-.001 5.165 2.67 9.79 7.142 12.372zm7.857-38.328 21.408 12.36-21.408 12.36z"/></g></g><g><g><path d="m283.361 332.662v-12.198c0-14.148-11.51-25.659-25.658-25.659h-87.436c-14.148 0-25.659 11.51-25.659 25.659v12.198c0 14.148 11.51 25.659 25.659 25.659h87.436c14.149 0 25.658-11.51 25.658-25.659zm-123.752 0v-12.198c0-5.877 4.781-10.659 10.659-10.659h87.436c5.877 0 10.658 4.781 10.658 10.659v12.198c0 5.877-4.781 10.659-10.658 10.659h-87.436c-5.878 0-10.659-4.781-10.659-10.659z"/></g></g><g><path d="m225.258 422.805c-3.985 0-5.763.479-8.65 5.548l-6.56 11.464-6.559-11.463c-2.888-5.07-4.666-5.549-8.651-5.549-2.802 0-5.796 1.523-5.796 5.796v41.08c0 2.583 3.005 3.76 5.796 3.76s5.796-1.177 5.796-3.76v-24.183l5.507 10.087c.775 1.485 2.043 2.238 3.771 2.238 1.21 0 2.88-.384 3.961-2.215l5.588-9.546v23.619c0 2.583 3.005 3.76 5.796 3.76s5.796-1.177 5.796-3.76v-41.08c.002-4.273-2.992-5.796-5.795-5.796z"/><path d="m261.316 422.805h-14.056c-2.53 0-4.438 1.587-4.438 3.691v43.186c0 2.583 3.005 3.76 5.796 3.76 2.792 0 5.797-1.177 5.797-3.76v-14.167h6.222c11.094 0 17.204-5.772 17.204-16.253v-.339c0-10.394-5.868-16.118-16.525-16.118zm-.679 23.562h-6.222v-13.327h6.222c3.724 0 5.611 2.116 5.611 6.29v.747c0 4.174-1.888 6.29-5.611 6.29z"/><path d="m315.368 452.207h-2.42v-4.253c0-2.725-3.123-3.691-5.797-3.691s-5.796.967-5.796 3.691v4.253h-4.532l11.67-23.408c.198-.46.381-.959.381-1.487 0-2.795-3.753-4.506-5.797-4.506-2.137 0-3.861 1.061-4.858 2.989l-15.68 30.747c-.525.964-.604 1.84-.604 2.276 0 2.492 1.62 4.167 4.03 4.167h15.39v6.697c0 2.583 3.005 3.76 5.796 3.76 2.792 0 5.797-1.177 5.797-3.76v-6.697h2.42c1.932 0 3.759-2.619 3.759-5.389 0-2.596-1.176-5.389-3.759-5.389z"/></g></g></svg>