<svg width="512" height="512" viewBox="0 0 512 512" fill="none" xmlns="http://www.w3.org/2000/svg">
<g clip-path="url(#clip0)">
<path d="M477.632 393.984H34.367V121.23C34.367 115.107 39.331 110.143 45.454 110.143H466.545C472.668 110.143 477.632 115.107 477.632 121.23V393.984Z" fill="#4A80AA"/>
<path d="M466.545 110.143H448.319C454.442 110.143 459.406 115.107 459.406 121.23V350.976C459.406 365.194 447.88 376.719 433.663 376.719H34.367V393.984H459.406H477.632V376.719V121.23C477.632 115.107 472.669 110.143 466.545 110.143V110.143Z" fill="#407093"/>
<path d="M64.368 140.143H447.633V393.985H64.368V140.143Z" fill="#D3EFFB"/>
<path d="M423.344 140.143V358.472C423.344 368.55 415.174 376.719 405.097 376.719H64.368V393.984H423.345H447.633V376.719V140.143H423.344Z" fill="#B1E4F9"/>
<path d="M491.028 451.045H20.972C13.531 451.045 7.5 445.013 7.5 437.573V407.457C7.5 400.016 13.532 393.985 20.972 393.985H491.027C498.468 393.985 504.499 400.017 504.499 407.457V437.573C504.5 445.013 498.468 451.045 491.028 451.045Z" fill="#365E7D"/>
<path d="M491.028 393.984H467.47C474.91 393.984 480.942 400.016 480.942 407.456V437.572C480.942 445.012 474.91 451.044 467.47 451.044H491.027C498.468 451.044 504.499 445.012 504.499 437.572V407.456C504.5 400.016 498.468 393.984 491.028 393.984Z" fill="#2B4D66"/>
<path d="M292.175 422.515H219.825C216.869 422.515 214.177 420.815 212.906 418.147L201.397 393.985H310.603L299.094 418.147C297.823 420.815 295.13 422.515 292.175 422.515Z" fill="#4A80AA"/>
<path d="M410.587 268.521H275.86C264.892 268.521 256 259.629 256 248.661L232.838 239.643V112.76L256 102.923C256 79.745 274.789 60.956 297.967 60.956H410.587C413.494 60.956 415.851 63.313 415.851 66.22V263.258C415.851 266.164 413.495 268.521 410.587 268.521Z" fill="#FFF6F4"/>
<path d="M410.587 60.955H392.906C395.813 60.955 398.17 63.312 398.17 66.219V263.257C398.17 266.164 395.813 268.521 392.906 268.521H410.587C413.494 268.521 415.851 266.164 415.851 263.257V66.219C415.851 63.312 413.495 60.955 410.587 60.955V60.955Z" fill="#D8E2F1"/>
<path d="M236.14 268.521H101.412C98.505 268.521 96.148 266.164 96.148 263.257V66.219C96.148 63.312 98.505 60.955 101.412 60.955H214.032C237.21 60.955 255.999 79.744 255.999 102.922V248.66C256 259.63 247.108 268.521 236.14 268.521V268.521Z" fill="#FFF6F4"/>
<path d="M214.032 60.955H195.872C219.05 60.955 237.839 79.744 237.839 102.922V248.66C237.839 259.628 228.947 268.52 217.979 268.52H236.139C247.107 268.52 255.999 259.628 255.999 248.66V102.923C256 79.745 237.21 60.955 214.032 60.955V60.955Z" fill="#D8E2F1"/>
<path d="M326.165 354.644H185.835C180.536 354.644 176.241 350.349 176.241 345.05V309.38C176.241 304.081 180.536 299.786 185.835 299.786H326.166C331.465 299.786 335.76 304.081 335.76 309.38V345.05C335.759 350.349 331.464 354.644 326.165 354.644V354.644Z" fill="#80E29D"/>
<path d="M326.165 299.787H305.003C310.301 299.787 314.597 304.082 314.597 309.381V345.051C314.597 350.35 310.302 354.645 305.003 354.645H326.165C331.464 354.645 335.759 350.35 335.759 345.051V309.381C335.759 304.082 331.464 299.787 326.165 299.787Z" fill="#66B49D"/>
<path d="M491.028 386.485H485.132V121.23C485.132 110.981 476.794 102.643 466.545 102.643H423.351V66.219C423.351 59.181 417.625 53.455 410.587 53.455H297.967C280.284 53.455 264.747 62.788 256 76.78C247.252 62.788 231.716 53.455 214.033 53.455H152.48C148.338 53.455 144.98 56.812 144.98 60.955C144.98 65.098 148.338 68.455 152.48 68.455H214.033C233.038 68.455 248.5 83.917 248.5 102.923V248.661C248.5 255.476 242.955 261.02 236.14 261.02H103.648V68.455H122.493C126.635 68.455 129.993 65.098 129.993 60.955C129.993 56.812 126.635 53.455 122.493 53.455H101.412C94.374 53.455 88.648 59.181 88.648 66.219V102.643H45.454C35.205 102.643 26.867 110.981 26.867 121.23V386.485H20.972C9.408 386.485 0 395.893 0 407.456V437.572C0 449.135 9.408 458.544 20.972 458.544H70.584C74.726 458.544 78.084 455.187 78.084 451.044C78.084 446.901 74.726 443.544 70.584 443.544H20.972C17.679 443.544 15 440.865 15 437.572V407.456C15 404.163 17.679 401.484 20.972 401.484H196.661L206.135 421.373C208.637 426.623 214.01 430.015 219.825 430.015H292.174C297.99 430.015 303.363 426.622 305.864 421.372L315.338 401.484H491.027C494.32 401.484 496.999 404.163 496.999 407.456V437.572C496.999 440.865 494.32 443.544 491.027 443.544H100.571C96.429 443.544 93.071 446.901 93.071 451.044C93.071 455.187 96.429 458.544 100.571 458.544H491.028C502.591 458.544 512 449.136 512 437.572V407.456C512 395.893 502.591 386.485 491.028 386.485V386.485ZM263.5 102.923C263.5 83.917 278.962 68.455 297.967 68.455H408.351V261.02H275.86C269.045 261.02 263.501 255.476 263.501 248.661V102.923H263.5ZM41.867 121.23C41.867 119.252 43.476 117.643 45.454 117.643H88.648V132.643H64.368C60.226 132.643 56.868 136 56.868 140.143V386.485H41.868V121.23H41.867ZM292.322 414.922C292.296 414.979 292.237 415.015 292.175 415.015H219.826C219.763 415.015 219.704 414.978 219.678 414.921L213.278 401.484H298.725L292.322 414.922ZM455.132 386.485V314.781C455.132 310.638 451.775 307.281 447.632 307.281C443.489 307.281 440.132 310.638 440.132 314.781V386.485H71.868V147.643H88.649V263.257C88.649 270.295 94.375 276.021 101.413 276.021H236.14C243.955 276.021 251.01 272.722 256 267.45C260.99 272.722 268.045 276.021 275.86 276.021H410.588C417.626 276.021 423.352 270.295 423.352 263.257V147.643H440.133V284.793C440.133 288.936 443.49 292.293 447.633 292.293C451.776 292.293 455.133 288.936 455.133 284.793V140.143C455.133 136 451.776 132.643 447.633 132.643H423.352V117.643H466.546C468.524 117.643 470.133 119.252 470.133 121.23V386.485H455.132Z" fill="black"/>
<path d="M217.405 94.368H134.742C130.6 94.368 127.242 97.725 127.242 101.868C127.242 106.011 130.6 109.368 134.742 109.368H217.405C221.547 109.368 224.905 106.011 224.905 101.868C224.905 97.725 221.547 94.368 217.405 94.368V94.368Z" fill="black"/>
<path d="M217.405 136.281H134.742C130.6 136.281 127.242 139.638 127.242 143.781C127.242 147.924 130.6 151.281 134.742 151.281H217.405C221.547 151.281 224.905 147.924 224.905 143.781C224.905 139.638 221.547 136.281 217.405 136.281V136.281Z" fill="black"/>
<path d="M217.405 178.195H134.742C130.6 178.195 127.242 181.552 127.242 185.695C127.242 189.838 130.6 193.195 134.742 193.195H217.405C221.547 193.195 224.905 189.838 224.905 185.695C224.905 181.552 221.547 178.195 217.405 178.195V178.195Z" fill="black"/>
<path d="M217.405 220.109H134.742C130.6 220.109 127.242 223.466 127.242 227.609C127.242 231.752 130.6 235.109 134.742 235.109H217.405C221.547 235.109 224.905 231.752 224.905 227.609C224.905 223.466 221.547 220.109 217.405 220.109V220.109Z" fill="black"/>
<path d="M294.594 109.368H377.257C381.4 109.368 384.757 106.011 384.757 101.868C384.757 97.725 381.4 94.368 377.257 94.368H294.594C290.451 94.368 287.094 97.725 287.094 101.868C287.094 106.011 290.452 109.368 294.594 109.368Z" fill="black"/>
<path d="M294.594 151.281H377.257C381.4 151.281 384.757 147.924 384.757 143.781C384.757 139.638 381.4 136.281 377.257 136.281H294.594C290.451 136.281 287.094 139.638 287.094 143.781C287.094 147.924 290.452 151.281 294.594 151.281Z" fill="black"/>
<path d="M294.594 193.195H377.257C381.4 193.195 384.757 189.838 384.757 185.695C384.757 181.552 381.4 178.195 377.257 178.195H294.594C290.451 178.195 287.094 181.552 287.094 185.695C287.094 189.838 290.452 193.195 294.594 193.195Z" fill="black"/>
<path d="M294.594 235.109H377.257C381.4 235.109 384.757 231.752 384.757 227.609C384.757 223.466 381.4 220.109 377.257 220.109H294.594C290.451 220.109 287.094 223.466 287.094 227.609C287.094 231.752 290.452 235.109 294.594 235.109Z" fill="black"/>
<path d="M326.166 292.286H185.834C176.409 292.286 168.74 299.954 168.74 309.38V345.05C168.74 354.476 176.408 362.144 185.834 362.144H326.165C335.591 362.144 343.259 354.476 343.259 345.05V309.38C343.259 299.954 335.591 292.286 326.166 292.286V292.286ZM328.259 345.05C328.259 346.204 327.32 347.144 326.165 347.144H185.834C184.68 347.144 183.74 346.205 183.74 345.05V309.38C183.74 308.226 184.679 307.286 185.834 307.286H326.165C327.319 307.286 328.259 308.225 328.259 309.38V345.05Z" fill="black"/>
</g>
<defs>
<clipPath id="clip0">
<rect width="512" height="512" fill="white"/>
</clipPath>
</defs>
</svg>
