<svg width="512" height="512" viewBox="0 0 512 512" fill="none" xmlns="http://www.w3.org/2000/svg">
<g clip-path="url(#clip0)">
<path d="M72.6791 198.544L19.5748 250.151C5.70827 263.627 3.55051 285.124 14.4603 301.088L39.5606 337.812C42.5723 342.218 44.1831 347.431 44.1831 352.768V380.74H83.9429V260.94V207.496L72.6791 198.544Z" fill="#F1D0A5"/>
<path d="M439.321 198.544L492.425 250.151C506.292 263.627 508.449 285.124 497.54 301.088L472.439 337.812C469.428 342.218 467.817 347.431 467.817 352.768V380.74H428.057V260.94V207.496L439.321 198.544Z" fill="#F1D0A5"/>
<path d="M492.425 250.151L439.32 198.544L429.956 205.986L475.402 250.151C489.268 263.627 491.426 285.124 480.516 301.088L455.416 337.812C452.404 342.218 450.794 347.431 450.794 352.768V380.74H467.816V352.768C467.816 347.431 469.427 342.218 472.438 337.812L497.539 301.088C508.45 285.124 506.292 263.627 492.425 250.151V250.151Z" fill="#F1B986"/>
<path d="M78.0935 108.218C73.338 108.218 69.4824 112.074 69.4824 116.829V284.307C69.4824 300.69 82.763 313.969 99.1442 313.969H223.507C227.236 313.969 230.526 316.415 231.599 319.986L233.107 323.502C234.181 327.075 237.469 329.519 241.199 329.519H270.799C274.528 329.519 277.818 327.074 278.891 323.502L280.399 319.986C281.473 316.414 284.761 313.969 288.491 313.969H412.856C429.238 313.969 442.517 300.689 442.517 284.307V116.829C442.517 112.074 438.662 108.218 433.906 108.218H299.538L255.576 168.07L206.255 108.218H78.0935Z" fill="#9DC6FB"/>
<path d="M433.906 108.218H415.26C420.016 108.218 423.872 112.074 423.872 116.829V284.307C423.872 300.69 410.591 313.969 394.21 313.969H412.856C429.238 313.969 442.518 300.689 442.518 284.307V116.829C442.518 112.074 438.662 108.218 433.906 108.218V108.218Z" fill="#8993DA"/>
<path d="M406.281 281.389H275.307C264.645 281.389 256.001 272.745 256.001 262.082L233.483 253.316V129.967L256.001 120.404C256.001 97.8714 274.267 79.6053 296.799 79.6053H406.281C409.108 79.6053 411.399 81.8961 411.399 84.7228V276.271C411.398 279.098 409.107 281.389 406.281 281.389V281.389Z" fill="#FFF6F4"/>
<path d="M406.281 79.6053H389.092C391.918 79.6053 394.21 81.8961 394.21 84.7228V276.271C394.21 279.098 391.919 281.389 389.092 281.389H406.281C409.107 281.389 411.399 279.098 411.399 276.271V84.7228C411.398 81.8971 409.107 79.6053 406.281 79.6053Z" fill="#D8E2F1"/>
<path d="M236.694 281.389H105.72C102.893 281.389 100.602 279.098 100.602 276.271V84.7228C100.602 81.8961 102.893 79.6053 105.72 79.6053H215.202C237.735 79.6053 256.001 97.8714 256.001 120.404V262.082C256.001 272.745 247.357 281.389 236.694 281.389V281.389Z" fill="#FFF6F4"/>
<path d="M215.202 79.6053H197.548C220.08 79.6053 238.346 97.8714 238.346 120.404V262.082C238.346 272.745 229.702 281.389 219.04 281.389H236.694C247.356 281.389 256.001 272.745 256.001 262.082V120.404C256.001 97.8714 237.735 79.6053 215.202 79.6053V79.6053Z" fill="#D8E2F1"/>
<path d="M413.659 380.74L413.025 350.183C412.924 345.835 412.142 341.528 410.708 337.422C406.679 325.885 408.961 313.083 416.726 303.649C418.361 301.664 418.617 298.88 417.371 296.629L392.606 248.755C390.063 243.841 391.03 237.841 394.988 233.975C399.985 229.091 408.005 229.215 412.85 234.252L459.035 282.267L447.06 330.243L440.828 380.741H413.659V380.74Z" fill="#F1D0A5"/>
<path d="M98.3415 380.74L98.9754 350.183C99.0764 345.835 99.8583 341.528 101.292 337.422C105.321 325.885 103.039 313.083 95.2738 303.649C93.639 301.664 93.383 298.88 94.6289 296.629L119.394 248.755C121.937 243.841 120.97 237.841 117.012 233.975C112.015 229.091 103.995 229.215 99.1504 234.252L52.9653 282.267L64.94 330.243L71.1724 380.741H98.3415V380.74Z" fill="#F1D0A5"/>
<path d="M119.395 248.755C121.938 243.841 120.971 237.841 117.013 233.974C112.641 229.7 105.954 229.261 101.105 232.592C101.7 233 102.275 233.452 102.809 233.974C106.766 237.841 107.733 243.84 105.191 248.755L80.4243 296.628C79.1784 298.879 79.4344 301.661 81.0692 303.648C88.8354 313.082 91.1161 325.885 87.0876 337.421C85.6537 341.527 84.8718 345.834 84.7708 350.182L84.1369 380.74H98.3414L98.9753 350.182C99.0763 345.834 99.8582 341.527 101.292 337.421C105.321 325.885 103.039 313.082 95.2737 303.648C93.6389 301.662 93.3829 298.879 94.6288 296.628L119.395 248.755Z" fill="#F1B986"/>
<path d="M481.019 432.394H403.258C399.819 432.394 397.031 429.607 397.031 426.168V386.966C397.031 383.528 399.819 380.74 403.258 380.74H481.019C484.458 380.74 487.246 383.528 487.246 386.966V426.168C487.246 429.607 484.458 432.394 481.019 432.394Z" fill="#365E7D"/>
<path d="M480.871 380.74H463.802C467.323 380.74 470.177 383.463 470.177 386.822V426.313C470.177 429.672 467.323 432.395 463.802 432.395H480.871C484.392 432.395 487.246 429.673 487.246 426.313V386.822C487.246 383.463 484.392 380.74 480.871 380.74Z" fill="#2B4D66"/>
<path d="M108.743 432.394H30.9817C27.5431 432.394 24.7554 429.607 24.7554 426.168V386.966C24.7554 383.528 27.5431 380.74 30.9817 380.74H108.743C112.182 380.74 114.97 383.528 114.97 386.966V426.168C114.97 429.607 112.182 432.394 108.743 432.394Z" fill="#365E7D"/>
<path d="M108.595 380.74H91.5251C95.0458 380.74 97.8995 383.463 97.8995 386.822V426.313C97.8995 429.672 95.0458 432.395 91.5251 432.395H108.594C112.115 432.395 114.969 429.673 114.969 426.313V386.822C114.97 383.463 112.115 380.74 108.595 380.74Z" fill="#2B4D66"/>
<path d="M478.632 342.044L503.733 305.319C516.734 286.296 514.177 260.833 497.653 244.775L450.017 198.483V116.83C450.017 107.947 442.789 100.72 433.907 100.72H418.898V84.7238C418.898 77.7666 413.239 72.1072 406.281 72.1072H296.798C279.65 72.1072 264.572 81.0982 256 94.6048C247.427 81.0972 232.349 72.1072 215.201 72.1072H183.346C179.204 72.1072 175.847 75.4648 175.847 79.6064C175.847 83.7479 179.204 87.1056 183.346 87.1056H215.201C233.562 87.1056 248.5 102.043 248.5 120.405V262.082C248.5 268.593 243.204 273.89 236.693 273.89H114.836L126.056 252.199C130.14 244.303 128.612 234.823 122.254 228.61C118.442 224.886 113.425 222.864 108.101 222.9V87.1046H153.363C157.505 87.1046 160.862 83.747 160.862 79.6054C160.862 75.4638 157.505 72.1062 153.363 72.1062H105.72C98.7634 72.1062 93.104 77.7656 93.104 84.7228V100.719H78.0946C69.2106 100.719 61.9843 107.946 61.9843 116.829V198.482L14.3495 244.774C-2.17576 260.832 -4.73249 286.295 8.26912 305.32L33.3704 342.045C35.5382 345.218 36.6841 348.926 36.6841 352.77V373.243H30.9817C23.4145 373.243 17.2561 379.399 17.2561 386.968V426.17C17.2561 433.738 23.4135 439.897 30.9817 439.897H45.7351C49.8776 439.897 53.2343 436.54 53.2343 432.397C53.2343 428.255 49.8776 424.898 45.7351 424.898H32.2545V388.242H107.47V424.898H75.7199C71.5773 424.898 68.2207 428.255 68.2207 432.397C68.2207 436.54 71.5773 439.897 75.7199 439.897H108.743C116.312 439.897 122.469 433.739 122.469 426.17V386.968C122.469 379.4 116.313 373.243 108.743 373.243H105.998L106.474 350.358C106.557 346.789 107.195 343.268 108.373 339.894C110.458 333.923 111.132 327.62 110.483 321.47H223.509C224.491 321.47 224.191 322.034 226.074 326.129C228.252 332.664 234.271 337.022 241.201 337.022H270.801C277.732 337.022 283.75 332.665 285.927 326.129C287.825 322.003 287.518 321.47 288.493 321.47H401.517C400.867 327.62 401.542 333.923 403.628 339.894C404.807 343.268 405.444 346.789 405.527 350.339L406.002 373.242H403.257C395.689 373.242 389.531 379.398 389.531 386.967V426.169C389.531 433.737 395.688 439.896 403.257 439.896H427.525C431.668 439.896 435.024 436.539 435.024 432.396C435.024 428.254 431.668 424.897 427.525 424.897H404.531V388.241H479.746V424.897H457.51C453.367 424.897 450.011 428.254 450.011 432.396C450.011 436.539 453.367 439.896 457.51 439.896H481.02C488.589 439.896 494.746 433.738 494.746 426.169V386.967C494.746 379.399 488.59 373.242 481.02 373.242H475.317V352.769C475.316 348.925 476.463 345.217 478.632 342.044V342.044ZM433.906 115.718C434.519 115.718 435.017 116.216 435.017 116.829V246.48L418.897 229.721V115.718H433.906ZM296.798 87.1046H403.899V222.901C398.6 222.887 393.558 224.887 389.747 228.609C383.388 234.823 381.859 244.304 385.945 252.2L397.164 273.89H275.307C268.796 273.89 263.499 268.593 263.499 262.082V120.404C263.499 102.043 278.437 87.1046 296.798 87.1046V87.1046ZM78.0946 115.718H93.104V229.721L76.9817 246.481V116.829C76.9817 116.216 77.4807 115.718 78.0946 115.718V115.718ZM51.6825 373.241V352.768C51.6825 345.892 49.6317 339.256 45.7521 333.58L20.6518 296.856C11.7767 283.87 13.5216 266.49 24.8003 255.528L61.9833 219.393V262.073L47.5609 277.066C44.6902 280.051 44.7822 284.798 47.7669 287.669C50.7526 290.541 55.498 290.448 58.3697 287.463L104.555 239.448C106.522 237.403 109.763 237.373 111.77 239.336C113.38 240.909 113.767 243.309 112.734 245.308L88.0075 293.104C85.3218 298.058 85.8958 304.053 89.4834 308.413C95.5447 315.775 97.3565 325.943 94.2119 334.947C92.5171 339.801 91.5972 344.869 91.4782 350.026L90.9962 373.24H51.6825V373.241ZM288.492 306.471C281.561 306.471 275.543 310.828 273.366 317.364C271.465 321.481 271.776 322.022 270.8 322.022H241.2C240.219 322.022 240.517 321.457 238.634 317.365C236.458 310.829 230.44 306.471 223.508 306.471H106.031C104.785 304.031 103.302 301.699 101.578 299.519L107.077 288.889H236.694C244.272 288.889 251.12 285.723 256.001 280.65C260.881 285.722 267.729 288.889 275.308 288.889H404.924L410.423 299.519C408.699 301.699 407.216 304.031 405.97 306.471H288.492ZM421.004 373.241L420.522 350.009C420.403 344.87 419.483 339.803 417.788 334.949C414.642 325.946 416.455 315.778 422.517 308.414C426.104 304.056 426.677 298.061 423.992 293.106L399.266 245.31C398.232 243.311 398.619 240.912 400.23 239.338C402.235 237.378 405.475 237.402 407.445 239.45L453.63 287.465C456.502 290.451 461.249 290.544 464.233 287.671C467.218 284.8 467.31 280.053 464.439 277.068L450.016 262.074V219.395L487.2 255.53C498.478 266.491 500.223 283.872 491.348 296.857L466.248 333.582C462.367 339.259 460.317 345.894 460.317 352.77V373.243H421.004V373.241Z" fill="black"/>
<path d="M295.385 130.29H367.014C371.156 130.29 374.513 126.932 374.513 122.791C374.513 118.649 371.156 115.292 367.014 115.292H295.385C291.243 115.292 287.886 118.649 287.886 122.791C287.886 126.932 291.243 130.29 295.385 130.29V130.29Z" fill="black"/>
<path d="M295.385 168.761H367.014C371.156 168.761 374.513 165.403 374.513 161.262C374.513 157.12 371.156 153.762 367.014 153.762H295.385C291.243 153.762 287.886 157.12 287.886 161.262C287.886 165.403 291.243 168.761 295.385 168.761V168.761Z" fill="black"/>
<path d="M295.385 207.233H367.014C371.156 207.233 374.513 203.875 374.513 199.734C374.513 195.592 371.156 192.234 367.014 192.234H295.385C291.243 192.234 287.886 195.592 287.886 199.734C287.886 203.875 291.243 207.233 295.385 207.233V207.233Z" fill="black"/>
<path d="M295.385 245.703H367.014C371.156 245.703 374.513 242.346 374.513 238.204C374.513 234.063 371.156 230.705 367.014 230.705H295.385C291.243 230.705 287.886 234.063 287.886 238.204C287.886 242.346 291.243 245.703 295.385 245.703V245.703Z" fill="black"/>
<path d="M216.615 115.292H144.987C140.845 115.292 137.488 118.649 137.488 122.791C137.488 126.932 140.845 130.29 144.987 130.29H216.615C220.757 130.29 224.114 126.932 224.114 122.791C224.114 118.649 220.756 115.292 216.615 115.292V115.292Z" fill="black"/>
<path d="M216.615 153.762H144.987C140.845 153.762 137.488 157.12 137.488 161.262C137.488 165.403 140.845 168.761 144.987 168.761H216.615C220.757 168.761 224.114 165.403 224.114 161.262C224.114 157.12 220.756 153.762 216.615 153.762V153.762Z" fill="black"/>
<path d="M216.615 192.234H144.987C140.845 192.234 137.488 195.592 137.488 199.734C137.488 203.875 140.845 207.233 144.987 207.233H216.615C220.757 207.233 224.114 203.875 224.114 199.734C224.114 195.592 220.756 192.234 216.615 192.234V192.234Z" fill="black"/>
<path d="M216.615 230.705H144.987C140.845 230.705 137.488 234.063 137.488 238.204C137.488 242.346 140.845 245.703 144.987 245.703H216.615C220.757 245.703 224.114 242.346 224.114 238.204C224.114 234.063 220.756 230.705 216.615 230.705V230.705Z" fill="black"/>
</g>
<defs>
<clipPath id="clip0">
<rect width="512" height="512" fill="white"/>
</clipPath>
</defs>
</svg>
