<?xml version="1.0" encoding="iso-8859-1"?>
<!-- Generator: Adobe Illustrator 19.0.0, SVG Export Plug-In . SVG Version: 6.00 Build 0)  -->
<svg version="1.1" id="Capa_1" xmlns="http://www.w3.org/2000/svg" xmlns:xlink="http://www.w3.org/1999/xlink" x="0px" y="0px"
	 viewBox="0 0 512.003 512.003" style="enable-background:new 0 0 512.003 512.003;" xml:space="preserve">
<rect x="7.518" y="8.521" style="fill:#FFE88F;" width="496.967" height="496.967"/>
<g>
	<polygon style="fill:#56ACE1;" points="7.518,284.517 7.518,505.487 95.034,505.487 95.034,307.664 	"/>
	<polygon style="fill:#56ACE1;" points="281.118,102.953 320.086,8.521 135.112,8.521 135.112,64.336 	"/>
	<polygon style="fill:#56ACE1;" points="95.034,8.521 7.518,8.521 7.518,30.589 95.034,53.736 	"/>
	<polygon style="fill:#56ACE1;" points="135.112,318.264 135.112,505.487 327.43,505.487 378.162,382.548 	"/>
	<polygon style="fill:#56ACE1;" points="135.112,276.808 393.585,345.172 457.212,190.985 135.112,105.792 	"/>
	<polygon style="fill:#56ACE1;" points="363.443,8.521 320.208,113.291 472.636,153.608 504.485,76.427 504.485,8.521 	"/>
</g>
<path style="fill:#EEEFF2;" d="M320.208,113.291L363.443,8.521h-43.356l-38.968,94.433L135.112,64.336V8.521H95.034v45.215
	L7.518,30.589v41.456l87.516,23.147v171.016L7.518,243.06v41.456l87.516,23.147v197.824h40.078V318.264l243.05,64.284
	L327.43,505.487h43.356l46.465-112.6l87.233,23.073v-41.456l-71.81-18.993l63.627-154.187l8.183,2.164V76.427l-31.849,77.181
	L320.208,113.291z M393.585,345.172l-258.474-68.364V105.792l322.1,85.193L393.585,345.172z"/>
<path style="fill:#3AC274;" d="M304.095,127.753c0-35.415,28.71-64.125,64.125-64.125s64.125,28.71,64.125,64.125
	c0,48.094-64.125,112.218-64.125,112.218S304.095,175.846,304.095,127.753z"/>
<path style="fill:#15B259;" d="M320.126,119.737c0-21.897,10.982-41.219,27.731-52.789c-25.428,8.514-43.762,32.51-43.762,60.804
	c0,48.094,64.125,112.218,64.125,112.218s4.74-4.743,11.638-12.606C365.392,211.868,320.126,160.147,320.126,119.737z"/>
<circle style="fill:#B6F1CF;" cx="368.218" cy="127.751" r="32.062"/>
<path style="fill:#3AC274;" d="M183.861,408.298c0-22.134,17.944-40.078,40.078-40.078s40.078,17.944,40.078,40.078
	c0,30.058-40.078,70.136-40.078,70.136S183.861,438.357,183.861,408.298z"/>
<path style="fill:#15B259;" d="M199.892,402.287c0-14.112,7.3-26.513,18.325-33.652c-19.423,2.777-34.356,19.474-34.356,39.664
	c0,30.058,40.078,70.136,40.078,70.136s4.572-4.574,10.626-11.785C223.627,454.483,199.892,425.42,199.892,402.287z"/>
<circle style="fill:#B6F1CF;" cx="223.937" cy="408.296" r="15.029"/>
<path style="fill:#3AC274;" d="M119.736,177.85c0-22.134,17.944-40.078,40.078-40.078s40.078,17.944,40.078,40.078
	c0,30.058-40.078,70.136-40.078,70.136S119.736,207.908,119.736,177.85z"/>
<path style="fill:#15B259;" d="M135.768,175.846c0-17.616,11.371-32.567,27.17-37.941c-1.032-0.079-2.071-0.133-3.123-0.133
	c-22.134,0-40.078,17.944-40.078,40.078c0,30.058,40.078,70.136,40.078,70.136s3.718-3.719,8.886-9.736
	C157.177,225.137,135.768,197.817,135.768,175.846z"/>
<circle style="fill:#B6F1CF;" cx="159.812" cy="177.848" r="15.029"/>
<path d="M368.22,167.33c-21.822,0-39.577-17.755-39.577-39.577s17.755-39.577,39.577-39.577s39.577,17.755,39.577,39.577
	S390.042,167.33,368.22,167.33z M368.22,103.205c-13.536,0-24.548,11.012-24.548,24.548S354.684,152.3,368.22,152.3
	s24.548-11.012,24.548-24.548S381.756,103.205,368.22,103.205z"/>
<path d="M223.939,485.949c-1.993,0-3.904-0.792-5.314-2.201c-1.726-1.726-42.278-42.656-42.278-75.45
	c0-26.242,21.351-47.593,47.593-47.593s47.593,21.351,47.593,47.593c0,32.794-40.553,73.724-42.278,75.45
	C227.843,485.158,225.932,485.949,223.939,485.949z M223.939,375.735c-17.956,0-32.563,14.608-32.563,32.563
	c0,18.956,20.197,45.417,32.563,59.18c12.365-13.761,32.563-40.223,32.563-59.18C256.503,390.343,241.895,375.735,223.939,375.735z"
	/>
<path d="M223.939,430.842c-12.43,0-22.544-10.113-22.544-22.544c0-12.431,10.114-22.544,22.544-22.544s22.544,10.113,22.544,22.544
	C246.483,420.73,236.369,430.842,223.939,430.842z M223.939,400.784c-4.144,0-7.515,3.371-7.515,7.515
	c0,4.144,3.371,7.515,7.515,7.515s7.515-3.371,7.515-7.515C231.454,404.154,228.083,400.784,223.939,400.784z"/>
<path d="M133.191,70.598l146.007,38.617c0.642,0.169,1.286,0.25,1.924,0.25c2.98,0,5.761-1.781,6.945-4.649l38.968-94.433
	c1.583-3.836-0.243-8.23-4.079-9.813c-3.839-1.583-8.231,0.243-9.813,4.08l-36.459,88.352L142.627,57.548V7.519
	c0-4.15-3.364-7.515-7.515-7.515s-7.515,3.365-7.515,7.515v55.816C127.598,66.744,129.894,69.727,133.191,70.598z"/>
<path d="M96.956,299.397L9.44,276.249c-4.009-1.061-8.124,1.332-9.187,5.343c-1.061,4.013,1.332,8.125,5.343,9.186l81.923,21.668
	v52.768c0,4.15,3.364,7.515,7.515,7.515c4.151,0,7.515-3.365,7.515-7.515v-58.553C102.549,303.252,100.253,300.269,96.956,299.397z"
	/>
<path d="M95.034,0.004c-4.151,0-7.515,3.365-7.515,7.515v35.454L9.44,22.321c-4.009-1.062-8.124,1.332-9.187,5.343
	c-1.061,4.013,1.332,8.125,5.343,9.186l87.516,23.147c0.634,0.167,1.279,0.25,1.922,0.25c1.64,0,3.256-0.538,4.584-1.56
	c1.849-1.423,2.931-3.623,2.931-5.955V7.519C102.549,3.369,99.184,0.004,95.034,0.004z"/>
<path d="M95.034,393.77c-4.151,0-7.515,3.365-7.515,7.515v103.201c0,4.15,3.364,7.515,7.515,7.515c4.151,0,7.515-3.365,7.515-7.515
	V401.285C102.549,397.135,99.184,393.77,95.034,393.77z"/>
<path d="M96.956,86.925L9.44,63.778c-4.009-1.062-8.124,1.332-9.187,5.343c-1.061,4.012,1.332,8.125,5.343,9.186L87.52,99.976
	v155.469L9.44,234.794c-4.009-1.062-8.124,1.332-9.187,5.343c-1.061,4.013,1.332,8.125,5.343,9.186l87.516,23.147
	c0.634,0.167,1.279,0.25,1.922,0.25c1.64,0,3.256-0.538,4.584-1.56c1.849-1.423,2.931-3.622,2.931-5.955V94.189
	C102.549,90.78,100.253,87.797,96.956,86.925z"/>
<path d="M127.598,275.806c0,3.41,2.296,6.392,5.593,7.264l258.473,68.365c0.642,0.169,1.286,0.25,1.924,0.25
	c2.98,0,5.761-1.781,6.944-4.649l63.626-154.187c0.827-2.003,0.748-4.264-0.214-6.205c-0.963-1.941-2.716-3.372-4.81-3.926
	l-32.643-8.634c3.932-7.683,7.272-15.55,9.633-23.362l34.592,9.149c0.642,0.169,1.286,0.25,1.924,0.25
	c2.98,0,5.761-1.781,6.944-4.649l31.849-77.181c1.583-3.836-0.243-8.23-4.079-9.813c-3.839-1.585-8.231,0.243-9.813,4.08
	l-29.34,71.1l-28.881-7.639c0.348-2.786,0.542-5.548,0.542-8.268c0-39.502-32.138-71.639-71.639-71.639
	c-6.074,0-11.971,0.765-17.607,2.195l19.776-47.924c1.583-3.836-0.243-8.23-4.079-9.813c-3.84-1.583-8.231,0.243-9.813,4.08
	L330.93,66.607c-20.583,12.601-34.349,35.293-34.349,61.143c0,4.018,0.404,8.122,1.143,12.274L137.034,97.526
	c-2.253-0.595-4.658-0.112-6.506,1.311c-1.849,1.423-2.931,3.622-2.931,5.955v38.069c-9.445,8.703-15.376,21.166-15.376,34.991
	c0,13.662,7.039,28.734,15.376,41.796C127.598,219.647,127.598,275.806,127.598,275.806z M368.22,71.142
	c31.215,0,56.61,25.395,56.61,56.61c0,36.579-41.6,85.015-56.61,101.301c-15.01-16.285-56.61-64.722-56.61-101.301
	C311.61,96.538,337.005,71.142,368.22,71.142z M142.627,114.551l159.71,42.241c15.718,43.25,58.364,86.286,60.569,88.492
	c1.41,1.41,3.32,2.201,5.314,2.201s3.904-0.792,5.314-2.201c1.671-1.671,26.555-26.783,45.355-57.665l28.101,7.432l-57.841,140.172
	L142.627,270.02v-29.937c6.332,7.631,11.294,12.638,11.874,13.218c1.41,1.41,3.32,2.201,5.314,2.201s3.904-0.792,5.314-2.201
	c1.726-1.726,42.278-42.656,42.278-75.45c0-26.242-21.351-47.593-47.593-47.593c-6.06,0-11.852,1.15-17.187,3.225L142.627,114.551
	L142.627,114.551z M159.814,145.287c17.956,0,32.563,14.608,32.563,32.563c0,18.957-20.198,45.419-32.563,59.18
	c-12.366-13.763-32.563-40.224-32.563-59.18C127.251,159.895,141.858,145.287,159.814,145.287z"/>
<path d="M506.407,407.693l-87.233-23.072c-3.644-0.963-7.431,0.918-8.868,4.399l-46.465,112.6c-1.583,3.836,0.243,8.23,4.079,9.813
	c0.939,0.387,1.909,0.57,2.864,0.57c2.952,0,5.753-1.751,6.95-4.65l43.957-106.52l80.874,21.391
	c4.014,1.065,8.125-1.332,9.187-5.343C512.811,412.867,510.418,408.754,506.407,407.693z"/>
<path d="M506.407,366.236l-63.511-16.798l60.351-146.251c1.583-3.836-0.243-8.23-4.079-9.813c-3.838-1.583-8.231,0.243-9.813,4.08
	l-63.627,154.187c-0.827,2.003-0.748,4.264,0.214,6.205c0.963,1.941,2.716,3.372,4.81,3.926l71.81,18.993
	c0.644,0.17,1.291,0.251,1.927,0.251c3.326,0,6.368-2.227,7.26-5.595C512.811,371.412,510.418,367.299,506.407,366.236z"/>
<path d="M384.894,378.208c-0.963-1.941-2.716-3.372-4.81-3.926l-243.05-64.285c-2.253-0.595-4.658-0.111-6.506,1.311
	c-1.849,1.423-2.931,3.622-2.931,5.955v187.223c0,4.15,3.364,7.515,7.515,7.515s7.515-3.365,7.515-7.515V327.022l225.314,59.594
	l-47.456,115.003c-1.583,3.836,0.243,8.23,4.079,9.813c0.939,0.387,1.909,0.57,2.864,0.57c2.952,0,5.753-1.751,6.95-4.65
	l50.732-122.939C385.935,382.411,385.856,380.149,384.894,378.208z"/>
<path d="M159.814,200.394c-12.43,0-22.544-10.113-22.544-22.544c0-12.431,10.114-22.544,22.544-22.544s22.544,10.113,22.544,22.544
	C182.358,190.281,172.245,200.394,159.814,200.394z M159.814,170.335c-4.144,0-7.515,3.371-7.515,7.515
	c0,4.144,3.371,7.515,7.515,7.515s7.515-3.371,7.515-7.515C167.329,173.706,163.958,170.335,159.814,170.335z"/>
<g>
</g>
<g>
</g>
<g>
</g>
<g>
</g>
<g>
</g>
<g>
</g>
<g>
</g>
<g>
</g>
<g>
</g>
<g>
</g>
<g>
</g>
<g>
</g>
<g>
</g>
<g>
</g>
<g>
</g>
</svg>
