<svg width="512" height="512" viewBox="0 0 512 512" fill="none" xmlns="http://www.w3.org/2000/svg">
<g clip-path="url(#clip0)">
<path d="M257.881 378.521C290.759 322.283 309.716 363.571 355.275 321.571C384.722 294.425 421.002 300.583 442.986 308.335C443.056 309.815 443.11 311.299 443.147 312.787C440.752 211.48 357.882 130.091 256 130.091C235.731 130.091 213.507 134.761 221.582 133.26C223.814 136.19 278.368 208.843 241.864 263.38C204.604 319.047 173.791 306.534 185.579 391.614C190.127 424.436 177.581 454.16 160.456 478.301C190.133 495.949 224.97 505.583 262.129 504.389C249.848 468.31 237.342 413.653 257.881 378.521V378.521Z" fill="#D3EFFB"/>
<path d="M239.287 130.842C329.734 138.846 401.69 211.163 409.132 301.767C421.901 302.092 433.716 305.066 442.986 308.335C443.056 309.815 443.11 311.299 443.147 312.787C440.597 204.942 347.56 121.261 239.287 130.842V130.842Z" fill="#B1E4F9"/>
<path d="M262.128 504.389C261.702 503.137 261.276 501.858 260.851 500.563C253.821 502.024 246.649 503.094 239.354 503.742C251.19 504.792 258.161 504.398 262.128 504.389V504.389Z" fill="#B1E4F9"/>
<path d="M68.796 317.296C68.796 385.78 105.577 445.664 160.456 478.302C177.581 454.161 190.127 424.437 185.579 391.615C173.791 306.535 204.604 319.048 241.864 263.381C278.368 208.845 223.814 136.192 221.582 133.261C134.633 149.421 68.796 225.665 68.796 317.296V317.296Z" fill="#80E29D"/>
<path d="M221.581 133.261C213.802 134.707 206.196 136.642 198.786 139.017C211.294 157.628 246.017 217.039 214.999 263.38C177.738 319.047 146.926 306.534 158.714 391.614C162.493 418.898 154.458 444.037 141.803 465.611C147.75 470.196 153.971 474.445 160.454 478.301C177.579 454.16 190.125 424.436 185.577 391.614C173.789 306.534 204.602 319.047 241.862 263.38C278.368 208.844 223.814 136.191 221.581 133.261V133.261Z" fill="#66B49D"/>
<path d="M355.275 321.571C309.715 363.571 290.759 322.283 257.881 378.521C237.342 413.652 249.848 468.311 262.128 504.39C365.421 501.066 447.96 413.888 442.986 308.336C421.002 300.584 384.722 294.425 355.275 321.571Z" fill="#80E29D"/>
<path d="M442.986 308.335C433.717 305.066 421.902 302.092 409.134 301.767C417.038 398.013 351.36 481.77 260.855 500.576C261.279 501.867 261.704 503.141 262.128 504.389C365.422 501.065 447.96 413.888 442.986 308.335V308.335Z" fill="#66B49D"/>
<path d="M319.65 179.495C277.217 197.254 234.783 197.254 192.35 179.495C188.256 177.782 185.579 173.787 185.579 169.35V67.3689H326.421V169.349C326.421 173.787 323.743 177.781 319.65 179.495V179.495Z" fill="#4A80AA"/>
<path d="M311.096 67.3689V162.814C311.096 167.252 308.418 171.246 304.325 172.959C265.997 189 227.669 190.547 189.341 177.61C190.223 178.382 191.231 179.025 192.35 179.494C234.783 197.253 277.217 197.253 319.65 179.494C323.744 177.781 326.421 173.786 326.421 169.349V67.3689H311.096Z" fill="#407093"/>
<path d="M365.103 71.5008C250.213 134.723 256.573 131.854 254.815 130.887L146.896 71.5008C145.2 70.5678 145.2 68.1309 146.896 67.1979L254.816 7.81182C255.553 7.40583 256.447 7.40583 257.184 7.81182L365.104 67.1979C366.799 68.1309 366.799 70.5678 365.103 71.5008V71.5008Z" fill="#365E7D"/>
<path d="M365.103 67.1979L257.184 7.81182C256.447 7.40583 255.553 7.40583 254.816 7.81182L241.864 14.9387L336.832 67.1979C338.528 68.1309 338.528 70.5678 336.832 71.5008L241.864 123.76C254.397 130.234 255.11 132.028 257.184 130.887L365.104 71.5008C366.799 70.5678 366.799 68.1309 365.103 67.1979V67.1979Z" fill="#2B4D66"/>
<path d="M404.676 191.592C402.001 188.43 397.268 188.036 394.107 190.712C390.945 193.388 390.551 198.12 393.227 201.281C416.432 228.7 430.802 262.461 434.654 297.946C423.245 294.975 412.135 293.773 401.504 294.379C381.843 295.501 364.579 302.795 350.193 316.057C331.234 333.536 317.833 335.176 304.872 336.763C287.555 338.883 271.198 340.885 251.408 374.737C231.545 408.711 239.813 458.202 251.828 496.948C222.75 496.282 195.361 488.673 171.248 475.722C179.406 463.063 185.443 450.241 189.215 437.508C190.391 433.536 188.125 429.363 184.153 428.187C180.178 427.014 176.007 429.277 174.832 433.249C171.419 444.772 165.875 456.459 158.334 468.073C108.995 436.003 76.2968 380.4 76.2968 317.297C76.2968 247.839 115.966 185.192 178.08 155.321V169.35C178.08 176.824 182.545 183.522 189.456 186.415C207.754 194.072 226.158 198.546 244.581 199.857C253.545 241.532 236.5 263.971 205.15 294.831C194.51 305.305 185.323 314.35 180.105 328.904C174.725 343.911 174.122 363.569 178.151 392.645C178.725 396.789 179.013 401.062 179.007 405.346C179.001 409.489 182.356 412.85 186.497 412.856H186.507C190.645 412.856 194.001 409.504 194.007 405.366C194.014 400.389 193.678 395.417 193.008 390.587C185.357 335.364 195.488 325.391 215.672 305.521C249.017 272.695 268.552 246.184 259.958 200.223C280.873 199.707 301.778 195.107 322.547 186.415C329.457 183.522 333.922 176.824 333.922 169.351V155.326C347.946 162.083 361.034 170.642 372.938 180.853C376.068 183.538 380.805 183.202 383.514 180.044C386.211 176.899 385.849 172.165 382.705 169.468C367.986 156.841 351.59 146.546 333.922 138.822V97.2215L368.72 78.0728C371.9 76.3238 373.875 72.9819 373.876 69.3529C373.877 65.723 371.902 62.38 368.721 60.6271L260.804 1.24298C257.797 -0.412993 254.205 -0.414993 251.2 1.24098L202.138 28.2386C198.509 30.2355 197.187 34.7965 199.183 38.4264C201.18 42.0543 205.74 43.3783 209.371 41.3814L256.001 15.7218L353.458 69.3499C345.683 73.6288 307.471 94.6565 298.78 99.4384L261.15 63.898C258.139 61.054 253.392 61.187 250.548 64.201C247.703 67.212 247.839 71.9589 250.851 74.8028L284.978 107.034L255.959 123.003C248.178 118.943 226.377 106.388 158.573 69.3339L182.564 56.1331C186.194 54.1362 187.516 49.5752 185.52 45.9463C183.523 42.3163 178.962 40.9944 175.333 42.9903L143.279 60.6291C140.099 62.38 138.125 65.723 138.126 69.3529C138.127 72.9819 140.103 76.3238 143.305 78.0838C156.45 85.2577 167.965 91.5656 178.08 97.1215V138.82C107.059 169.849 61.296 239.643 61.296 317.296C61.296 424.601 148.607 512 256 512C363.36 512 450.705 424.655 450.705 317.296C450.705 271.713 434.597 226.944 404.676 191.592V191.592ZM250.122 136.859C251.75 137.673 253.9 138.75 256.358 138.75C257.788 138.75 259.322 138.386 260.918 137.395L290.105 121.333V161.313C290.105 165.456 293.462 168.813 297.605 168.813C301.748 168.813 305.105 165.456 305.105 161.313V113.078L318.921 105.475V169.349C318.921 170.759 318.07 172.026 316.754 172.577C276.443 189.447 235.56 189.447 195.246 172.578C193.929 172.026 193.078 170.76 193.078 169.349V105.375C231.439 126.519 244.936 134.268 250.122 136.859V136.859ZM267.46 496.624C257.442 465.543 245.749 414.137 264.357 382.306C280.397 354.869 291.427 353.519 306.695 351.651C320.575 349.952 337.85 347.837 360.359 327.086C374.074 314.442 398.119 302.234 435.667 313.826C435.689 314.982 435.706 316.138 435.706 317.296C435.705 412.536 361.229 490.693 267.46 496.624V496.624Z" fill="black"/>
</g>
<defs>
<clipPath id="clip0">
<rect width="512" height="512" fill="white"/>
</clipPath>
</defs>
</svg>
