<svg width="512" height="512" viewBox="0 0 512 512" fill="none" xmlns="http://www.w3.org/2000/svg">
<path d="M345.694 129.353H361.536C426.267 129.353 467.508 198.446 436.855 255.459C428.315 271.343 417.875 286.755 405.535 301.693H297.738L345.694 129.353Z" fill="#F6E266"/>
<path d="M345.694 129.352L297.738 301.693H354.537C367.322 268 378.129 234.307 386.938 200.613C393.157 176.827 391.468 153.227 383.76 132.213C376.745 130.359 369.312 129.352 361.535 129.352H345.694Z" fill="#ECBE6B"/>
<path d="M204.713 129.353H188.871C124.14 129.353 82.8989 198.446 113.552 255.459C122.092 271.343 132.532 286.755 144.872 301.693H252.669L204.713 129.353Z" fill="#F6E266"/>
<path d="M204.713 129.352H188.871C181.094 129.352 173.661 130.359 166.646 132.213C158.939 153.227 157.25 176.827 163.468 200.613C172.277 234.307 183.084 268 195.869 301.693H252.668L204.713 129.352Z" fill="#ECBE6B"/>
<path d="M454.474 355.863H95.9331V331.947C95.9331 315.238 109.478 301.693 126.187 301.693H424.22C440.929 301.693 454.474 315.238 454.474 331.947V355.863Z" fill="#365E7D"/>
<path d="M424.22 301.693H391.907C408.616 301.693 422.161 315.238 422.161 331.947V355.863H454.474V331.947C454.474 315.238 440.929 301.693 424.22 301.693Z" fill="#2B4D66"/>
<path d="M186.722 199.082C195.665 233.286 207.194 267.489 221.311 301.693H329.096C343.213 267.489 354.742 233.286 363.685 199.082C378.8 141.27 334.959 84.822 275.204 84.822C215.448 84.822 171.607 141.27 186.722 199.082Z" fill="#DD636E"/>
<path d="M186.722 199.082C195.665 233.286 207.194 267.489 221.311 301.693H329.096C343.213 267.489 354.742 233.286 363.685 199.082C378.8 141.27 334.959 84.822 275.204 84.822C215.448 84.822 171.607 141.27 186.722 199.082Z" fill="#DD636E"/>
<path d="M275.204 84.822C270.676 84.822 266.241 85.151 261.915 85.775C314.685 93.389 351.078 145.65 337.108 199.082C328.165 233.286 316.636 267.489 302.519 301.693H329.097C343.214 267.49 354.743 233.286 363.686 199.082C378.8 141.27 334.959 84.822 275.204 84.822V84.822Z" fill="#C63D4F"/>
<path d="M266.692 95.6431L250.476 72.2811C248.01 68.7281 248.01 64.0171 250.476 60.4641L266.692 37.1021C270.813 31.1641 279.594 31.1641 283.716 37.1021L299.932 60.4641C302.398 64.0171 302.398 68.7281 299.932 72.2811L283.716 95.6431C279.594 101.581 270.813 101.581 266.692 95.6431Z" fill="#F6E266"/>
<path d="M299.932 60.4641L283.716 37.1021C279.595 31.1641 270.813 31.1641 266.692 37.1021L262.661 42.9091L274.846 60.4641C277.312 64.0171 277.312 68.7281 274.846 72.2811L262.661 89.8361L266.692 95.6431C270.813 101.581 279.595 101.581 283.716 95.6431L299.932 72.2811C302.398 68.7281 302.398 64.0171 299.932 60.4641V60.4641Z" fill="#ECBE6B"/>
<path d="M268.699 230.552L256.308 212.7C254.424 209.985 254.424 206.385 256.308 203.671L268.699 185.819C271.848 181.282 278.558 181.282 281.708 185.819L294.099 203.671C295.983 206.386 295.983 209.986 294.099 212.7L281.708 230.552C278.558 235.089 271.849 235.089 268.699 230.552Z" fill="#F6E266"/>
<path d="M496.769 494.325H82.105C40.902 494.325 7.5 460.923 7.5 419.72C7.5 378.517 40.902 345.115 82.105 345.115H496.769C501.039 345.115 504.5 348.576 504.5 352.846V486.593C504.5 490.864 501.039 494.325 496.769 494.325Z" fill="#80E29D"/>
<path d="M467.55 345.115V494.325H496.769C501.039 494.325 504.5 490.864 504.5 486.594V352.847C504.5 348.577 501.039 345.116 496.769 345.116H467.55V345.115Z" fill="#66B49D"/>
<path d="M50.937 419.72C50.937 402.507 64.891 388.552 82.104 388.552H504.5V450.887H82.104C64.891 450.888 50.937 436.934 50.937 419.72V419.72Z" fill="#FFF6F4"/>
<path d="M467.55 388.553H504.5V450.888H467.55V388.553Z" fill="#D8E2F1"/>
<path d="M262.538 234.829C265.418 238.978 270.153 241.456 275.203 241.456C280.254 241.456 284.989 238.978 287.869 234.829L300.263 216.975C303.909 211.717 303.909 204.652 300.261 199.394L287.869 181.542C284.989 177.393 280.254 174.915 275.203 174.915C270.153 174.915 265.418 177.393 262.538 181.542L250.145 199.395C246.498 204.652 246.498 211.717 250.146 216.977L262.538 234.829ZM262.469 207.947L274.861 190.095C274.908 190.029 274.986 189.915 275.204 189.915C275.423 189.915 275.501 190.028 275.548 190.095L287.939 207.946C288.039 208.09 288.039 208.282 287.94 208.425L275.548 226.277C275.501 226.343 275.423 226.457 275.204 226.457C274.986 226.457 274.908 226.344 274.861 226.277L262.471 208.427C262.37 208.282 262.37 208.089 262.469 207.947V207.947Z" fill="black"/>
<path d="M115.938 427.22H466.026C470.169 427.22 473.526 423.863 473.526 419.72C473.526 415.577 470.169 412.22 466.026 412.22H115.938C111.795 412.22 108.438 415.577 108.438 419.72C108.438 423.863 111.795 427.22 115.938 427.22V427.22Z" fill="black"/>
<path d="M496.769 337.616H461.975V331.947C461.975 311.13 445.038 294.193 424.22 294.193H420.948C429.494 282.732 437.044 270.948 443.461 259.011C454.727 238.058 457.61 214.015 451.582 191.31C450.52 187.307 446.414 184.924 442.408 185.986C438.405 187.049 436.021 191.156 437.084 195.16C442.132 214.17 439.704 234.323 430.25 251.908C422.499 266.324 412.996 280.535 401.978 294.193H340.218C352.532 263.206 362.856 231.901 370.941 200.98C376.622 179.251 374.858 157.039 366.09 136.982C390.619 138.346 411.939 150.664 425.56 170.285C427.93 173.698 432.606 174.524 435.998 172.169C439.4 169.807 440.244 165.133 437.882 161.731C431.114 151.982 422.827 143.841 413.437 137.503L417.144 128.346L418.529 129.113C419.68 129.751 420.926 130.052 422.155 130.052C424.795 130.052 427.354 128.656 428.723 126.184C430.729 122.56 429.418 117.996 425.794 115.99L422.814 114.34L423.324 113.081C424.878 109.242 423.026 104.869 419.186 103.314C415.489 101.817 411.31 103.484 409.614 107.032L407.733 105.991C404.107 103.984 399.545 105.297 397.539 108.92C395.533 112.544 396.844 117.108 400.468 119.114L403.923 121.027L400.242 130.118C379.206 120.559 359.39 121.997 357.854 121.853C344.819 102.113 325.206 87.737 302.843 81.238L306.091 76.558C310.32 70.466 310.32 62.281 306.091 56.189L289.875 32.825C288.037 30.178 285.545 28.122 282.701 26.806V17.677C282.701 13.534 279.344 10.177 275.201 10.177C271.058 10.177 267.701 13.534 267.701 17.677V26.807C264.857 28.123 262.366 30.179 260.528 32.827L244.313 56.189C240.083 62.281 240.083 70.468 244.312 76.559L247.56 81.239C225.196 87.738 205.583 102.114 192.548 121.854C190.367 122.062 171.923 120.281 150.181 130.169L146.48 121.028L149.935 119.115C153.559 117.108 154.87 112.545 152.864 108.921C150.857 105.298 146.295 103.988 142.67 105.992L140.789 107.033C139.093 103.485 134.914 101.818 131.217 103.315C127.377 104.87 125.526 109.243 127.079 113.082L127.589 114.341L124.609 115.991C120.985 117.998 119.674 122.561 121.68 126.185C123.049 128.658 125.609 130.053 128.248 130.053C129.477 130.053 130.723 129.75 131.874 129.114L133.259 128.347L136.983 137.545C125.822 145.054 116.248 155.057 109.022 167.146C92.054 195.533 91.277 229.875 106.943 259.013C113.359 270.947 120.91 282.731 129.457 294.195H126.185C105.367 294.195 88.43 311.132 88.43 331.949V337.618H82.103C36.832 337.616 0 374.448 0 419.72C0 464.992 36.832 501.824 82.105 501.824H389.108C393.251 501.824 396.608 498.467 396.608 494.324C396.608 490.181 393.251 486.824 389.108 486.824H82.105C45.104 486.825 15 456.722 15 419.72C15 382.718 45.104 352.616 82.105 352.616H496.768C496.896 352.616 496.999 352.72 496.999 352.846V381.052H135.077C130.934 381.052 127.577 384.409 127.577 388.552C127.577 392.695 130.934 396.052 135.077 396.052H497V443.387H82.104C69.053 443.387 58.436 432.77 58.436 419.72C58.436 406.669 69.053 396.052 82.104 396.052H105.09C109.233 396.052 112.59 392.695 112.59 388.552C112.59 384.409 109.233 381.052 105.09 381.052H82.104C60.783 381.052 43.436 398.399 43.436 419.72C43.436 441.041 60.783 458.387 82.104 458.387H497V486.593C497 486.721 496.896 486.824 496.769 486.824H419.096C414.953 486.824 411.596 490.181 411.596 494.324C411.596 498.467 414.953 501.824 419.096 501.824H496.769C505.167 501.824 512 494.991 512 486.593V352.846C512 344.448 505.167 337.616 496.769 337.616V337.616ZM256.637 64.741L272.853 41.378C273.596 40.309 274.644 40.149 275.204 40.149C275.764 40.149 276.812 40.309 277.556 41.378L293.772 64.741C294.449 65.717 294.449 67.029 293.772 68.005L277.556 91.366C276.813 92.436 275.764 92.596 275.204 92.596C274.644 92.596 273.597 92.436 272.853 91.367L256.636 68.004C255.959 67.028 255.959 65.717 256.637 64.741ZM256.677 94.367L260.531 99.919C263.867 104.726 269.352 107.596 275.203 107.596H275.204C281.056 107.596 286.541 104.727 289.878 99.919L293.732 94.367C314.951 99.134 333.713 112.178 345.717 130.681C358.633 150.588 362.438 174.206 356.43 197.185C348.019 229.357 337.136 261.97 324.063 294.193H304.53L307.832 282.984C309.003 279.011 306.73 274.841 302.757 273.671C298.78 272.502 294.613 274.772 293.444 278.746L288.893 294.193H261.518L256.967 278.746C255.797 274.773 251.629 272.5 247.654 273.671C243.68 274.842 241.408 279.012 242.579 282.984L245.881 294.193H226.349C213.277 261.971 202.394 229.359 193.981 197.185C181.578 149.76 212.216 104.355 256.677 94.367V94.367ZM120.157 251.908C107.015 227.464 107.667 198.653 121.9 174.841C135.334 152.365 158.428 138.455 184.314 136.989C175.548 157.044 173.785 179.254 179.465 200.981C187.551 231.904 197.876 263.209 210.189 294.194H148.429C137.41 280.532 127.907 266.321 120.157 251.908V251.908ZM103.433 337.616V331.947C103.433 319.4 113.641 309.193 126.188 309.193H424.22C436.767 309.193 446.975 319.4 446.975 331.947V337.616H103.433Z" fill="black"/>
</svg>
