<svg id="Layer_1" enable-background="new 0 0 512 512" height="512" viewBox="0 0 512 512" width="512" xmlns="http://www.w3.org/2000/svg"><g><g clip-rule="evenodd" fill-rule="evenodd"><path d="m34.499 45.596h443.004c3.203 0 5.84 2.637 5.84 5.84v334.123c0 3.203-2.637 5.84-5.84 5.84h-443.004c-3.203 0-5.811-2.637-5.811-5.84v-334.123c0-3.204 2.607-5.84 5.811-5.84z" fill="#fff9df"/><path d="m448.39 45.596h29.112c3.203 0 5.84 2.637 5.84 5.84v334.123c0 3.203-2.637 5.84-5.84 5.84h-29.112c3.203 0 5.811-2.637 5.811-5.84v-334.123c-.001-3.204-2.608-5.84-5.811-5.84z" fill="#fff3bf"/><path d="m28.688 22.55h454.654c11.65 0 21.175 9.523 21.175 21.175 0 11.623-9.524 21.176-21.175 21.176h-454.654c-11.651 0-21.175-9.553-21.175-21.176-.001-11.652 9.524-21.175 21.175-21.175z" fill="#d68756"/><path d="m454.2 22.55h29.142c11.65 0 21.175 9.523 21.175 21.175 0 11.623-9.524 21.176-21.175 21.176h-29.142c11.65 0 21.176-9.553 21.176-21.176 0-11.652-9.525-21.175-21.176-21.175z" fill="#c47443"/><path d="m104.685 165.73c15.705 9.07 34.271 8.021 47.227-1.219 1.502-15.846-6.861-32.429-22.564-41.501-12.926-7.399-29.424-9.07-44.419-.651-3.572 2.013-3.09 4.28-2.891 7.853.905 15.845 10.685 28.544 22.647 35.518z" fill="#b3e59f"/><path d="m113.104 169.556c13.578 4.621 28.091 2.58 38.807-5.045 1.502-15.846-6.861-32.429-22.564-41.501-10.97-6.264-24.492-8.418-37.503-3.798 2.92.992 5.726 2.296 8.391 3.798 12.303 7.116 20.098 18.851 22.168 31.211 1.728 10.346.622 11.763-9.299 15.335z" fill="#95d6a4"/><path d="m151.911 339.069c-10.092 0-19.787 8.59-28.772 5.387-33.308-11.821-57.147-43.626-57.147-80.987 0-24.719 4.167-40.479 20.891-56.155 24.946-23.357 43.456 1.219 65.028 1.219 21.543 0 40.082-24.576 64.999-1.219 16.753 15.677 20.892 31.436 20.892 56.155 0 37.361-23.84 69.166-57.119 80.987-9.014 3.203-18.681-5.387-28.772-5.387z" fill="#fc7070"/><path d="m178.755 200.681c11.792-4.422 23.925-6.689 38.155 6.633 16.753 15.677 20.892 31.436 20.892 56.155 0 37.361-23.84 69.166-57.119 80.987-6.435 2.268-13.21-1.446-20.211-3.742 28.545-13.975 48.218-43.314 48.218-77.245 0-24.719-4.167-40.479-20.892-56.155-3.119-2.892-6.123-5.075-9.043-6.633z" fill="#d15a63"/><path d="m281.115 104.698h44.788c3.203 0 5.811 2.636 5.811 5.839v44.761c0 3.203-2.607 5.811-5.811 5.811h-44.788c-3.203 0-5.811-2.607-5.811-5.811v-44.761c0-3.203 2.608-5.839 5.811-5.839z" fill="#b3e59f"/><path d="m281.115 196.372h44.788c3.203 0 5.811 2.636 5.811 5.839v44.76c0 3.203-2.607 5.811-5.811 5.811h-44.788c-3.203 0-5.811-2.608-5.811-5.811v-44.76c0-3.203 2.608-5.839 5.811-5.839z" fill="#fc7070"/><path d="m281.115 288.045h44.788c3.203 0 5.811 2.608 5.811 5.812v44.788c0 3.203-2.607 5.812-5.811 5.812h-44.788c-3.203 0-5.811-2.608-5.811-5.812v-44.788c0-3.204 2.608-5.812 5.811-5.812z" fill="#6bbef6"/></g><path d="m475.83 132.847c0-4.138 3.373-7.513 7.512-7.513s7.483 3.375 7.483 7.513v258.552c0 4.139-3.345 7.483-7.483 7.483h-219.83v32.655c6.123 1.445 11.622 4.563 15.931 8.872 5.981 5.981 9.694 14.259 9.694 23.414 0 9.157-3.713 17.435-9.694 23.415-6.009 6.01-14.286 9.724-23.442 9.724s-17.433-3.714-23.415-9.724c-6.01-5.98-9.723-14.258-9.723-23.415 0-9.155 3.713-17.433 9.723-23.414 4.309-4.309 9.78-7.427 15.931-8.872v-32.655h-219.829c-4.167 0-7.513-3.345-7.513-7.483v-33.989c0-4.139 3.346-7.483 7.513-7.483 4.138 0 7.483 3.345 7.483 7.483v26.477h439.659zm-110.44 176.345c-4.139 0-7.483-3.373-7.483-7.512 0-4.14 3.345-7.484 7.483-7.484h89.122c4.139 0 7.484 3.345 7.484 7.484s-3.346 7.512-7.484 7.512zm0 29.113c-4.139 0-7.483-3.345-7.483-7.483s3.345-7.512 7.483-7.512h73.589c4.139 0 7.512 3.373 7.512 7.512s-3.373 7.483-7.512 7.483zm0-120.785c-4.139 0-7.483-3.346-7.483-7.513 0-4.139 3.345-7.484 7.483-7.484h89.122c4.139 0 7.484 3.346 7.484 7.484 0 4.167-3.346 7.513-7.484 7.513zm0 29.111c-4.139 0-7.483-3.345-7.483-7.483 0-4.139 3.345-7.512 7.483-7.512h73.589c4.139 0 7.512 3.373 7.512 7.512s-3.373 7.483-7.512 7.483zm0-120.786c-4.139 0-7.483-3.345-7.483-7.483 0-4.139 3.345-7.512 7.483-7.512h89.122c4.139 0 7.484 3.373 7.484 7.512s-3.346 7.483-7.484 7.483zm0 29.14c-4.139 0-7.483-3.373-7.483-7.512s3.345-7.512 7.483-7.512h73.589c4.139 0 7.512 3.373 7.512 7.512s-3.373 7.512-7.512 7.512zm-90.086 125.548h56.41c4.139 0 7.513 3.373 7.513 7.512v56.411c0 4.139-3.374 7.512-7.513 7.512h-56.41c-4.139 0-7.512-3.373-7.512-7.512v-56.411c0-4.139 3.373-7.512 7.512-7.512zm48.898 15.024h-41.387v41.388h41.387zm-48.898-106.669h56.41c4.139 0 7.513 3.346 7.513 7.484v56.41c0 4.139-3.374 7.512-7.513 7.512h-56.41c-4.139 0-7.512-3.373-7.512-7.512v-56.41c0-4.139 3.373-7.484 7.512-7.484zm48.898 14.996h-41.387v41.415h41.387zm-48.898-106.669h56.41c4.139 0 7.513 3.345 7.513 7.483v56.41c0 4.139-3.374 7.512-7.513 7.512h-56.41c-4.139 0-7.512-3.373-7.512-7.512v-56.41c0-4.138 3.373-7.483 7.512-7.483zm48.898 14.995h-41.387v41.415h41.387zm-179.804 87.677v-23.188c-4.847 1.7-10.006 2.636-15.279 2.749-18.765.511-36.737-9.268-46.8-25.058-4.365-6.86-7.257-14.882-7.738-23.782-.426-7.429-.567-10.688 6.689-14.771 8.334-4.705 17.149-6.689 25.71-6.576 19.163.283 37.333 11.169 46.489 28.064 4.592 8.419 6.69 17.915 5.925 27.212v35.349c3.6-.964 7.256-2.439 10.913-3.912 15.817-6.406 31.72-12.841 51.733 5.896 6.973 6.52 11.99 13.096 15.563 20.269 3.572 7.172 5.67 14.825 6.747 23.471.51 4.11-2.438 7.853-6.548 8.362-4.111.482-7.824-2.438-8.335-6.548-.879-6.974-2.495-13.04-5.273-18.596-2.806-5.584-6.803-10.8-12.416-16.044-12.982-12.191-24.492-7.569-35.915-2.949-7.654 3.119-15.279 6.181-23.953 6.181-8.703 0-16.329-3.062-23.982-6.181-11.424-4.62-22.904-9.241-35.915 2.949-7.455 6.974-12.075 13.861-14.797 21.686-2.806 8.05-3.713 17.404-3.713 28.998 0 16.838 5.272 32.428 14.287 45.185 9.241 13.124 22.423 23.272 37.815 28.743 2.608.907 6.689-.596 10.885-2.183 4.848-1.786 9.78-3.657 15.421-3.657 5.612 0 10.573 1.871 15.392 3.657 4.224 1.587 8.306 3.09 10.885 2.183 12.898-4.592 24.237-12.444 33.024-22.592 8.702-10.035 14.882-22.31 17.575-35.888.822-4.054 4.762-6.69 8.816-5.896 4.082.822 6.718 4.762 5.896 8.815-3.203 16.13-10.602 30.758-20.976 42.748-10.46 12.104-23.981 21.458-39.346 26.929-7.653 2.722-14.258.255-21.089-2.296-3.515-1.304-7.115-2.637-10.176-2.637-3.09 0-6.69 1.333-10.206 2.637-6.803 2.551-13.408 5.018-21.062 2.296-18.369-6.52-34.073-18.624-45.1-34.242-10.743-15.222-17.065-33.79-17.065-53.803 0-13.125 1.162-23.982 4.621-33.931 3.543-10.148 9.383-18.965 18.652-27.667 20.013-18.737 35.916-12.303 51.733-5.896 3.685 1.475 7.342 2.95 10.913 3.914zm-15.618-35.376c5.641-.143 11.083-1.588 15.817-4.225-.085-5.414-1.559-10.856-4.252-15.816-6.548-12.076-19.814-20.07-33.535-20.268-4.394-.057-17.49 2.466-17.348 4.678.368 6.52 1.899 11.934 5.471 17.489 7.229 11.366 20.354 18.51 33.847 18.142zm127.248 281.171c-4.847 0-9.411 1.899-12.841 5.329-3.288 3.288-5.301 7.796-5.301 12.813 0 5.019 2.013 9.554 5.301 12.813 3.288 3.288 7.823 5.329 12.813 5.329 5.018 0 9.553-2.041 12.813-5.329 3.288-3.26 5.329-7.795 5.329-12.813 0-5.017-2.041-9.524-5.329-12.813-3.26-3.288-7.795-5.301-12.785-5.329zm-227.34-430.644h454.654c7.88 0 15.052 3.231 20.239 8.418 5.216 5.188 8.419 12.359 8.419 20.269 0 7.881-3.203 15.053-8.419 20.24-3.486 3.486-7.853 6.094-12.756 7.426v27.469c0 4.139-3.345 7.512-7.483 7.512s-7.512-3.373-7.512-7.512v-26.477h-439.659v251.067c0 4.139-3.345 7.484-7.483 7.484-4.167 0-7.513-3.346-7.513-7.484v-252.059c-4.904-1.332-9.269-3.939-12.756-7.426-5.187-5.188-8.419-12.36-8.419-20.24 0-7.909 3.232-15.081 8.419-20.269 5.187-5.187 12.359-8.418 20.269-8.418zm454.654 14.994h-454.654c-3.77 0-7.172 1.56-9.667 4.025-2.466 2.495-4.025 5.897-4.025 9.667 0 3.742 1.559 7.144 4.025 9.639 2.495 2.494 5.897 4.025 9.667 4.025h454.654c3.741 0 7.171-1.531 9.638-4.025 2.494-2.495 4.025-5.896 4.025-9.639 0-3.771-1.531-7.172-4.025-9.667-2.467-2.465-5.897-4.025-9.638-4.025z"/></g></svg>