<svg width="512" height="512" viewBox="0 0 512 512" fill="none" xmlns="http://www.w3.org/2000/svg">
<g clip-path="url(#clip0)">
<path d="M398.212 128.017H359.839C328.371 128.017 298.074 133.013 269.675 142.222L264.55 190.7L376.434 302.585H430.038C439.247 274.185 444.243 243.889 444.243 212.421V174.047C444.242 148.624 423.634 128.017 398.212 128.017V128.017Z" fill="#365E7D"/>
<path d="M242.326 490.294L236.65 434.975L130.432 328.756L81.9651 329.933C72.7564 358.332 67.76 388.628 67.76 420.096V458.47C67.76 483.891 88.3685 504.5 113.79 504.5H152.163C183.629 504.5 213.931 499.523 242.327 490.315C242.326 490.314 242.326 490.314 242.326 490.294V490.294Z" fill="#365E7D"/>
<path d="M444.242 174.046C444.242 153.641 430.964 136.439 412.761 130.377C412.755 130.375 412.748 130.373 412.742 130.371C414.261 134.939 415.096 139.82 415.096 144.9V183.274C415.096 225.777 406.008 266.155 389.684 302.585H430.037C446.476 251.888 443.957 215.543 444.242 186.838V174.046Z" fill="#2B4D66"/>
<path d="M238.364 451.675C202.977 466.904 163.985 475.352 123.016 475.352H84.6424C79.563 475.352 74.6816 474.517 70.1133 472.998C70.1133 473 70.1143 473.001 70.1153 473.003C76.3597 491.776 93.97 504.499 113.79 504.499C160.827 504.462 192.398 506.462 242.327 490.294L238.364 451.675Z" fill="#2B4D66"/>
<path d="M81.9641 329.932L242.326 490.293C331.108 461.505 401.248 391.365 430.036 302.583L269.674 142.222C180.892 171.01 110.752 241.15 81.9641 329.932V329.932Z" fill="#DD636E"/>
<path d="M400.89 273.436C372.102 362.218 301.962 432.358 213.18 461.146L242.327 490.293H242.328C331.109 461.505 401.249 391.366 430.037 302.584C430.037 302.583 430.037 302.583 430.038 302.583L400.89 273.436Z" fill="#C63D4F"/>
<path d="M277.846 196.612C231.189 216.137 184.533 216.137 137.876 196.612C133.375 194.727 130.431 190.336 130.431 185.457V73.3264H285.29V185.457C285.29 190.336 282.347 194.727 277.846 196.612Z" fill="#4A80AA"/>
<path d="M268.441 73.3264V178.271C268.441 183.151 265.497 187.543 260.996 189.426C218.853 207.062 176.711 208.764 134.568 194.539C135.537 195.387 136.646 196.096 137.876 196.611C184.533 216.136 231.189 216.136 277.846 196.611C282.347 194.726 285.29 190.335 285.29 185.456V73.3264H268.441Z" fill="#407093"/>
<path d="M327.823 77.8698C201.499 147.384 208.492 144.23 206.559 143.167L87.8986 77.8698C86.0345 76.8437 86.0345 74.1645 87.8986 73.1384L206.559 7.84258C207.369 7.39655 208.353 7.39655 209.163 7.84258L327.823 73.1394C329.688 74.1645 329.688 76.8437 327.823 77.8698V77.8698Z" fill="#365E7D"/>
<path d="M327.823 73.1384L209.163 7.84258C208.353 7.39655 207.369 7.39655 206.559 7.84258L192.318 15.6792L296.738 73.1394C298.602 74.1655 298.602 76.8447 296.738 77.8708L192.318 135.33C206.098 142.449 206.882 144.421 209.163 143.167L327.823 77.8698C329.688 76.8437 329.688 74.1645 327.823 73.1384V73.1384Z" fill="#2B4D66"/>
<path d="M263.502 250.465C260.571 247.536 255.823 247.536 252.894 250.465C249.965 253.395 249.965 258.143 252.894 261.072L276.737 284.915L256.001 305.651L232.158 281.808C229.228 278.88 224.48 278.88 221.55 281.808C218.621 284.738 218.621 289.487 221.55 292.416L245.393 316.258L224.658 336.993L200.815 313.15C197.885 310.222 193.136 310.222 190.207 313.15C187.278 316.08 187.278 320.829 190.207 323.758L214.05 347.601L202.02 359.631C199.091 362.561 199.091 367.309 202.02 370.238C204.951 373.168 209.699 373.167 212.628 370.238L224.658 358.209L248.5 382.05C251.431 384.98 256.178 384.979 259.107 382.05C262.037 379.12 262.037 374.372 259.107 371.443L235.266 347.601L256.001 326.865L279.844 350.708C282.775 353.637 287.522 353.636 290.452 350.708C293.381 347.778 293.381 343.029 290.452 340.1L266.609 316.257L287.344 295.523L311.187 319.366C314.118 322.295 318.866 322.294 321.795 319.366C324.724 316.436 324.724 311.687 321.795 308.758L297.952 284.915L309.982 272.885C312.911 269.955 312.911 265.207 309.982 262.277C307.052 259.349 302.303 259.349 299.374 262.277L287.344 274.307L263.502 250.465Z" fill="black"/>
<path d="M398.212 120.516H359.839C337.217 120.516 314.708 123.053 292.791 128.066V105.709L331.441 84.4403C334.699 82.6462 336.722 79.2219 336.722 75.5026C336.722 71.7844 334.699 68.3601 331.44 66.565L276.505 36.3347C272.872 34.3376 268.314 35.6627 266.316 39.29C264.32 42.9192 265.642 47.4806 269.271 49.4787L316.564 75.5016C304.863 81.9401 267.281 102.621 254.78 109.5L213.01 70.0502C210 67.206 205.251 67.34 202.407 70.3533C199.562 73.3645 199.698 78.1118 202.71 80.956L240.977 117.097L207.826 135.34C200.773 131.701 173.561 116.126 99.1864 75.4866L207.861 15.6842L242.635 34.8216C246.266 36.8198 250.825 35.4947 252.824 31.8664C254.82 28.2371 253.498 23.6758 249.869 21.6776L212.774 1.26613C209.696 -0.423996 206.022 -0.424996 202.942 1.26913L84.2813 66.568C81.0231 68.3621 78.9999 71.7864 78.9999 75.5046C78.9999 79.2239 81.0231 82.6482 84.3063 84.4543C98.9294 92.4349 111.715 99.4384 122.931 105.6V185.457C122.931 193.372 127.661 200.467 134.981 203.531C139.273 205.327 143.572 206.956 147.874 208.434C122.029 234.275 101.362 264.206 86.3785 297.591C69.0462 336.213 60.2585 377.43 60.2585 420.095V458.468C60.2585 487.985 84.2733 511.999 113.79 511.999H152.162C226.166 511.999 297.216 484.794 352.227 435.394C406.81 386.378 441.448 319.425 449.758 246.868C450.231 242.753 447.276 239.035 443.16 238.563C439.039 238.089 435.326 241.045 434.854 245.161C433.172 259.849 430.343 274.292 426.447 288.384L292.791 154.73V143.483C314.664 138.2 337.189 135.517 359.839 135.517H398.212C419.456 135.517 436.741 152.801 436.741 174.046C436.737 177.946 436.757 159.171 436.697 215.935C436.645 220.112 440.016 223.528 444.198 223.528C448.298 223.528 451.646 220.229 451.696 216.119C451.758 159.128 451.738 177.949 451.742 174.047C451.743 144.53 427.729 120.516 398.212 120.516V120.516ZM137.931 185.457V113.853C181.18 137.686 195.976 146.189 201.731 149.067C205.619 151.01 208.992 152.11 212.892 149.674L246.106 131.398V173.621C246.106 177.764 249.464 181.121 253.607 181.121C257.75 181.121 261.107 177.764 261.107 173.621V123.143L277.79 113.964V185.456C277.79 187.308 276.675 188.97 274.949 189.691C230.432 208.324 185.29 208.322 140.773 189.692C139.047 188.97 137.931 187.307 137.931 185.457V185.457ZM421.433 304.588C405.83 350.187 378.725 391.438 342.204 424.234C313.492 450.016 280.174 469.419 244.323 481.682L163.366 400.724C160.436 397.797 155.688 397.795 152.758 400.724C149.829 403.654 149.829 408.402 152.758 411.332L228.12 486.694C203.596 493.477 178.072 496.998 152.163 496.998H113.791C92.5449 496.998 75.2607 479.714 75.2607 458.468V420.095C75.2607 394.094 78.7129 368.667 85.5194 344.093L131.553 390.126C133.018 391.59 134.938 392.322 136.857 392.322C138.776 392.322 140.697 391.59 142.162 390.126C145.091 387.196 145.091 382.447 142.162 379.518L90.5428 327.899C93.343 319.738 96.5032 311.674 100.066 303.734C115.419 269.522 137.058 239.129 164.382 213.309C178.852 216.9 193.357 218.71 207.863 218.71C232.213 218.71 256.563 213.65 280.743 203.531C288.062 200.468 292.793 193.372 292.793 185.457V175.946L421.433 304.588Z" fill="black"/>
</g>
<defs>
<clipPath id="clip0">
<rect width="512" height="512" fill="white"/>
</clipPath>
</defs>
</svg>
