<svg width="512" height="512" viewBox="0 0 512 512" fill="none" xmlns="http://www.w3.org/2000/svg">
<path d="M18.973 127.638C12.637 127.638 7.50098 132.774 7.50098 139.11V362.244C7.50098 384.07 25.194 401.763 47.02 401.763H212.71C217.68 401.763 222.061 405.021 223.492 409.781L225.501 414.465C226.931 419.224 231.313 422.483 236.283 422.483H275.719C280.689 422.483 285.07 419.225 286.501 414.465L288.51 409.781C289.94 405.022 294.322 401.763 299.292 401.763H464.983C486.809 401.763 504.502 384.07 504.502 362.244V139.11C504.502 132.774 499.366 127.638 493.03 127.638H314.006L255.436 207.38L189.724 127.638H18.973Z" fill="#80E29D"/>
<path d="M493.028 127.638H468.186C474.522 127.638 479.658 132.774 479.658 139.11V362.244C479.658 384.07 461.965 401.763 440.139 401.763H464.981C486.807 401.763 504.5 384.07 504.5 362.244V139.11C504.5 132.774 499.364 127.638 493.028 127.638V127.638Z" fill="#66B49D"/>
<path d="M456.222 358.356H281.723C267.517 358.356 256 346.84 256 332.633L226 320.953V156.615L256 143.874C256 113.854 280.336 89.5179 310.356 89.5179H456.221C459.986 89.5179 463.039 92.5699 463.039 96.3359V351.539C463.04 355.304 459.987 358.356 456.222 358.356V358.356Z" fill="#FFF6F4"/>
<path d="M456.222 89.517H433.321C437.086 89.517 440.139 92.569 440.139 96.335V351.538C440.139 355.303 437.087 358.356 433.321 358.356H456.222C459.987 358.356 463.04 355.304 463.04 351.538V96.335C463.04 92.57 459.987 89.517 456.222 89.517V89.517Z" fill="#D8E2F1"/>
<path d="M230.278 358.356H55.779C52.014 358.356 48.961 355.304 48.961 351.538V96.335C48.961 92.57 52.013 89.517 55.779 89.517H201.644C231.664 89.517 256 113.853 256 143.873V332.633C256 346.84 244.484 358.356 230.278 358.356V358.356Z" fill="#FFF6F4"/>
<path d="M201.644 89.517H178.123C208.143 89.517 232.479 113.853 232.479 143.873V332.633C232.479 346.839 220.963 358.356 206.756 358.356H230.277C244.483 358.356 256 346.84 256 332.633V143.873C256 113.853 231.664 89.517 201.644 89.517Z" fill="#D8E2F1"/>
<path d="M127.621 214.754C113.005 200.138 113.005 176.442 127.621 161.827L150.559 138.889C165.174 124.274 188.871 124.274 203.486 138.889C218.101 153.504 218.101 177.201 203.486 191.816L180.548 214.754C165.933 229.37 142.236 229.37 127.621 214.754V214.754Z" fill="#80E29D"/>
<path d="M204.066 139.498C205.406 150.526 201.854 162.036 193.39 170.5L161.077 202.813C151.495 212.395 138.01 215.694 125.74 212.712C126.341 213.408 126.961 214.093 127.622 214.754C142.237 229.369 165.934 229.369 180.549 214.754L203.487 191.816C217.903 177.4 218.089 154.155 204.066 139.498Z" fill="#66B49D"/>
<path d="M417.298 193.279C415.275 199.538 403.537 200.324 399.521 205.037C395.358 209.923 396.373 221.588 390.746 224.466C385.12 227.344 376.255 219.694 369.857 220.21C363.685 220.708 356.178 229.766 349.919 227.743C343.66 225.72 342.874 213.982 338.161 209.966C333.275 205.803 321.61 206.818 318.732 201.191C315.854 195.565 323.504 186.7 322.988 180.302C322.49 174.13 313.432 166.623 315.455 160.364C317.478 154.105 329.216 153.319 333.232 148.606C337.395 143.72 336.38 132.055 342.007 129.177C347.633 126.299 356.498 133.949 362.896 133.433C369.068 132.935 376.575 123.877 382.834 125.9C389.093 127.923 389.879 139.661 394.592 143.677C399.478 147.84 411.143 146.825 414.021 152.452C416.899 158.078 409.249 166.943 409.765 173.341C410.262 179.513 419.32 187.02 417.298 193.279Z" fill="#DD636E"/>
<path d="M409.764 173.341C409.248 166.943 416.898 158.078 414.02 152.452C411.142 146.825 399.477 147.84 394.591 143.677C389.878 139.661 389.092 127.923 382.833 125.9C376.914 123.987 369.881 131.978 363.914 133.275C365.626 137.173 367.024 141.53 369.545 143.678C374.431 147.841 386.096 146.826 388.974 152.453C391.852 158.079 384.202 166.944 384.718 173.342C385.216 179.515 394.274 187.021 392.251 193.28C390.228 199.539 378.49 200.325 374.473 205.038C371.475 208.557 371.152 215.578 369.111 220.314C369.361 220.268 369.61 220.23 369.855 220.21C376.254 219.694 385.118 227.344 390.744 224.466C396.37 221.588 395.356 209.923 399.519 205.037C403.535 200.323 415.273 199.538 417.296 193.279C419.321 187.02 410.262 179.513 409.764 173.341V173.341Z" fill="#C63D4F"/>
<path d="M504.5 283.759C508.643 283.759 512 280.402 512 276.259V139.11C512 128.648 503.489 120.137 493.028 120.137H470.54V96.3349C470.54 88.4399 464.117 82.0179 456.222 82.0179H389.507C385.364 82.0179 382.007 85.3749 382.007 89.5179C382.007 93.6609 385.364 97.0179 389.507 97.0179H455.54V350.857H281.724C271.676 350.857 263.501 342.682 263.501 332.634V143.873C263.501 118.037 284.521 97.0179 310.356 97.0179H359.52C363.663 97.0179 367.02 93.6609 367.02 89.5179C367.02 85.3749 363.663 82.0179 359.52 82.0179H310.356C286.924 82.0179 266.494 95.1149 256 114.374C245.506 95.1159 225.076 82.0179 201.644 82.0179H55.778C47.883 82.0179 41.461 88.4409 41.461 96.3349V120.138H18.973C8.511 120.138 0 128.648 0 139.11V362.244C0 388.171 21.093 409.264 47.02 409.264H212.71C215.63 409.264 216.231 411.878 216.6 412.738L218.461 417.079C220.995 424.818 228.097 429.983 236.282 429.983H275.719C283.904 429.983 291.006 424.818 293.54 417.079C295.423 412.651 295.481 412.639 295.691 411.941C296.172 410.34 297.619 409.264 299.29 409.264H464.981C490.907 409.264 512 388.171 512 362.244V306.246C512 302.103 508.643 298.746 504.5 298.746C500.357 298.746 497 302.103 497 306.246V362.244C497 379.899 482.637 394.264 464.981 394.264H299.29C291.106 394.264 284.004 399.429 281.469 407.168C279.593 411.579 279.522 411.623 279.318 412.306C278.837 413.908 277.39 414.983 275.719 414.983H236.282C234.61 414.983 233.165 413.908 232.683 412.308C232.475 411.611 232.36 411.467 230.532 407.169C227.997 399.43 220.894 394.264 212.71 394.264H47.02C29.365 394.264 15 379.9 15 362.244V139.11C15 136.92 16.782 135.137 18.973 135.137H41.461V351.537C41.461 359.433 47.884 365.855 55.778 365.855H94.774C98.917 365.855 102.274 362.498 102.274 358.355C102.274 354.212 98.917 350.855 94.774 350.855H56.461V97.0179H201.645C227.481 97.0179 248.5 118.038 248.5 143.873V332.634C248.5 342.682 240.325 350.857 230.277 350.857H124.761C120.618 350.857 117.261 354.214 117.261 358.357C117.261 362.5 120.618 365.857 124.761 365.857H230.278C240.638 365.857 249.904 361.088 256.001 353.633C262.098 361.089 271.364 365.857 281.724 365.857H456.222C464.118 365.857 470.54 359.434 470.54 351.539V135.139H493.028C495.218 135.139 497 136.921 497 139.112V276.26C497 280.401 500.357 283.759 504.5 283.759V283.759Z" fill="black"/>
<path d="M248.5 386.474V390.983C248.5 395.126 251.857 398.483 256 398.483C260.143 398.483 263.5 395.126 263.5 390.983V386.474C263.5 382.331 260.143 378.974 256 378.974C251.857 378.974 248.5 382.331 248.5 386.474Z" fill="black"/>
<path d="M110.982 214.417C105.467 215.209 98.604 216.194 91.172 223.624C83.741 231.056 82.756 237.92 81.963 243.436C81.32 247.914 80.896 250.873 76.995 254.772C74.066 257.702 74.066 262.45 76.995 265.379C78.46 266.843 80.38 267.575 82.299 267.575C84.218 267.575 86.138 266.843 87.603 265.379C95.034 257.947 96.019 251.083 96.812 245.567C97.455 241.089 97.879 238.13 101.779 234.231C105.679 230.332 108.636 229.908 113.114 229.265C117.256 228.67 122.158 227.966 127.49 224.505C134.505 229.679 142.831 232.674 151.63 233.145L151.736 235.239C151.947 239.395 155.498 242.567 159.606 242.349C163.743 242.139 166.926 238.616 166.716 234.479L166.563 231.457C173.779 229.382 180.395 225.513 185.852 220.057L194.438 211.471L195.437 212.47C198.373 215.404 203.121 215.393 206.043 212.469C208.972 209.54 208.972 204.791 206.042 201.863L205.044 200.865L208.789 197.12C216.793 189.115 221.4 178.623 221.898 167.388L224.679 167.277C228.818 167.112 232.039 163.624 231.875 159.485C231.711 155.345 228.215 152.123 224.083 152.289L220.072 152.448C217.969 145.396 214.138 138.934 208.789 133.584C198.213 123.01 183.636 118.83 169.888 121.024L169.485 119.604C168.354 115.619 164.207 113.304 160.222 114.437C156.238 115.568 153.924 119.715 155.055 123.7L155.661 125.835C151.923 127.853 148.408 130.43 145.254 133.584L126.009 152.829L121.814 150.899C118.048 149.169 113.597 150.814 111.865 154.577C110.134 158.341 111.78 162.795 115.543 164.526L115.873 164.678C111.718 171.401 109.498 178.986 109.218 186.634L106.772 186.74C102.634 186.921 99.425 190.421 99.605 194.559C99.781 198.586 103.1 201.733 107.092 201.733C107.202 201.733 107.313 201.731 107.424 201.726L111.178 201.563C112.43 205.635 114.269 209.563 116.702 213.211C114.968 213.842 113.154 214.105 110.982 214.417V214.417ZM155.863 144.192C161.696 138.358 169.359 135.441 177.022 135.441C184.686 135.441 192.349 138.358 198.183 144.192C209.896 155.903 209.841 174.856 198.182 186.512L175.244 209.45C163.558 221.138 144.63 221.152 132.93 209.457C132.928 209.455 132.926 209.452 132.924 209.45C121.256 197.783 121.256 178.798 132.924 167.131L155.863 144.192Z" fill="black"/>
<path d="M151.113 198.762C153.032 198.762 154.952 198.03 156.417 196.566L165.708 187.275C168.637 184.345 168.637 179.597 165.708 176.668C162.778 173.74 158.03 173.74 155.101 176.668L145.81 185.959C142.881 188.889 142.881 193.637 145.81 196.566C147.274 198.029 149.194 198.762 151.113 198.762Z" fill="black"/>
<path d="M194.438 280.925H107.101C102.958 280.925 99.601 284.282 99.601 288.425C99.601 292.568 102.958 295.925 107.101 295.925H194.438C198.581 295.925 201.938 292.568 201.938 288.425C201.938 284.282 198.58 280.925 194.438 280.925Z" fill="black"/>
<path d="M107.101 332.988H154.438C158.581 332.988 161.938 329.631 161.938 325.488C161.938 321.345 158.581 317.988 154.438 317.988H107.101C102.958 317.988 99.601 321.345 99.601 325.488C99.601 329.631 102.958 332.988 107.101 332.988V332.988Z" fill="black"/>
<path d="M410.688 288.425C410.688 284.282 407.331 280.925 403.188 280.925H315.851C311.708 280.925 308.351 284.282 308.351 288.425C308.351 292.568 311.708 295.925 315.851 295.925H403.188C407.331 295.925 410.688 292.567 410.688 288.425Z" fill="black"/>
<path d="M315.852 317.988C311.709 317.988 308.352 321.345 308.352 325.488C308.352 329.631 311.709 332.988 315.852 332.988H363.189C367.332 332.988 370.689 329.631 370.689 325.488C370.689 321.345 367.332 317.988 363.189 317.988H315.852Z" fill="black"/>
<path d="M356.397 124.044C351.238 121.937 344.819 119.312 338.59 122.499C332.359 125.687 330.73 132.427 329.42 137.842C328.958 139.753 328.185 142.95 327.533 143.728C326.863 144.431 324.015 145.609 322.314 146.312C317.344 148.368 310.538 151.182 308.315 158.058C306.093 164.933 309.965 171.2 312.793 175.775C313.761 177.341 315.38 179.963 315.51 180.906C315.585 181.937 314.341 184.981 313.597 186.801C311.49 191.958 308.866 198.377 312.053 204.609C315.24 210.838 321.98 212.468 327.395 213.777C329.305 214.239 332.502 215.011 333.28 215.664C333.984 216.333 335.162 219.181 335.865 220.882C337.921 225.853 340.736 232.66 347.61 234.882C353.987 236.941 359.664 233.905 365.328 230.404C366.894 229.436 369.516 227.817 370.459 227.687C371.484 227.635 374.536 228.857 376.355 229.6C381.513 231.709 387.932 234.331 394.161 231.146C400.392 227.958 402.021 221.218 403.33 215.803C403.792 213.892 404.565 210.695 405.218 209.917C405.887 209.214 408.734 208.036 410.435 207.333C415.406 205.277 422.213 202.463 424.436 195.587V195.586C426.658 188.711 422.786 182.444 419.958 177.869C418.99 176.304 417.37 173.681 417.241 172.738C417.166 171.707 418.41 168.663 419.154 166.843C421.261 161.686 423.885 155.267 420.698 149.035C417.511 142.806 410.771 141.176 405.356 139.867C403.446 139.405 400.249 138.633 399.471 137.98C398.767 137.311 397.589 134.463 396.886 132.762C394.83 127.791 392.015 120.984 385.14 118.762C378.266 116.542 371.998 120.412 367.423 123.24C365.857 124.208 363.235 125.827 362.292 125.957C361.301 126.035 358.216 124.787 356.397 124.044V124.044ZM375.308 136C376.809 135.073 379.198 133.597 380.473 133.202C381.277 134.268 382.35 136.863 383.025 138.494C384.575 142.243 386.332 146.491 389.728 149.386C393.228 152.367 397.798 153.473 401.832 154.448C403.409 154.829 405.873 155.425 407.104 155.99C406.841 157.319 405.882 159.666 405.269 161.168C403.699 165.009 401.919 169.362 402.29 173.945C402.648 178.392 405.065 182.303 407.197 185.754C408.125 187.256 409.601 189.645 409.996 190.92C408.929 191.724 406.334 192.797 404.703 193.472C400.955 195.022 396.706 196.778 393.812 200.174C390.83 203.674 389.725 208.245 388.75 212.278C388.369 213.855 387.773 216.319 387.209 217.55C385.879 217.287 383.533 216.328 382.031 215.714C378.19 214.144 373.843 212.366 369.254 212.735C364.807 213.093 360.896 215.51 357.444 217.643C355.943 218.57 353.554 220.046 352.279 220.441C351.475 219.375 350.402 216.78 349.727 215.149C348.177 211.4 346.42 207.152 343.024 204.257C339.524 201.276 334.954 200.17 330.92 199.195C329.343 198.814 326.879 198.218 325.648 197.653C325.911 196.324 326.87 193.977 327.483 192.475C329.053 188.634 330.833 184.281 330.462 179.698C330.104 175.251 327.687 171.341 325.555 167.89C324.627 166.388 323.152 163.999 322.757 162.723C323.823 161.919 326.417 160.847 328.048 160.173C331.797 158.622 336.046 156.865 338.94 153.468C341.921 149.969 343.027 145.399 344.002 141.366C344.383 139.788 344.98 137.324 345.544 136.093C346.874 136.355 349.221 137.315 350.723 137.928C354.563 139.497 358.898 141.27 363.499 140.907C367.945 140.55 371.856 138.133 375.308 136V136Z" fill="black"/>
</svg>
