<?xml version="1.0" encoding="iso-8859-1"?>
<!-- Generator: Adobe Illustrator 19.0.0, SVG Export Plug-In . SVG Version: 6.00 Build 0)  -->
<svg version="1.1" id="Layer_1" xmlns="http://www.w3.org/2000/svg" xmlns:xlink="http://www.w3.org/1999/xlink" x="0px" y="0px"
	 viewBox="0 0 512 512" style="enable-background:new 0 0 512 512;" xml:space="preserve">
<path style="fill:#EAE5E5;" d="M489.222,90.068H318.693v253.02h-48.876v70.048h219.405c8.428,0,15.262-6.835,15.262-15.264V105.33
	C504.484,96.903,497.65,90.068,489.222,90.068z"/>
<rect x="320.689" y="226.16" style="fill:#DB3A3A;" width="183.79" height="50.877"/>
<g>
	<polygon style="fill:#305A84;" points="393.388,203.237 504.15,203.237 504.15,142.149 	"/>
	<path style="fill:#305A84;" d="M341.343,203.237l162.807-91.992c0-3.322,0-2.602,0-5.913c0-8.429-6.834-15.264-15.264-15.264
		H318.693v113.169C326.624,203.237,332.729,203.237,341.343,203.237z"/>
	<path style="fill:#305A84;" d="M482.22,413.135h6.666c0.478,0,0.948-0.028,1.415-0.071c0.167-0.016,0.331-0.04,0.496-0.061
		c0.291-0.036,0.58-0.079,0.865-0.131c0.204-0.039,0.406-0.079,0.607-0.125c0.228-0.052,0.452-0.112,0.675-0.174
		c0.231-0.064,0.463-0.126,0.69-0.2c0.118-0.039,0.231-0.086,0.348-0.128c0.994-0.354,1.941-0.805,2.829-1.346
		c0.037-0.023,0.075-0.045,0.111-0.068c0.313-0.195,0.619-0.399,0.917-0.615c3.818-2.775,6.311-7.264,6.311-12.344v-97.905H318.693
		v21.291C321.55,322.2,308.268,314.901,482.22,413.135z"/>
	<polygon style="fill:#305A84;" points="313.712,350.307 294.838,377.668 294.838,413.135 422.671,413.135 	"/>
</g>
<g>
	<path style="fill:#DB3A3A;" d="M488.886,90.068h-8.434l-159.76,89.405v23.764h22.65l160.807-89.992v-7.913
		C504.15,96.903,497.316,90.068,488.886,90.068z"/>
	<path style="fill:#DB3A3A;" d="M504.15,397.871v-7.195l-161.182-90.71h-22.275v23.951l158.527,89.218h9.666
		C497.316,413.135,504.15,406.3,504.15,397.871z"/>
</g>
<path style="fill:#D1CFCF;" d="M33.149,22.02c0,10.605,0,311.357,0,323.067c3.55,0,281.129,0,284.544,0
	c0-10.602,0-311.357,0-323.067C314.272,22.02,36.693,22.02,33.149,22.02z"/>
<path style="fill:#EAE5E5;" d="M317.693,22.02c-23.128,0-93.165,0-123.615,0c-34.64,44.627-55.274,100.667-55.274,161.533
	c0,60.867,20.634,116.908,55.274,161.534c4.482,0,119.086,0,123.615,0C317.693,334.486,317.693,33.73,317.693,22.02z"/>
<path style="fill:#C93F3F;" d="M269.817,158.116V22.02h50.876c0,8.002,0,316.62,0,323.067h-50.876V208.993H33.149v-50.877H269.817z"
	/>
<path style="fill:#DB3A3A;" d="M320.693,22.02h-50.876v136.096H140.03c-0.802,8.372-1.227,16.854-1.227,25.438
	s0.425,17.066,1.227,25.439h129.786v136.095h50.876C320.693,338.692,320.693,28.882,320.693,22.02z"/>
<polygon style="fill:#AF2525;" points="269.817,345.087 269.817,413.135 320.693,345.087 "/>
<path style="fill:#224772;" d="M244.46,96.272V22.02c-5.846,0-128.188,0-133.585,0L244.46,96.272z"/>
<path style="fill:#305A84;" d="M244.46,96.272V22.02c-21.744,0-27.62,0-50.382,0c-8.272,10.657-15.735,21.973-22.32,33.842
	L244.46,96.272z"/>
<path style="fill:#224772;" d="M244.46,135.189v-7.482L57.365,22.02c-8.958,0-16.078,0-24.217,0v113.169
	C39.521,135.189,226.319,135.189,244.46,135.189z"/>
<path style="fill:#305A84;" d="M244.46,127.706l-84.508-47.737c-7.492,17.513-13.142,35.999-16.707,55.22
	c4.691,0,77.347,0,101.215,0V127.706z"/>
<g>
	<polygon style="fill:#224772;" points="148.164,231.918 33.149,231.918 33.148,231.918 33.148,294.249 	"/>
	<path style="fill:#224772;" d="M244.459,231.918h-22.617h-21.111L33.148,328.952v16.136c18.094,0,209.368,0,211.312,0
		L244.459,231.918L244.459,231.918z"/>
</g>
<path style="fill:#305A84;" d="M244.459,231.918h-22.617h-21.111l-50.336,29.145c9.459,30.787,24.396,59.177,43.683,84.023
	c22.259,0,26.703,0,50.382,0L244.459,231.918L244.459,231.918z"/>
<path style="fill:#C93F3F;" d="M244.459,231.918H198.73L33.148,326.952v18.136c12.492,0,21.978,0,35.003,0L244.46,242.119
	L244.459,231.918L244.459,231.918z"/>
<path style="fill:#DB3A3A;" d="M244.459,231.918h-22.617h-21.111l-50.336,29.145c3.108,10.116,6.819,19.968,11.07,29.525
	l82.995-48.471L244.459,231.918L244.459,231.918z"/>
<path style="fill:#C93F3F;" d="M33.148,22.02v22.576l163.144,90.593c6.737,0,41.909,0,48.167,0v-9.482L59.365,22.02
	C50.133,22.02,43.047,22.02,33.148,22.02z"/>
<path style="fill:#DB3A3A;" d="M149.476,109.192l46.816,25.997c5.6,0,42.64,0,48.167,0v-7.482L159.951,79.97
	C155.902,89.436,152.411,99.195,149.476,109.192z"/>
<path style="fill:#5E6A72;" d="M35.149,491.746c0,17.067-27.633,17.035-27.633,0V20.285c0-17.069,27.633-17.03,27.633,0V491.746z"/>
<path style="fill:#384047;" d="M22.332,491.746V20.285c0-4.73,2.583-8.851,6.408-11.052c-3.306-1.902-5.964-1.701-8.471-1.701
	c-7.043,0-12.754,5.71-12.754,12.753v471.462c0,7.045,5.711,12.754,12.754,12.754c2.428,0,5.133,0.219,8.471-1.701
	C24.915,500.598,22.332,496.478,22.332,491.746z"/>
<path d="M511.983,105.33c0-12.101-9.629-22.763-23.098-22.763c-5.982,0-147.523,0-160.693,0V22.02c0-4.143-3.357-7.5-7.5-7.5
	c-281.317,0-271.155-1.288-278.496,1.532c-5.035-23.57-42.18-20.359-42.18,4.233v471.462C0.015,502.914,9.101,512,20.269,512h2.125
	c11.168,0,20.254-9.086,20.254-20.254v-77.415c0-4.143-3.358-7.5-7.5-7.5s-7.5,3.357-7.5,7.5v77.415
	c0,2.897-2.357,5.254-5.254,5.254h-2.125c-2.897,0-5.254-2.356-5.254-5.254V20.285c0-2.896,2.357-5.253,5.254-5.253h2.125
	c2.897,0,5.254,2.356,5.254,5.253c0,46.63,0,323.015,0,369.049c0,4.143,3.358,7.5,7.5,7.5s7.5-3.357,7.5-7.5v-38.111
	c5.41,1.969-11.873,1.365,219.668,1.365c0,62.86-2.41,68.048,7.516,68.048c12.357,0,208.979,0,219.389,0
	c12.551,0,22.762-10.212,22.762-22.764C511.983,377.026,511.983,116.475,511.983,105.33z M424.677,405.635l-97.757-56.369
	c1.727-2.57,1.272-4.46,1.272-12.522l122.409,68.89L424.677,405.635L424.677,405.635z M251.959,231.918c0-4.143-3.358-7.5-7.5-7.5
	c-10.933,0-191.094,0-201.811,0v-7.926h219.668v121.095h-10.357C251.959,324.432,251.959,245.327,251.959,231.918z M108.929,29.52
	l128.03,71.164v12.231L87.94,29.52H108.929z M244.459,142.689c4.142,0,7.5-3.357,7.5-7.5c0-11.035,0-92.266,0-105.669h10.357
	v121.096H42.648v-7.927C44.4,142.689,239.593,142.689,244.459,142.689z M42.648,127.689V57.802l124.884,69.887
	C167.532,127.689,42.648,127.689,42.648,127.689z M42.648,239.418h76.387l-76.387,42.13
	C42.648,281.548,42.648,239.418,42.648,239.418z M42.648,298.678c0.51-0.281,106.913-58.954,107.409-59.26h20.842L42.648,313.957
	V298.678z M496.649,137.72l-104.513,57.642c-0.21,0.116-0.411,0.243-0.606,0.375h-19.428l124.547-69.7V137.72z M496.649,154.85
	v40.887h-74.133L496.649,154.85z M496.983,210.737v7.926H328.192v-7.926C334.565,210.737,488.904,210.737,496.983,210.737z
	 M496.983,269.539H328.192v-35.877h168.791V269.539z M302.652,352.587l2.144,1.236c-5.534,7.402-21.798,29.156-27.48,36.755v-37.991
	H302.652z M287.338,402.225v3.41h-2.549L287.338,402.225z M328.192,284.539h168.791v7.927c-8.106,0-162.488,0-168.791,0V284.539z
	 M496.649,307.466v70.383l-125.062-70.383H496.649z M451.692,97.568l-34.12,19.094c-3.615,2.022-4.905,6.593-2.883,10.207
	s6.593,4.905,10.207,2.883l57.512-32.184h6.478c4.281,0,7.764,3.482,7.764,7.764v3.516l-155.263,86.89h-13.194V183.87l73.256-40.995
	c3.614-2.022,4.904-6.593,2.882-10.208c-2.022-3.612-6.591-4.905-10.208-2.882l-65.93,36.895V97.568H451.692z M313.192,29.52
	c0,321.97,0,10.938,0,308.067h-35.876V208.993c0-4.143-3.357-7.5-7.5-7.5H42.648v-35.877h227.168c4.143,0,7.5-3.357,7.5-7.5V29.52
	H313.192z M236.959,83.522L139.805,29.52h97.154L236.959,83.522L236.959,83.522z M57.224,29.52l175.419,98.169h-34.396
	l-155.6-87.076c0-1.846-0.952-9.905,6.655-11.004C50.277,29.471,50.168,29.52,57.224,29.52z M95.123,337.587l33.311-19.36
	c3.581-2.081,4.797-6.672,2.716-10.253c-2.082-3.583-6.675-4.798-10.253-2.716l-55.625,32.329c-14.702,0-18.19,0.933-21.194-3.295
	c-0.695-0.979-1.105-2.018-1.296-3.064l157.969-91.81h33.428l-91.422,53.135c-3.581,2.081-4.797,6.672-2.716,10.253
	s6.673,4.797,10.253,2.716l86.665-50.37v82.435H95.123z M302.338,382.162l15.546-20.793l76.767,44.265h-92.313V382.162z
	 M481.185,405.635l-152.993-86.103v-12.066h12.81l155.647,87.596v2.81c0,4.281-3.482,7.764-7.764,7.764h-7.7V405.635z"/>
<g>
</g>
<g>
</g>
<g>
</g>
<g>
</g>
<g>
</g>
<g>
</g>
<g>
</g>
<g>
</g>
<g>
</g>
<g>
</g>
<g>
</g>
<g>
</g>
<g>
</g>
<g>
</g>
<g>
</g>
</svg>
