<svg width="512" height="512" viewBox="0 0 512 512" fill="none" xmlns="http://www.w3.org/2000/svg">
<path d="M130.53 151.625C62.5849 151.625 7.50488 189.009 7.50488 235.122C7.50488 263.276 28.0375 288.175 59.494 303.3L96.4473 358.446C99.0863 362.384 105.175 361.121 106.029 356.458L113.117 317.783C118.806 318.33 124.618 318.619 130.53 318.619C198.475 318.619 253.555 281.236 253.555 235.123C253.556 189.008 198.475 151.625 130.53 151.625V151.625Z" fill="#80E29D"/>
<path d="M130.53 151.625C125.881 151.625 121.295 151.806 116.78 152.147C178.252 156.788 226.055 192.164 226.055 235.123C226.055 278.073 178.27 313.444 116.815 318.095C121.318 318.436 125.892 318.62 130.529 318.62C198.473 318.62 253.553 281.237 253.553 235.124C253.555 189.008 198.474 151.625 130.53 151.625V151.625Z" fill="#66B49D"/>
<path d="M475.715 7.49988H300.474C284.578 7.49988 271.692 20.3857 271.692 36.2814V139.122C271.692 155.017 284.578 167.904 300.475 167.904H312.35L309.32 216.798C309.053 221.1 314.315 223.377 317.268 220.238L366.519 167.903H475.716C491.611 167.903 504.498 155.017 504.498 139.121V36.2824C504.496 20.3867 491.61 7.49988 475.715 7.49988V7.49988Z" fill="#F6E266"/>
<path d="M475.715 7.49988H448.637C464.533 7.49988 477.419 20.3857 477.419 36.2824V139.123C477.419 155.018 464.533 167.905 448.636 167.905H475.714C491.609 167.905 504.496 155.019 504.496 139.123V36.2824C504.496 20.3867 491.61 7.49988 475.715 7.49988Z" fill="#ECBE6B"/>
<path d="M504.496 294.311H271.691V454.715H299.324L299.355 499.976C299.358 504.187 304.62 506.096 307.322 502.866L347.596 454.715H504.495V294.311H504.496Z" fill="#DD636E"/>
<path d="M475.567 294.311H504.496V454.715H475.567V294.311Z" fill="#C63D4F"/>
<path d="M209.194 212.795C209.194 208.653 205.837 205.295 201.694 205.295H59.366C55.223 205.295 51.8661 208.653 51.8661 212.795C51.8661 216.937 55.223 220.295 59.366 220.295H201.694C205.837 220.295 209.194 216.937 209.194 212.795Z" fill="black"/>
<path d="M59.366 242.462C55.223 242.462 51.8661 245.82 51.8661 249.962C51.8661 254.104 55.223 257.462 59.366 257.462H161.695C165.838 257.462 169.195 254.104 169.195 249.962C169.195 245.82 165.838 242.462 161.695 242.462H59.366Z" fill="black"/>
<path d="M466.758 64.1359C466.758 59.9939 463.401 56.636 459.258 56.636H316.929C312.787 56.636 309.43 59.9939 309.43 64.1359C309.43 68.2778 312.787 71.6357 316.929 71.6357H459.258C463.401 71.6357 466.758 68.2778 466.758 64.1359V64.1359Z" fill="black"/>
<path d="M316.929 93.8024C312.787 93.8024 309.43 97.1603 309.43 101.302C309.43 105.444 312.787 108.802 316.929 108.802H419.259C423.402 108.802 426.758 105.444 426.758 101.302C426.758 97.1603 423.402 93.8024 419.259 93.8024H316.929Z" fill="black"/>
<path d="M466.758 349.43C466.758 345.287 463.401 341.93 459.258 341.93H316.929C312.787 341.93 309.43 345.287 309.43 349.43C309.43 353.573 312.787 356.93 316.929 356.93H459.258C463.401 356.93 466.758 353.573 466.758 349.43V349.43Z" fill="black"/>
<path d="M316.929 379.096C312.787 379.096 309.43 382.453 309.43 386.596C309.43 390.739 312.787 394.096 316.929 394.096H419.259C423.402 394.096 426.758 390.739 426.758 386.596C426.758 382.453 423.402 379.096 419.259 379.096H316.929Z" fill="black"/>
<path d="M221.733 169.875C197.268 153.27 164.878 144.125 130.53 144.125C96.1813 144.125 63.7919 153.27 39.3263 169.875C13.9698 187.085 0.00500488 210.256 0.00500488 235.122C0.00500488 264.582 20.2886 292.133 54.3851 309.148L90.2174 362.62C96.6133 372.165 111.345 369.056 113.406 357.808L119.276 325.782C153.168 327.8 186.903 320.54 212.927 305.822C216.532 303.783 217.802 299.207 215.763 295.601C213.723 291.996 209.149 290.728 205.542 292.765C184.616 304.601 157.976 311.119 130.529 311.119C124.984 311.119 119.367 310.849 113.834 310.317C109.943 309.94 106.442 312.601 105.739 316.43L99.6353 349.732L65.7239 299.125C64.9789 298.013 63.9499 297.12 62.7439 296.541C32.8504 282.167 15.0047 259.207 15.0047 235.122C15.0047 215.381 26.6335 196.618 47.7492 182.286C69.7568 167.35 99.1543 159.124 130.53 159.124C161.905 159.124 191.303 167.35 213.31 182.286C234.426 196.618 246.055 215.381 246.055 235.122C246.055 249.511 239.796 263.564 227.955 275.765C225.07 278.738 225.141 283.486 228.113 286.37C231.085 289.254 235.834 289.182 238.718 286.212C253.33 271.156 261.053 253.49 261.053 235.122C261.054 210.256 247.09 187.085 221.733 169.875V169.875Z" fill="black"/>
<path d="M475.714 0H368.094C363.951 0 360.594 3.35794 360.594 7.49987C360.594 11.6418 363.951 14.9997 368.094 14.9997H475.714C487.448 14.9997 496.995 24.5466 496.995 36.2824V139.123C496.995 150.857 487.448 160.405 475.714 160.405H366.517C364.449 160.405 362.472 161.259 361.055 162.765L317.299 209.26L319.833 168.368C320.101 164.042 316.659 160.404 312.349 160.404H300.474C288.739 160.404 279.191 150.857 279.191 139.123V36.2824C279.191 24.5476 288.738 14.9997 300.473 14.9997H338.108C342.251 14.9997 345.608 11.6418 345.608 7.49987C345.608 3.35794 342.251 0 338.108 0H300.473C280.467 0 264.191 16.2757 264.191 36.2824V139.123C264.191 159.128 280.467 175.404 300.474 175.404H304.37L301.834 216.335C301.515 221.488 304.369 226.142 309.107 228.192C313.843 230.241 319.189 229.139 322.728 225.379L369.758 175.404H475.714C495.719 175.404 511.995 159.128 511.995 139.122V36.2824C511.996 16.2757 495.719 0 475.714 0V0Z" fill="black"/>
<path d="M504.496 286.811H271.691C267.548 286.811 264.191 290.168 264.191 294.311V454.715C264.191 458.858 267.548 462.215 271.691 462.215H291.829L291.855 499.982C291.859 505.092 294.965 509.52 299.769 511.263C301.138 511.759 302.54 512 303.922 512C307.391 512 310.731 510.481 313.075 507.678L351.1 462.215H504.494C508.637 462.215 511.994 458.858 511.994 454.715V401.59C511.994 397.447 508.637 394.09 504.494 394.09C500.351 394.09 496.994 397.447 496.994 401.59V447.215H347.596C345.375 447.215 343.268 448.199 341.843 449.903L306.849 491.742L306.824 454.71C306.821 450.569 303.464 447.215 299.324 447.215H279.191V301.811H496.996V371.604C496.996 375.746 500.353 379.103 504.496 379.103C508.639 379.103 511.996 375.746 511.996 371.604V294.311C511.996 290.168 508.638 286.811 504.496 286.811V286.811Z" fill="black"/>
</svg>
