<svg width="512" height="512" viewBox="0 0 512 512" fill="none" xmlns="http://www.w3.org/2000/svg">
<g clip-path="url(#clip0)">
<path d="M256.97 149.992C143.041 150.471 51.5774 242.34 51.5774 356.27C51.5774 394.663 62.0677 430.605 80.338 461.386C109.755 510.946 178.833 519.608 218.395 477.7C235.212 459.885 259.061 448.702 285.633 448.702C301.755 448.702 316.91 452.83 330.101 460.086C381.125 488.15 444.886 461.151 458.459 404.523C462.17 389.044 464.135 372.886 464.135 356.269C464.136 242.048 371.302 149.511 256.97 149.992V149.992Z" fill="#F1D0A5"/>
<path d="M256.97 149.992C252.218 150.012 247.511 150.205 242.842 150.538C349.701 158.287 433.986 247.435 433.986 356.269C433.986 372.886 432.021 389.043 428.31 404.523C419.722 440.349 391.046 464.307 358.217 469.975C402.242 477.586 447.303 451.066 458.46 404.523C462.171 389.044 464.136 372.886 464.136 356.269C464.136 242.048 371.302 149.511 256.97 149.992V149.992Z" fill="#F1B986"/>
<path d="M156.514 458.297C180.627 458.297 200.174 438.75 200.174 414.638C200.174 390.525 180.627 370.978 156.514 370.978C132.402 370.978 112.855 390.525 112.855 414.638C112.855 438.75 132.402 458.297 156.514 458.297Z" fill="#9DC6FB"/>
<path d="M156.515 370.978C152.27 370.978 148.172 371.595 144.291 372.726C162.451 378.014 175.727 394.77 175.727 414.638C175.727 434.505 162.451 451.262 144.291 456.55C148.172 457.68 152.27 458.297 156.515 458.297C180.628 458.297 200.174 438.751 200.174 414.638C200.174 390.525 180.627 370.978 156.515 370.978Z" fill="#8993DA"/>
<path d="M163.479 330.501C187.592 330.501 207.139 310.954 207.139 286.842C207.139 262.729 187.592 243.182 163.479 243.182C139.367 243.182 119.82 262.729 119.82 286.842C119.82 310.954 139.367 330.501 163.479 330.501Z" fill="#F6E266"/>
<path d="M163.479 243.182C159.235 243.182 155.136 243.799 151.256 244.93C169.416 250.218 182.692 266.974 182.692 286.842C182.692 306.709 169.416 323.466 151.256 328.754C155.136 329.884 159.235 330.501 163.479 330.501C187.592 330.501 207.139 310.954 207.139 286.842C207.139 262.73 187.592 243.182 163.479 243.182Z" fill="#ECBE6B"/>
<path d="M311.263 291.797C335.375 291.797 354.922 272.25 354.922 248.138C354.922 224.026 335.375 204.479 311.263 204.479C287.151 204.479 267.604 224.026 267.604 248.138C267.604 272.25 287.151 291.797 311.263 291.797Z" fill="#DD636E"/>
<path d="M311.263 204.479C307.018 204.479 302.92 205.096 299.039 206.226C317.2 211.514 330.475 228.27 330.475 248.138C330.475 268.005 317.2 284.763 299.039 290.05C302.92 291.18 307.018 291.797 311.263 291.797C335.376 291.797 354.922 272.25 354.922 248.138C354.922 224.026 335.375 204.479 311.263 204.479V204.479Z" fill="#C63D4F"/>
<path d="M376.585 407.304C400.697 407.304 420.244 387.757 420.244 363.644C420.244 339.532 400.697 319.985 376.585 319.985C352.473 319.985 332.926 339.532 332.926 363.644C332.926 387.757 352.473 407.304 376.585 407.304Z" fill="#FFF6F4"/>
<path d="M376.585 319.985C372.341 319.985 368.242 320.602 364.362 321.732C382.522 327.021 395.797 343.777 395.797 363.644C395.797 383.512 382.522 400.269 364.362 405.557C368.242 406.687 372.341 407.304 376.585 407.304C400.698 407.304 420.245 387.756 420.245 363.644C420.245 339.532 400.698 319.985 376.585 319.985Z" fill="#D8E2F1"/>
<path d="M239.184 196.622C192.525 216.148 145.866 216.148 99.2074 196.622C94.7058 194.737 91.7615 190.346 91.7615 185.466V73.3302H246.629V185.466C246.63 190.346 243.685 194.737 239.184 196.622V196.622Z" fill="#4A80AA"/>
<path d="M229.78 73.3302V178.28C229.78 183.16 226.835 187.552 222.334 189.436C180.188 207.073 138.044 208.775 95.8989 194.549C96.868 195.397 97.9772 196.106 99.2073 196.621C145.866 216.147 192.525 216.147 239.184 196.621C243.685 194.736 246.63 190.345 246.63 185.465V73.3302H229.78Z" fill="#407093"/>
<path d="M289.165 77.8737C162.834 147.391 169.827 144.237 167.895 143.174L49.2281 77.8737C47.3639 76.8476 47.3639 74.1683 49.2281 73.1421L167.894 7.84296C168.704 7.39691 169.687 7.39691 170.497 7.84296L289.164 73.1431C291.029 74.1683 291.029 76.8476 289.165 77.8737V77.8737Z" fill="#365E7D"/>
<path d="M289.165 73.1421L170.498 7.84296C169.688 7.39691 168.705 7.39691 167.895 7.84296L153.653 15.6799L258.078 73.1431C259.943 74.1693 259.943 76.8486 258.078 77.8747L153.652 135.337C167.433 142.456 168.217 144.428 170.497 143.174L289.164 77.8737C291.029 76.8476 291.029 74.1683 289.165 73.1421V73.1421Z" fill="#2B4D66"/>
<path d="M156.515 465.798C184.725 465.798 207.675 442.848 207.675 414.638C207.675 386.427 184.724 363.477 156.515 363.477C128.305 363.477 105.354 386.427 105.354 414.638C105.354 442.848 128.304 465.798 156.515 465.798ZM156.515 378.479C176.453 378.479 192.673 394.7 192.673 414.638C192.673 434.575 176.452 450.796 156.515 450.796C136.577 450.796 120.356 434.575 120.356 414.638C120.356 394.7 136.576 378.479 156.515 378.479Z" fill="black"/>
<path d="M163.479 338.002C191.69 338.002 214.64 315.052 214.64 286.842C214.64 258.631 191.689 235.681 163.479 235.681C135.27 235.681 112.319 258.631 112.319 286.842C112.319 315.052 135.27 338.002 163.479 338.002ZM163.479 250.683C183.418 250.683 199.638 266.904 199.638 286.842C199.638 306.779 183.417 323 163.479 323C143.542 323 127.321 306.779 127.321 286.842C127.321 266.904 143.542 250.683 163.479 250.683Z" fill="black"/>
<path d="M311.263 196.978C283.052 196.978 260.103 219.928 260.103 248.138C260.103 276.349 283.052 299.298 311.263 299.298C339.473 299.298 362.423 276.349 362.423 248.138C362.423 219.928 339.473 196.978 311.263 196.978V196.978ZM311.263 284.298C291.324 284.298 275.104 268.077 275.104 248.139C275.104 228.202 291.325 211.981 311.263 211.981C331.2 211.981 347.421 228.202 347.421 248.139C347.421 268.077 331.2 284.298 311.263 284.298Z" fill="black"/>
<path d="M408.702 204.784C367.516 163.769 312.501 141.506 254.131 142.539V105.715L292.783 84.4455C296.041 82.6513 298.064 79.2269 298.064 75.5074C298.064 71.789 296.041 68.3645 292.782 66.5693L237.843 36.3375C234.212 34.3413 229.652 35.6644 227.654 39.2929C225.657 42.9234 226.98 47.4839 230.61 49.4822L277.905 75.5064C265.427 82.3723 229.24 102.286 216.118 109.507L174.346 70.0547C171.332 67.2084 166.587 67.3444 163.741 70.3578C160.897 73.3692 161.033 78.1167 164.044 80.9611L202.313 117.105L169.16 135.348C161.46 131.372 136.897 117.228 60.5155 75.4914L169.196 15.687L203.973 34.8243C207.603 36.8206 212.164 35.4964 214.162 31.869C216.159 28.2385 214.836 23.6779 211.206 21.6797L174.112 1.26915C171.035 -0.422065 167.361 -0.423065 164.278 1.27015L45.6116 66.5713C42.3532 68.3645 40.329 71.789 40.329 75.5084C40.329 79.2289 42.3532 82.6533 45.6346 84.4585C60.2585 92.4395 73.0451 99.4434 84.2625 105.606V185.467C84.2625 193.383 88.9921 200.479 96.313 203.542C99.1113 204.714 101.913 205.81 104.716 206.846C75.6854 236.531 56.215 273.483 48.147 314.447C47.3469 318.512 49.9932 322.456 54.0577 323.256C54.5468 323.353 55.0348 323.399 55.5159 323.399C59.0263 323.399 62.1627 320.921 62.8678 317.347C70.8528 276.801 90.8583 240.478 120.817 212.037C136.911 216.485 153.054 218.723 169.197 218.723C193.549 218.723 217.9 213.663 242.081 203.543C249.401 200.48 254.132 193.384 254.132 185.468V157.544C308.584 156.52 359.807 177.266 398.118 215.416C449.598 266.681 466.645 338.201 451.168 402.776C445.35 427.051 428.937 446.756 406.142 456.836C382.754 467.18 356.357 465.968 333.72 453.517C319.077 445.461 302.45 441.203 285.637 441.203C257.845 441.203 232.029 452.337 212.944 472.553C195.987 490.515 172.034 499.233 147.232 496.489C121.833 493.672 99.8034 479.483 86.7918 457.56C68.6635 427.017 59.0813 391.993 59.0813 356.274C59.0813 353.372 59.1513 350.394 59.2953 347.17C59.4804 343.032 56.275 339.527 52.1365 339.343C52.0224 339.337 51.9084 339.335 51.7964 339.335C47.8079 339.335 44.4885 342.478 44.3085 346.502C44.1545 349.95 44.0794 353.146 44.0794 356.274C44.0794 394.686 54.3877 432.359 73.8912 465.218C106.035 519.373 181.053 528.194 223.853 482.852C240.074 465.669 262.017 456.206 285.637 456.206C299.928 456.206 314.055 459.821 326.49 466.661C353.262 481.388 384.506 482.805 412.209 470.558C439.321 458.569 458.838 435.139 465.757 406.275C482.379 336.93 464.159 260.005 408.702 204.784V204.784ZM236.288 189.702C214.027 199.019 191.616 203.677 169.196 203.676C146.782 203.674 124.36 199.017 102.105 189.702C100.378 188.98 99.2643 187.316 99.2643 185.466V113.859C142.898 137.904 157.302 146.192 163.067 149.075C164.864 149.972 167.077 151.079 169.577 151.079C171.038 151.079 172.599 150.701 174.23 149.683L207.445 131.405V173.63C207.445 177.773 210.803 181.131 214.946 181.131C219.088 181.131 222.447 177.773 222.447 173.63V123.15L239.13 113.97V185.466C239.129 187.317 238.014 188.98 236.288 189.702V189.702Z" fill="black"/>
<path d="M258.257 358.817C254.211 359.701 251.646 363.698 252.53 367.746L258.64 395.727C259.525 399.783 263.533 402.339 267.569 401.455C271.617 400.571 274.18 396.574 273.297 392.526L267.186 364.545C266.302 360.496 262.308 357.925 258.257 358.817V358.817Z" fill="black"/>
<path d="M413.118 388.689C416.879 390.42 421.336 388.775 423.068 385.012C426.172 378.269 427.746 371.08 427.746 363.645C427.746 335.434 404.796 312.484 376.586 312.484C348.375 312.484 325.426 335.434 325.426 363.645C325.426 391.855 348.375 414.805 376.586 414.805C384.172 414.805 391.487 413.174 398.328 409.956C402.077 408.193 403.686 403.726 401.924 399.976C400.161 396.227 395.691 394.616 391.944 396.38C387.115 398.651 381.948 399.802 376.586 399.802C356.647 399.802 340.427 383.581 340.427 363.644C340.427 343.706 356.648 327.485 376.586 327.485C396.523 327.485 412.744 343.706 412.744 363.644C412.744 368.898 411.633 373.977 409.441 378.737C407.708 382.501 409.354 386.955 413.118 388.689Z" fill="black"/>
</g>
<defs>
<clipPath id="clip0">
<rect width="512" height="512" fill="white"/>
</clipPath>
</defs>
</svg>
