<svg width="512" height="512" viewBox="0 0 512 512" fill="none" xmlns="http://www.w3.org/2000/svg">
<path d="M110.053 7.53345C97.616 7.53345 87.5334 17.6161 87.5334 30.0532V461.858C87.5334 494.384 97.616 504.467 110.053 504.467H434.293C446.731 504.467 456.813 494.384 456.813 461.858V30.0532C456.813 17.6161 446.731 7.53345 434.293 7.53345H110.053Z" fill="#EDF5FA"/>
<path d="M434.293 7.53345H404.16C416.597 7.53345 426.68 17.6161 426.68 30.0532V461.858C426.68 494.384 416.597 504.467 404.16 504.467H434.293C446.73 504.467 456.813 494.384 456.813 461.858V30.0532C456.813 17.6161 446.73 7.53345 434.293 7.53345V7.53345Z" fill="#D0E7F2"/>
<path d="M87.5334 401.092V481.947C87.5334 494.384 97.616 504.467 110.053 504.467H434.293C446.731 504.467 456.813 494.384 456.813 481.947V401.092H87.5334Z" fill="#FD3030"/>
<path d="M426.68 401.092V481.947C426.68 494.384 416.597 504.467 404.16 504.467H436.625C447.774 504.467 456.813 495.428 456.813 484.278V401.092H426.68Z" fill="#EF4424"/>
<path d="M200.457 336.595H166.672C160.604 336.595 155.685 331.676 155.685 325.608V290.977H211.444V325.608C211.443 331.676 206.524 336.595 200.457 336.595V336.595Z" fill="#D0E7F2"/>
<path d="M181.31 290.977V325.608C181.31 331.676 176.391 336.595 170.323 336.595H200.457C206.524 336.595 211.443 331.676 211.443 325.608V290.977H181.31Z" fill="#B7D9EB"/>
<path d="M221.934 260.643C221.934 282.389 204.306 300.017 182.559 300.017C160.813 300.017 143.185 282.389 143.185 260.643C143.185 238.896 182.559 195.862 182.559 195.862C182.559 195.862 221.934 238.897 221.934 260.643Z" fill="#9E9797"/>
<path d="M182.559 195.862C182.559 195.862 175.576 203.493 167.493 213.954C178.606 228.332 191.8 248.055 191.8 260.644C191.8 277.051 181.761 291.11 167.493 297.026C172.134 298.95 177.222 300.018 182.559 300.018C204.306 300.018 221.934 282.39 221.934 260.644C221.934 238.896 182.559 195.862 182.559 195.862V195.862Z" fill="#766E6E"/>
<path d="M434.293 0H192.434C188.274 0 184.901 3.37294 184.901 7.53337C184.901 11.6938 188.274 15.0667 192.434 15.0667H434.293C442.557 15.0667 449.28 21.7895 449.28 30.0531V393.559H227.432C223.272 393.559 219.899 396.932 219.899 401.093C219.899 405.253 223.272 408.626 227.432 408.626H449.28V481.948C449.28 490.211 442.557 496.934 434.293 496.934H110.053C101.79 496.934 95.0667 490.211 95.0667 481.948V408.626H197.299C201.459 408.626 204.832 405.253 204.832 401.093C204.832 396.932 201.459 393.559 197.299 393.559H95.0667V30.0531C95.0667 21.7895 101.79 15.0667 110.053 15.0667H162.301C166.461 15.0667 169.834 11.6938 169.834 7.53337C169.834 3.37294 166.461 0 162.301 0H110.053C93.4817 0 80 13.4817 80 30.0531V481.947C80 498.518 93.4817 512 110.053 512H434.293C450.865 512 464.347 498.518 464.347 481.947V30.0531C464.347 13.4817 450.865 0 434.293 0V0Z" fill="black"/>
<path d="M407.473 227.634H336.366C332.205 227.634 328.832 231.007 328.832 235.168C328.832 239.328 332.205 242.701 336.366 242.701H407.473C411.633 242.701 415.006 239.328 415.006 235.168C415.006 231.007 411.633 227.634 407.473 227.634V227.634Z" fill="black"/>
<path d="M407.473 263.902H336.366C332.205 263.902 328.832 267.275 328.832 271.435C328.832 275.596 332.205 278.969 336.366 278.969H407.473C411.633 278.969 415.006 275.596 415.006 271.435C415.006 267.275 411.633 263.902 407.473 263.902V263.902Z" fill="black"/>
<path d="M299.89 227.634H286.392C282.232 227.634 278.859 231.007 278.859 235.168C278.859 239.328 282.232 242.701 286.392 242.701H299.89C304.05 242.701 307.423 239.328 307.423 235.168C307.423 231.007 304.051 227.634 299.89 227.634Z" fill="black"/>
<path d="M299.89 263.903H286.392C282.232 263.903 278.859 267.276 278.859 271.436C278.859 275.597 282.232 278.97 286.392 278.97H299.89C304.05 278.97 307.423 275.597 307.423 271.436C307.423 267.276 304.051 263.903 299.89 263.903Z" fill="black"/>
<path d="M206.168 134.732C204.503 134.153 202.722 133.823 200.858 133.823C191.92 133.823 184.674 141.069 184.674 150.007C184.674 158.946 191.92 166.192 200.858 166.192C209.797 166.192 217.043 158.946 217.043 150.007C217.043 148.54 216.83 147.125 216.464 145.772C228.307 134.204 249.345 114.848 270.649 95.745C272.381 96.3778 274.243 96.7414 276.195 96.7414C281.152 96.7414 285.582 94.5075 288.551 90.999L376.205 110.559C377.704 117.947 384.234 123.51 392.065 123.51C401.004 123.51 408.25 116.264 408.25 107.325C408.25 98.3867 401.004 91.1406 392.065 91.1406C387.505 91.1406 383.393 93.034 380.451 96.0684L291.791 76.2848C289.915 69.4234 283.652 64.373 276.195 64.373C267.257 64.373 260.01 71.6191 260.01 80.5577C260.01 81.9529 260.205 83.2989 260.538 84.5906C253.295 91.0934 243.297 100.115 233.352 109.239C220.778 120.773 212.128 128.897 206.168 134.732V134.732Z" fill="black"/>
<path d="M218.576 428H204.458C201.916 428 200 429.594 200 431.707V475.086C200 477.68 203.018 478.861 205.823 478.861C208.626 478.861 211.645 477.679 211.645 475.086V460.856H217.895C229.039 460.856 235.176 455.058 235.176 444.53V444.189C235.175 433.749 229.28 428 218.576 428ZM224.032 445.349C224.032 449.986 221.713 452.169 217.894 452.169H211.141V437.778H217.894C221.714 437.778 224.032 439.961 224.032 444.599V445.349Z" fill="black"/>
<path d="M272.212 428H260.141C257.21 428 255 429.594 255 431.707V475.153C255 477.266 257.21 478.86 260.141 478.86H272.213C283.357 478.86 289.494 472.965 289.494 462.262V444.598C289.494 433.895 283.356 428 272.212 428V428ZM272.212 468.582H266.644V438.281H272.212C275.953 438.281 277.848 440.406 277.848 444.599V462.263C277.849 466.455 275.953 468.582 272.212 468.582Z" fill="black"/>
<path d="M340.807 428H317.14C314.664 428 312 429.181 312 431.776V475.085C312 477.679 315.018 478.86 317.822 478.86C320.626 478.86 323.645 477.679 323.645 475.085V457.99H333.441C335.876 457.99 337.148 455.713 337.148 453.464C337.148 451.147 335.875 448.801 333.441 448.801H323.645V438.279H340.807C342.99 438.279 344.515 436.137 344.515 433.07C344.516 430.629 343.355 428 340.807 428V428Z" fill="black"/>
<path d="M135.651 260.643C135.651 272.923 140.401 284.109 148.151 292.48V325.607C148.151 335.82 156.459 344.127 166.671 344.127H200.456C210.668 344.127 218.976 335.82 218.976 325.607V290.976C218.976 290.719 218.963 290.464 218.937 290.214C225.515 282.138 229.467 271.844 229.467 260.641C229.467 236.661 192.35 195.4 188.117 190.775C188.083 190.738 188.046 190.707 188.011 190.671C187.91 190.563 187.804 190.461 187.696 190.36C187.618 190.287 187.54 190.215 187.46 190.145C187.346 190.048 187.229 189.956 187.109 189.866C187.029 189.805 186.95 189.742 186.867 189.685C186.735 189.593 186.597 189.507 186.459 189.423C186.384 189.378 186.312 189.33 186.237 189.287C186.077 189.198 185.911 189.118 185.744 189.04C185.684 189.012 185.626 188.98 185.565 188.954C185.374 188.871 185.177 188.798 184.978 188.731C184.937 188.717 184.897 188.7 184.855 188.686C184.637 188.615 184.414 188.558 184.188 188.508C184.163 188.502 184.138 188.494 184.113 188.489C183.88 188.44 183.642 188.404 183.402 188.376C183.383 188.374 183.364 188.369 183.345 188.367C183.087 188.341 182.825 188.326 182.56 188.326C182.295 188.326 182.034 188.34 181.776 188.367C181.757 188.369 181.738 188.373 181.719 188.376C181.477 188.404 181.24 188.44 181.007 188.489C180.982 188.494 180.957 188.503 180.932 188.508C180.706 188.558 180.483 188.615 180.265 188.686C180.224 188.699 180.184 188.717 180.143 188.731C179.944 188.798 179.748 188.871 179.557 188.954C179.496 188.981 179.436 189.013 179.375 189.041C179.209 189.119 179.045 189.199 178.886 189.287C178.809 189.331 178.735 189.379 178.66 189.425C178.522 189.508 178.386 189.593 178.254 189.684C178.17 189.742 178.089 189.807 178.007 189.869C177.89 189.958 177.774 190.048 177.663 190.144C177.579 190.216 177.5 190.29 177.42 190.365C177.315 190.464 177.212 190.563 177.112 190.668C177.076 190.705 177.037 190.738 177.002 190.776C172.769 195.402 135.651 236.662 135.651 260.643V260.643ZM200.457 329.062H166.672C164.767 329.062 163.219 327.513 163.219 325.608V303.36C169.121 306.043 175.666 307.55 182.559 307.55C190.246 307.55 197.5 305.68 203.91 302.388V325.608C203.91 327.513 202.36 329.062 200.457 329.062V329.062ZM182.559 292.484C165.003 292.484 150.718 278.2 150.718 260.643C150.718 250.687 162.847 232.012 175.026 216.479V242.369C175.026 242.562 175.041 242.753 175.055 242.944C172.98 244.925 171.68 247.712 171.68 250.808C171.68 256.817 176.551 261.687 182.559 261.687C188.568 261.687 193.438 256.817 193.438 250.808C193.438 247.712 192.139 244.925 190.064 242.943C190.078 242.752 190.093 242.562 190.093 242.368V216.479C202.272 232.012 214.4 250.688 214.4 260.643C214.4 278.2 200.116 292.484 182.559 292.484V292.484Z" fill="black"/>
</svg>
