<svg width="134" height="166" viewBox="0 0 134 166" fill="none" xmlns="http://www.w3.org/2000/svg">
<rect x="2.5" y="2.5" width="118" height="145" rx="9.5" fill="white" stroke="#CBC9D1" stroke-width="5"/>
<rect x="44" y="113" width="90" height="53" rx="7" fill="#63B3ED"/>
<path d="M58.08 128.896V152.032H65.6C75.552 152.032 77.376 148.576 77.376 140.48C77.376 132.448 75.552 128.896 65.6 128.896H58.08ZM63.52 133.504H66.592C70.464 133.504 71.84 134.944 71.84 140.48C71.84 146.048 70.464 147.552 66.592 147.552H63.52V133.504ZM100.001 140.48C100.001 131.68 96.801 128.32 89.921 128.32C83.073 128.32 79.841 131.68 79.841 140.48C79.841 149.28 83.073 152.64 89.921 152.64C96.801 152.64 100.001 149.28 100.001 140.48ZM85.313 140.48C85.313 134.688 86.785 132.896 89.921 132.896C93.089 132.896 94.561 134.688 94.561 140.48C94.561 146.272 93.089 148.032 89.921 148.032C86.785 148.032 85.313 146.272 85.313 140.48ZM121.922 143.072H116.674C116.482 146.944 115.074 148.032 112.514 148.032C109.41 148.032 107.938 146.272 107.938 140.48C107.938 134.688 109.41 132.896 112.514 132.896C115.106 132.896 116.514 134.048 116.674 137.824H121.922C121.89 130.816 118.594 128.32 112.514 128.32C105.698 128.32 102.466 131.68 102.466 140.48C102.466 149.28 105.698 152.64 112.514 152.64C118.594 152.64 121.858 150.176 121.922 143.072Z" fill="white"/>
<line x1="37" y1="63.5" x2="85" y2="63.5" stroke="#CBC9D1" stroke-width="5"/>
<line x1="37" y1="73.5" x2="73" y2="73.5" stroke="#CBC9D1" stroke-width="3"/>
<line x1="37" y1="73.5" x2="73" y2="73.5" stroke="#CBC9D1" stroke-width="3"/>
<line x1="37" y1="82.5" x2="85" y2="82.5" stroke="#CBC9D1" stroke-width="3"/>
<line x1="37" y1="91.5" x2="67" y2="91.5" stroke="#CBC9D1" stroke-width="3"/>
<circle cx="37.5" cy="63.5" r="2.5" fill="#CBC9D1"/>
<circle cx="84.5" cy="63.5" r="2.5" fill="#CBC9D1"/>
<circle cx="37.5" cy="73.5" r="1.5" fill="#CBC9D1"/>
<circle cx="37.5" cy="82.5" r="1.5" fill="#CBC9D1"/>
<circle cx="37.5" cy="91.5" r="1.5" fill="#CBC9D1"/>
<circle cx="67.5" cy="91.5" r="1.5" fill="#CBC9D1"/>
<circle cx="84.5" cy="82.5" r="1.5" fill="#CBC9D1"/>
<circle cx="73.5" cy="73.5" r="1.5" fill="#CBC9D1"/>
</svg>
