<svg width="134" height="166" viewBox="0 0 134 166" fill="none" xmlns="http://www.w3.org/2000/svg">
<rect x="3.5" y="2.5" width="118" height="145" rx="6.5" fill="white" stroke="#CBC9D1" stroke-width="5"/>
<rect x="44" y="113" width="90" height="53" rx="7" fill="#F11B27"/>
<path d="M60.455 152H65.799V145.248H68.167C76.487 145.248 79.271 143.488 79.271 137.088C79.271 130.656 76.487 128.896 68.199 128.896H60.455V152ZM65.799 133.184H68.871C72.007 133.184 73.767 133.6 73.767 137.024C73.767 140.448 72.007 140.896 68.871 140.896H65.799V133.184ZM82.2675 128.896V152.032H89.7875C99.7395 152.032 101.564 148.576 101.564 140.48C101.564 132.448 99.7395 128.896 89.7875 128.896H82.2675ZM87.7075 133.504H90.7795C94.6515 133.504 96.0275 134.944 96.0275 140.48C96.0275 146.048 94.6515 147.552 90.7795 147.552H87.7075V133.504ZM104.893 152H110.237V143.104H118.717V138.976H110.237V133.312H120.317V128.96H104.893V152Z" fill="white"/>
<mask id="path-4-inside-1" fill="white">
<rect x="38" y="61" width="48" height="24" rx="3"/>
</mask>
<rect x="38" y="61" width="48" height="24" rx="3" stroke="#CBC9D1" stroke-width="8" mask="url(#path-4-inside-1)"/>
<line x1="38" y1="93" x2="86" y2="93" stroke="#CBC9D1" stroke-width="4"/>
<path d="M38 100H67" stroke="#CBC9D1" stroke-width="2"/>
<line x1="38" y1="107" x2="86" y2="107" stroke="#CBC9D1" stroke-width="2"/>
<path d="M40 93C40 94.1046 39.1046 95 38 95C36.8954 95 36 94.1046 36 93C36 91.8954 36.8954 91 38 91C39.1046 91 40 91.8954 40 93Z" fill="#CBC9D1"/>
<path d="M39 100C39 100.552 38.5523 101 38 101C37.4477 101 37 100.552 37 100C37 99.4477 37.4477 99 38 99C38.5523 99 39 99.4477 39 100Z" fill="#CBC9D1"/>
<path d="M39 107C39 107.552 38.5523 108 38 108C37.4477 108 37 107.552 37 107C37 106.448 37.4477 106 38 106C38.5523 106 39 106.448 39 107Z" fill="#CBC9D1"/>
<path d="M87 107C87 107.552 86.5523 108 86 108C85.4477 108 85 107.552 85 107C85 106.448 85.4477 106 86 106C86.5523 106 87 106.448 87 107Z" fill="#CBC9D1"/>
<path d="M68 100C68 100.552 67.5523 101 67 101C66.4477 101 66 100.552 66 100C66 99.4477 66.4477 99 67 99C67.5523 99 68 99.4477 68 100Z" fill="#CBC9D1"/>
<path d="M88 93C88 94.1046 87.1046 95 86 95C84.8954 95 84 94.1046 84 93C84 91.8954 84.8954 91 86 91C87.1046 91 88 91.8954 88 93Z" fill="#CBC9D1"/>
</svg>
