<svg width="134" height="166" viewBox="0 0 134 166" fill="none" xmlns="http://www.w3.org/2000/svg">
<rect x="1" y="1" width="121" height="148" rx="8" fill="white" stroke="#DEDEDE" stroke-width="2"/>
<rect x="2.5" y="2.5" width="118" height="145" rx="6.5" fill="white" stroke="#CBC9D1" stroke-width="5"/>
<rect x="44" y="113" width="90" height="53" rx="7" fill="#AB8DE5"/>
<path d="M57.7675 152H63.1115V145.248H65.4795C73.7995 145.248 76.5835 143.488 76.5835 137.088C76.5835 130.656 73.7995 128.896 65.5115 128.896H57.7675V152ZM63.1115 133.184H66.1835C69.3195 133.184 71.0795 133.6 71.0795 137.024C71.0795 140.448 69.3195 140.896 66.1835 140.896H63.1115V133.184ZM84.284 135.136L93.116 152H99.324V128.96H94.332L94.62 145.44L85.82 128.96H79.644L79.58 152H84.572L84.284 135.136ZM121.822 148.992V140.096H113.246V143.584H116.958V146.432C116.83 147.712 114.43 148.256 112.83 148.256C109.662 148.256 108.094 146.496 108.094 140.512C108.094 134.688 109.566 132.896 112.638 132.896C115.166 132.896 116.67 134.208 116.766 137.088H121.822C121.822 131.232 118.974 128.32 112.638 128.32C105.79 128.32 102.622 131.712 102.622 140.512C102.622 149.312 105.79 152.672 112.638 152.64C119.294 152.608 121.822 149.216 121.822 148.992Z" fill="white"/>
<mask id="path-5-inside-1" fill="white">
<rect x="37" y="53" width="48" height="40" rx="3"/>
</mask>
<rect x="37" y="53" width="48" height="40" rx="3" stroke="#CBC9D1" stroke-width="8" mask="url(#path-5-inside-1)"/>
<path d="M49.2667 71C46.9697 71 41.9746 73.9327 39.9155 75.2051C39.3406 75.5603 39 76.1901 39 76.866V89C39 90.1046 39.8954 91 41 91H81C82.1046 91 83 90.1046 83 89V80.8816C83 80.3973 82.8269 79.9319 82.4963 79.578C80.8371 77.802 75.4395 72.3751 71.7556 72.7391C67.3556 73.1739 62.9556 78.3913 59.5333 78.3913C56.1111 78.3913 52.2 71 49.2667 71Z" stroke="#CBC9D1" stroke-width="3"/>
<circle cx="74" cy="65" r="4" stroke="#CBC9D1" stroke-width="2"/>
</svg>
