<svg width="209" height="146" viewBox="0 0 209 146" fill="none" xmlns="http://www.w3.org/2000/svg">
<path d="M201.609 12.5251H20.3507C17.1835 12.5251 14.616 15.0926 14.616 18.2598V138.497C14.616 141.664 17.1835 144.231 20.3507 144.231H201.609C204.777 144.231 207.344 141.664 207.344 138.497V18.2598C207.344 15.0926 204.777 12.5251 201.609 12.5251Z" fill="#3182CE"/>
<path d="M201.63 145.247H20.3508C18.5606 145.247 16.8438 144.535 15.578 143.27C14.3121 142.004 13.601 140.287 13.601 138.497V18.2599C13.601 16.4697 14.3121 14.7529 15.578 13.4871C16.8438 12.2213 18.5606 11.5101 20.3508 11.5101H201.63C203.42 11.5101 205.137 12.2213 206.403 13.4871C207.668 14.7529 208.38 16.4697 208.38 18.2599V138.497C208.38 140.287 207.668 142.004 206.403 143.27C205.137 144.535 203.42 145.247 201.63 145.247V145.247ZM20.3508 13.5401C19.099 13.5401 17.8985 14.0374 17.0134 14.9225C16.1283 15.8076 15.631 17.0081 15.631 18.2599V138.497C15.631 139.749 16.1283 140.949 17.0134 141.834C17.8985 142.719 19.099 143.217 20.3508 143.217H201.63C202.882 143.217 204.082 142.719 204.967 141.834C205.852 140.949 206.35 139.749 206.35 138.497V18.2599C206.35 17.0081 205.852 15.8076 204.967 14.9225C204.082 14.0374 202.882 13.5401 201.63 13.5401H20.3508Z" fill="#093F68"/>
<path d="M188.993 1H7.73474C4.56753 1 2 3.56754 2 6.73475V126.972C2 130.139 4.56753 132.706 7.73474 132.706H188.993C192.161 132.706 194.728 130.139 194.728 126.972V6.73475C194.728 3.56754 192.161 1 188.993 1Z" fill="white"/>
<path d="M188.029 133.736H6.74975C4.95961 133.736 3.24278 133.025 1.97695 131.759C0.711131 130.494 0 128.777 0 126.987V6.74975C0 4.95961 0.711131 3.24279 1.97695 1.97696C3.24278 0.711139 4.95961 0 6.74975 0H188.029C189.819 0 191.536 0.711139 192.802 1.97696C194.067 3.24279 194.778 4.95961 194.778 6.74975V126.987C194.778 128.777 194.067 130.494 192.802 131.759C191.536 133.025 189.819 133.736 188.029 133.736ZM6.74975 2.03C5.498 2.03 4.29751 2.52726 3.41238 3.41238C2.52726 4.29751 2.03 5.498 2.03 6.74975V126.987C2.03 128.238 2.52726 129.439 3.41238 130.324C4.29751 131.209 5.498 131.706 6.74975 131.706H188.029C189.281 131.706 190.481 131.209 191.366 130.324C192.251 129.439 192.748 128.238 192.748 126.987V6.74975C192.748 5.498 192.251 4.29751 191.366 3.41238C190.481 2.52726 189.281 2.03 188.029 2.03H6.74975Z" fill="#093F68"/>
<path d="M6.74976 1.01501H188.029C188.782 1.01501 189.528 1.16335 190.223 1.45155C190.919 1.73975 191.551 2.16216 192.084 2.69468C192.616 3.2272 193.039 3.8594 193.327 4.55517C193.615 5.25094 193.764 5.99667 193.764 6.74977V18.3208H1.03531V6.74977C1.0353 5.23233 1.6367 3.77674 2.70779 2.70185C3.77888 1.62695 5.23233 1.02039 6.74976 1.01501V1.01501Z" fill="#3182CE"/>
<path d="M193.763 19.3256H1.03529C0.766099 19.3256 0.507929 19.2187 0.31758 19.0283C0.127231 18.838 0.0202942 18.5798 0.0202942 18.3106V6.74975C0.0202861 4.96312 0.728626 3.24937 1.99006 1.98413C3.2515 0.718884 4.96312 0.00537333 6.74974 0H188.029C189.819 0 191.536 0.711139 192.802 1.97696C194.067 3.24279 194.778 4.95961 194.778 6.74975V18.3106C194.778 18.5798 194.672 18.838 194.481 19.0283C194.291 19.2187 194.033 19.3256 193.763 19.3256ZM2.05029 17.2956H192.748V6.74975C192.748 5.498 192.251 4.29751 191.366 3.41238C190.481 2.52726 189.281 2.03 188.029 2.03H6.74974C5.49799 2.03 4.2975 2.52726 3.41237 3.41238C2.52725 4.29751 2.02999 5.498 2.02999 6.74975L2.05029 17.2956Z" fill="#093F68"/>
<path d="M12.718 12.5251C14.2988 12.5251 15.5803 11.2436 15.5803 9.66284C15.5803 8.08203 14.2988 6.80054 12.718 6.80054C11.1371 6.80054 9.85565 8.08203 9.85565 9.66284C9.85565 11.2436 11.1371 12.5251 12.718 12.5251Z" fill="#F56132"/>
<path d="M12.7179 13.5401C11.9498 13.5401 11.199 13.3119 10.5607 12.8845C9.92244 12.4571 9.42551 11.8497 9.13296 11.1395C8.84041 10.4292 8.76543 9.64807 8.91752 8.89513C9.06961 8.14219 9.44192 7.45139 9.98722 6.91037C10.5325 6.36935 11.2262 6.0025 11.9804 5.85635C12.7345 5.7102 13.515 5.79134 14.2229 6.08948C14.9309 6.38762 15.5343 6.88932 15.9567 7.53093C16.379 8.17254 16.6013 8.92515 16.5952 9.69327C16.5846 10.7155 16.1717 11.6923 15.446 12.4123C14.7203 13.1323 13.7402 13.5375 12.7179 13.5401V13.5401ZM12.7179 7.81553C12.3539 7.81557 11.998 7.92319 11.6949 8.12486C11.3918 8.32653 11.155 8.61326 11.0144 8.94904C10.8737 9.28482 10.8354 9.65468 10.9042 10.0122C10.9731 10.3697 11.146 10.6988 11.4013 10.9583C11.6566 11.2179 11.9829 11.3962 12.3393 11.4708C12.6956 11.5455 13.066 11.5133 13.404 11.3781C13.7421 11.2429 14.0326 11.0109 14.2392 10.7111C14.4458 10.4114 14.5592 10.0573 14.5652 9.69327C14.5679 9.4485 14.5222 9.20561 14.4307 8.97856C14.3392 8.75152 14.2037 8.54481 14.032 8.37031C13.8603 8.19581 13.6559 8.05696 13.4304 7.96175C13.2048 7.86654 12.9627 7.81685 12.7179 7.81553V7.81553Z" fill="#093F68"/>
<path d="M23.5582 12.5251C25.139 12.5251 26.4205 11.2436 26.4205 9.66284C26.4205 8.08203 25.139 6.80054 23.5582 6.80054C21.9774 6.80054 20.6959 8.08203 20.6959 9.66284C20.6959 11.2436 21.9774 12.5251 23.5582 12.5251Z" fill="#FFBC0E"/>
<path d="M23.5582 13.5401C22.79 13.5401 22.0392 13.3119 21.4009 12.8845C20.7626 12.4571 20.2657 11.8497 19.9732 11.1395C19.6806 10.4292 19.6056 9.64807 19.7577 8.89513C19.9098 8.14219 20.2821 7.45139 20.8274 6.91037C21.3727 6.36935 22.0664 6.0025 22.8206 5.85635C23.5747 5.7102 24.3552 5.79134 25.0631 6.08948C25.7711 6.38762 26.3745 6.88932 26.7969 7.53093C27.2192 8.17254 27.4415 8.92515 27.4354 9.69327C27.4274 10.7163 27.0154 11.6947 26.2891 12.4153C25.5628 13.1358 24.5812 13.5402 23.5582 13.5401V13.5401ZM23.5582 7.81553C23.1941 7.81557 22.8382 7.92319 22.5351 8.12486C22.232 8.32653 21.9952 8.61326 21.8546 8.94904C21.7139 9.28482 21.6756 9.65468 21.7444 10.0122C21.8133 10.3697 21.9862 10.6988 22.2415 10.9583C22.4968 11.2179 22.8231 11.3962 23.1795 11.4708C23.5358 11.5455 23.9062 11.5133 24.2442 11.3781C24.5823 11.2429 24.8728 11.0109 25.0794 10.7111C25.286 10.4114 25.3994 10.0573 25.4054 9.69327C25.4095 9.44813 25.3647 9.20464 25.2737 8.97698C25.1826 8.74933 25.0472 8.54208 24.8753 8.3673C24.7033 8.19253 24.4983 8.05373 24.2722 7.959C24.0461 7.86426 23.8033 7.81549 23.5582 7.81553V7.81553Z" fill="#093F68"/>
<path d="M34.4085 12.5251C35.9893 12.5251 37.2708 11.2436 37.2708 9.66284C37.2708 8.08203 35.9893 6.80054 34.4085 6.80054C32.8277 6.80054 31.5462 8.08203 31.5462 9.66284C31.5462 11.2436 32.8277 12.5251 34.4085 12.5251Z" fill="#70CC40"/>
<path d="M34.4085 13.5401C33.6403 13.5401 32.8895 13.3119 32.2512 12.8845C31.613 12.4571 31.1161 11.8497 30.8235 11.1395C30.531 10.4292 30.456 9.64807 30.6081 8.89513C30.7602 8.14219 31.1325 7.45139 31.6778 6.91037C32.2231 6.36935 32.9168 6.0025 33.6709 5.85635C34.425 5.7102 35.2056 5.79134 35.9135 6.08948C36.6214 6.38762 37.2248 6.88932 37.6472 7.53093C38.0696 8.17254 38.2918 8.92515 38.2858 9.69327C38.2778 10.7163 37.8657 11.6947 37.1394 12.4153C36.4132 13.1358 35.4316 13.5402 34.4085 13.5401V13.5401ZM34.4085 7.81553C34.0444 7.81557 33.6885 7.92319 33.3854 8.12486C33.0823 8.32653 32.8456 8.61326 32.7049 8.94904C32.5642 9.28482 32.5259 9.65468 32.5948 10.0122C32.6636 10.3697 32.8366 10.6988 33.0919 10.9583C33.3472 11.2179 33.6735 11.3962 34.0298 11.4708C34.3861 11.5455 34.7565 11.5133 35.0946 11.3781C35.4326 11.2429 35.7232 11.0109 35.9298 10.7111C36.1364 10.4114 36.2498 10.0573 36.2558 9.69327C36.2585 9.4485 36.2127 9.20561 36.1212 8.97856C36.0297 8.75152 35.8942 8.54481 35.7226 8.37031C35.5509 8.19581 35.3464 8.05696 35.1209 7.96175C34.8954 7.86654 34.6533 7.81685 34.4085 7.81553V7.81553Z" fill="#093F68"/>
<path d="M112.463 63.182C112.129 63.1834 111.798 63.1187 111.49 62.9916C111.181 62.8646 110.901 62.6777 110.665 62.4418C110.429 62.2059 110.242 61.9257 110.115 61.6172C109.988 61.3087 109.924 60.9782 109.925 60.6445V54.8996C109.829 51.3954 108.369 48.0671 105.856 45.6226C103.344 43.178 99.9767 41.8103 96.4712 41.8103C92.9657 41.8103 89.5985 43.178 87.0859 45.6226C84.5733 48.0671 83.1136 51.3954 83.0174 54.8996V60.6547C83.0174 61.3277 82.75 61.9731 82.2741 62.449C81.7983 62.9248 81.1528 63.1922 80.4799 63.1922C79.8069 63.1922 79.1615 62.9248 78.6856 62.449C78.2097 61.9731 77.9424 61.3277 77.9424 60.6547V54.8996C78.0556 50.0606 80.0575 45.4578 83.52 42.0754C86.9825 38.6931 91.6308 36.7994 96.4712 36.7994C101.312 36.7994 105.96 38.6931 109.422 42.0754C112.885 45.4578 114.887 50.0606 115 54.8996V60.6547C114.997 61.3259 114.729 61.9687 114.253 62.4424C113.778 62.9161 113.134 63.1821 112.463 63.182Z" fill="#3182CE"/>
<path d="M112.535 63.4009C111.593 63.4009 110.689 63.0266 110.023 62.3604C109.357 61.6942 108.983 60.7906 108.983 59.8484V54.1035C108.89 50.866 107.539 47.7922 105.216 45.5349C102.894 43.2777 99.7826 42.0149 96.5438 42.0149C93.305 42.0149 90.1939 43.2777 87.8712 45.5349C85.5486 47.7922 84.1975 50.866 84.105 54.1035V59.8585C84.105 60.8007 83.7307 61.7043 83.0645 62.3705C82.3983 63.0367 81.4947 63.411 80.5525 63.411C79.6103 63.411 78.7067 63.0367 78.0405 62.3705C77.3743 61.7043 77 60.8007 77 59.8585V54.1035C77.1164 48.9973 79.2266 44.1394 82.8791 40.5691C86.5316 36.9989 91.4363 35 96.5438 35C101.651 35 106.556 36.9989 110.209 40.5691C113.861 44.1394 115.971 48.9973 116.088 54.1035V59.8585C116.085 60.799 115.709 61.6999 115.044 62.364C114.378 63.028 113.476 63.4009 112.535 63.4009ZM96.5387 39.6296C100.377 39.6323 104.057 41.1581 106.77 43.8719C109.484 46.5857 111.01 50.2656 111.013 54.1035V59.8585C111.013 60.2623 111.173 60.6496 111.459 60.9351C111.744 61.2206 112.131 61.381 112.535 61.381C112.939 61.381 113.326 61.2206 113.612 60.9351C113.897 60.6496 114.058 60.2623 114.058 59.8585V54.1035C113.948 49.5315 112.054 45.1839 108.782 41.9892C105.509 38.7946 101.117 37.0062 96.5438 37.0062C91.9705 37.0062 87.5786 38.7946 84.3061 41.9892C81.0336 45.1839 79.1401 49.5315 79.03 54.1035V59.8585C79.03 60.2623 79.1904 60.6496 79.4759 60.9351C79.7615 61.2206 80.1487 61.381 80.5525 61.381C80.9563 61.381 81.3436 61.2206 81.6291 60.9351C81.9146 60.6496 82.075 60.2623 82.075 59.8585V54.1035C82.075 50.2665 83.5985 46.5866 86.3107 43.8725C89.0229 41.1584 92.7018 39.6323 96.5387 39.6296Z" fill="#093F68"/>
<path d="M113.432 57H80.1809C75.6627 57 72 60.6627 72 65.1809V91.1142C72 95.6323 75.6627 99.295 80.1809 99.295H113.432C117.95 99.295 121.613 95.6323 121.613 91.1142V65.1809C121.613 60.6627 117.95 57 113.432 57Z" fill="#3182CE"/>
<path d="M113.447 100.325H80.1858C77.7504 100.322 75.4155 99.3537 73.6934 97.6316C71.9713 95.9096 71.0027 93.5747 71 91.1393V65.1959C71 62.7588 71.9675 60.4213 73.6898 58.697C75.4122 56.9727 77.7486 56.0027 80.1858 56H113.447C115.886 56 118.225 56.9688 119.95 58.6934C121.674 60.418 122.643 62.757 122.643 65.1959V91.1393C122.641 93.5765 121.67 95.9129 119.946 97.6352C118.222 99.3576 115.884 100.325 113.447 100.325V100.325ZM80.1858 58.03C78.287 58.0327 76.4669 58.7889 75.1252 60.1324C73.7836 61.476 73.03 63.2971 73.03 65.1959V91.1393C73.03 92.079 73.2151 93.0095 73.5747 93.8777C73.9343 94.7459 74.4614 95.5347 75.1259 96.1992C75.7903 96.8637 76.5792 97.3907 77.4474 97.7503C78.3155 98.11 79.246 98.295 80.1858 98.295H113.447C115.346 98.295 117.167 97.5415 118.511 96.1998C119.854 94.8581 120.611 93.0381 120.613 91.1393V65.1959C120.611 63.2962 119.855 61.4751 118.511 60.1318C117.168 58.7885 115.347 58.0327 113.447 58.03H80.1858Z" fill="#093F68"/>
<path d="M103.536 73.2697C103.536 72.3126 103.276 71.3735 102.782 70.5532C102.289 69.733 101.582 69.0626 100.736 68.6142C99.8908 68.1657 98.9391 67.956 97.9834 68.0077C97.0277 68.0594 96.1041 68.3704 95.3119 68.9075C94.5197 69.4446 93.8888 70.1873 93.4869 71.0559C93.085 71.9246 92.9274 72.8863 93.0309 73.8378C93.1345 74.7893 93.4953 75.6946 94.0746 76.4564C94.6539 77.2183 95.4299 77.8079 96.3191 78.162V90.1187H99.3133V78.436C100.504 78.1929 101.575 77.546 102.344 76.6047C103.114 75.6634 103.535 74.4854 103.536 73.2697Z" fill="#093F68"/>
<path d="M98.3283 91.1854H95.3341C95.0649 91.1854 94.8067 91.0785 94.6163 90.8881C94.426 90.6978 94.3191 90.4396 94.3191 90.1704V78.8227C93.3391 78.2984 92.5157 77.5236 91.933 76.5772C91.3502 75.6309 91.0289 74.5468 91.0019 73.4358C90.9748 72.3247 91.243 71.2263 91.779 70.2527C92.315 69.2791 93.0997 68.4651 94.053 67.8938C95.0063 67.3224 96.0941 67.0142 97.2054 67.0005C98.3167 66.9868 99.4117 67.2681 100.379 67.8158C101.346 68.3634 102.15 69.1578 102.71 70.1179C103.27 71.078 103.565 72.1694 103.566 73.2808C103.563 74.5859 103.156 75.858 102.399 76.9216C101.643 77.9852 100.575 78.7877 99.3433 79.2186V90.1298C99.3488 90.2665 99.3266 90.4028 99.278 90.5307C99.2295 90.6586 99.1556 90.7753 99.0608 90.8739C98.966 90.9725 98.8522 91.0509 98.7263 91.1045C98.6005 91.158 98.4651 91.1855 98.3283 91.1854ZM96.3491 89.1554H97.3133V78.4878C97.3085 78.2503 97.3871 78.0187 97.5355 77.8332C97.6839 77.6478 97.8926 77.5202 98.1253 77.4728C99.1301 77.2729 100.029 76.7179 100.658 75.9094C101.287 75.1008 101.604 74.0928 101.551 73.0697C101.498 72.0467 101.078 71.0771 100.368 70.3383C99.6581 69.5995 98.7061 69.1411 97.686 69.0468C96.6659 68.9525 95.646 69.2287 94.8129 69.8248C93.9798 70.421 93.3892 71.2972 93.1492 72.2931C92.9093 73.289 93.0359 74.3381 93.5061 75.2482C93.9763 76.1584 94.7585 76.8688 95.7096 77.2495C95.8985 77.3247 96.0604 77.4549 96.1744 77.6232C96.2884 77.7915 96.3493 77.9901 96.3491 78.1934V89.1554Z" fill="#093F68"/>
<path d="M44.3047 35.8803H12.7179C12.4487 35.8803 12.1906 35.7733 12.0002 35.583C11.8099 35.3926 11.7029 35.1345 11.7029 34.8653C11.7029 34.5961 11.8099 34.3379 12.0002 34.1476C12.1906 33.9572 12.4487 33.8503 12.7179 33.8503H44.3047C44.5739 33.8503 44.8321 33.9572 45.0225 34.1476C45.2128 34.3379 45.3197 34.5961 45.3197 34.8653C45.3197 35.1345 45.2128 35.3926 45.0225 35.583C44.8321 35.7733 44.5739 35.8803 44.3047 35.8803Z" fill="#DFEAEF"/>
<path d="M44.3047 49.5117H12.7179C12.4487 49.5117 12.1906 49.4047 12.0002 49.2144C11.8099 49.024 11.7029 48.7659 11.7029 48.4967C11.7029 48.2275 11.8099 47.9693 12.0002 47.779C12.1906 47.5886 12.4487 47.4817 12.7179 47.4817H44.3047C44.5739 47.4817 44.8321 47.5886 45.0225 47.779C45.2128 47.9693 45.3197 48.2275 45.3197 48.4967C45.3197 48.7659 45.2128 49.024 45.0225 49.2144C44.8321 49.4047 44.5739 49.5117 44.3047 49.5117Z" fill="#DFEAEF"/>
<path d="M44.3047 63.133H12.7179C12.4487 63.133 12.1906 63.026 12.0002 62.8357C11.8099 62.6453 11.7029 62.3872 11.7029 62.118C11.7029 61.8488 11.8099 61.5906 12.0002 61.4003C12.1906 61.2099 12.4487 61.103 12.7179 61.103H44.3047C44.5739 61.103 44.8321 61.2099 45.0225 61.4003C45.2128 61.5906 45.3197 61.8488 45.3197 62.118C45.3197 62.3872 45.2128 62.6453 45.0225 62.8357C44.8321 63.026 44.5739 63.133 44.3047 63.133Z" fill="#DFEAEF"/>
<path d="M180.602 71.03H149.015C148.746 71.03 148.488 70.9231 148.297 70.7327C148.107 70.5424 148 70.2842 148 70.015C148 69.7458 148.107 69.4876 148.297 69.2973C148.488 69.1069 148.746 69 149.015 69H180.602C180.871 69 181.129 69.1069 181.32 69.2973C181.51 69.4876 181.617 69.7458 181.617 70.015C181.617 70.2842 181.51 70.5424 181.32 70.7327C181.129 70.9231 180.871 71.03 180.602 71.03Z" fill="#DFEAEF"/>
<path d="M180.602 83.03H149.015C148.746 83.03 148.488 82.9231 148.297 82.7327C148.107 82.5424 148 82.2842 148 82.015C148 81.7458 148.107 81.4876 148.297 81.2973C148.488 81.1069 148.746 81 149.015 81H180.602C180.871 81 181.129 81.1069 181.32 81.2973C181.51 81.4876 181.617 81.7458 181.617 82.015C181.617 82.2842 181.51 82.5424 181.32 82.7327C181.129 82.9231 180.871 83.03 180.602 83.03Z" fill="#DFEAEF"/>
<path d="M180.602 98.03H149.015C148.746 98.03 148.488 97.9231 148.297 97.7327C148.107 97.5424 148 97.2842 148 97.015C148 96.7458 148.107 96.4876 148.297 96.2973C148.488 96.1069 148.746 96 149.015 96H180.602C180.871 96 181.129 96.1069 181.32 96.2973C181.51 96.4876 181.617 96.7458 181.617 97.015C181.617 97.2842 181.51 97.5424 181.32 97.7327C181.129 97.9231 180.871 98.03 180.602 98.03Z" fill="#DFEAEF"/>
<path d="M181.336 110H160.664C160.488 110 160.319 109.895 160.195 109.707C160.07 109.52 160 109.265 160 109C160 108.735 160.07 108.48 160.195 108.293C160.319 108.105 160.488 108 160.664 108H181.336C181.512 108 181.681 108.105 181.805 108.293C181.93 108.48 182 108.735 182 109C182 109.265 181.93 109.52 181.805 109.707C181.681 109.895 181.512 110 181.336 110Z" fill="#DFEAEF"/>
<path d="M44.3047 76.7543H12.7179C12.4487 76.7543 12.1906 76.6474 12.0002 76.457C11.8099 76.2667 11.7029 76.0085 11.7029 75.7393C11.7029 75.4701 11.8099 75.2119 12.0002 75.0216C12.1906 74.8312 12.4487 74.7243 12.7179 74.7243H44.3047C44.5739 74.7243 44.8321 74.8312 45.0225 75.0216C45.2128 75.2119 45.3197 75.4701 45.3197 75.7393C45.3197 76.0085 45.2128 76.2667 45.0225 76.457C44.8321 76.6474 44.5739 76.7543 44.3047 76.7543Z" fill="#DFEAEF"/>
<path d="M44.3047 90.3756H12.7179C12.4487 90.3756 12.1906 90.2686 12.0002 90.0783C11.8099 89.8879 11.7029 89.6298 11.7029 89.3606C11.7029 89.0914 11.8099 88.8332 12.0002 88.6429C12.1906 88.4525 12.4487 88.3456 12.7179 88.3456H44.3047C44.5739 88.3456 44.8321 88.4525 45.0225 88.6429C45.2128 88.8332 45.3197 89.0914 45.3197 89.3606C45.3197 89.6298 45.2128 89.8879 45.0225 90.0783C44.8321 90.2686 44.5739 90.3756 44.3047 90.3756Z" fill="#DFEAEF"/>
<path d="M44.3047 103.997H12.7179C12.4487 103.997 12.1906 103.89 12.0002 103.7C11.8099 103.509 11.7029 103.251 11.7029 102.982C11.7029 102.713 11.8099 102.455 12.0002 102.264C12.1906 102.074 12.4487 101.967 12.7179 101.967H44.3047C44.5739 101.967 44.8321 102.074 45.0225 102.264C45.2128 102.455 45.3197 102.713 45.3197 102.982C45.3197 103.251 45.2128 103.509 45.0225 103.7C44.8321 103.89 44.5739 103.997 44.3047 103.997Z" fill="#DFEAEF"/>
<path d="M31.8811 117.618H12.7179C12.4487 117.618 12.1906 117.511 12.0002 117.321C11.8099 117.131 11.7029 116.872 11.7029 116.603C11.7029 116.334 11.8099 116.076 12.0002 115.885C12.1906 115.695 12.4487 115.588 12.7179 115.588H31.8811C32.1503 115.588 32.4085 115.695 32.5989 115.885C32.7892 116.076 32.8961 116.334 32.8961 116.603C32.8961 116.872 32.7892 117.131 32.5989 117.321C32.4085 117.511 32.1503 117.618 31.8811 117.618Z" fill="#DFEAEF"/>
<path d="M181.188 34.0533H153.468C153.199 34.0533 152.941 33.9463 152.75 33.756C152.56 33.5656 152.453 33.3074 152.453 33.0383C152.453 32.7691 152.56 32.5109 152.75 32.3205C152.941 32.1302 153.199 32.0233 153.468 32.0233H181.188C181.457 32.0233 181.715 32.1302 181.905 32.3205C182.096 32.5109 182.203 32.7691 182.203 33.0383C182.203 33.3074 182.096 33.5656 181.905 33.756C181.715 33.9463 181.457 34.0533 181.188 34.0533Z" fill="#DFEAEF"/>
<path d="M181.188 46.3652H153.468C153.199 46.3652 152.941 46.2583 152.75 46.0679C152.56 45.8776 152.453 45.6194 152.453 45.3502C152.453 45.081 152.56 44.8228 152.75 44.6325C152.941 44.4421 153.199 44.3352 153.468 44.3352H181.188C181.457 44.3352 181.715 44.4421 181.905 44.6325C182.096 44.8228 182.203 45.081 182.203 45.3502C182.203 45.6194 182.096 45.8776 181.905 46.0679C181.715 46.2583 181.457 46.3652 181.188 46.3652Z" fill="#DFEAEF"/>
<path d="M181.188 58.6568H163.192C162.923 58.6568 162.664 58.5499 162.474 58.3595C162.284 58.1692 162.177 57.911 162.177 57.6418C162.177 57.3726 162.284 57.1145 162.474 56.9241C162.664 56.7338 162.923 56.6268 163.192 56.6268H181.188C181.457 56.6268 181.715 56.7338 181.905 56.9241C182.096 57.1145 182.203 57.3726 182.203 57.6418C182.203 57.911 182.096 58.1692 181.905 58.3595C181.715 58.5499 181.457 58.6568 181.188 58.6568Z" fill="#DFEAEF"/>
</svg>
